  0
SECTION
  2
HEADER
  9
$ACADVER
  1
AC1015
  9
$ACADMAINTVER
 70
     6
  9
$DWGCODEPAGE
  3
ANSI_1252
  9
$INSBASE
 10
0.0
 20
0.0
 30
0.0
  9
$EXTMIN
 10
-111.0
 20
-165.6126528789
 30
0.0
  9
$EXTMAX
 10
111.0
 20
95.1873471211
 30
0.0
  9
$LIMMIN
 10
0.0
 20
0.0
  9
$LIMMAX
 10
420.0
 20
297.0
  9
$ORTHOMODE
 70
     0
  9
$REGENMODE
 70
     1
  9
$FILLMODE
 70
     1
  9
$QTEXTMODE
 70
     0
  9
$MIRRTEXT
 70
     1
  9
$LTSCALE
 40
1.0
  9
$ATTMODE
 70
     1
  9
$TEXTSIZE
 40
3.5
  9
$TRACEWID
 40
1.0
  9
$TEXTSTYLE
  7
Standard
  9
$CLAYER
  8
0
  9
$CELTYPE
  6
ByLayer
  9
$CECOLOR
 62
   256
  9
$CELTSCALE
 40
1.0
  9
$DISPSILH
 70
     0
  9
$DIMSCALE
 40
1.0
  9
$DIMASZ
 40
3.302
  9
$DIMEXO
 40
1.0
  9
$DIMDLI
 40
3.75
  9
$DIMRND
 40
0.0
  9
$DIMDLE
 40
0.0
  9
$DIMEXE
 40
1.0
  9
$DIMTP
 40
0.0
  9
$DIMTM
 40
0.0
  9
$DIMTXT
 40
3.5
  9
$DIMCEN
 40
2.5
  9
$DIMTSZ
 40
0.0
  9
$DIMTOL
 70
     0
  9
$DIMLIM
 70
     0
  9
$DIMTIH
 70
     1
  9
$DIMTOH
 70
     1
  9
$DIMSE1
 70
     0
  9
$DIMSE2
 70
     0
  9
$DIMTAD
 70
     1
  9
$DIMZIN
 70
     0
  9
$DIMBLK
  1

  9
$DIMASO
 70
     1
  9
$DIMSHO
 70
     1
  9
$DIMPOST
  1

  9
$DIMAPOST
  1

  9
$DIMALT
 70
     0
  9
$DIMALTD
 70
     3
  9
$DIMALTF
 40
0.0393700787
  9
$DIMLFAC
 40
1.0
  9
$DIMTOFL
 70
     1
  9
$DIMTVP
 40
0.0
  9
$DIMTIX
 70
     0
  9
$DIMSOXD
 70
     0
  9
$DIMSAH
 70
     0
  9
$DIMBLK1
  1

  9
$DIMBLK2
  1

  9
$DIMSTYLE
  2
ISO-25
  9
$DIMCLRD
 70
     0
  9
$DIMCLRE
 70
     0
  9
$DIMCLRT
 70
     0
  9
$DIMTFAC
 40
1.0
  9
$DIMGAP
 40
1.524
  9
$DIMJUST
 70
     0
  9
$DIMSD1
 70
     0
  9
$DIMSD2
 70
     0
  9
$DIMTOLJ
 70
     0
  9
$DIMTZIN
 70
     0
  9
$DIMALTZ
 70
     0
  9
$DIMALTTZ
 70
     0
  9
$DIMUPT
 70
     0
  9
$DIMDEC
 70
     2
  9
$DIMTDEC
 70
     2
  9
$DIMALTU
 70
     2
  9
$DIMALTTD
 70
     3
  9
$DIMTXSTY
  7
Standard
  9
$DIMAUNIT
 70
     0
  9
$DIMADEC
 70
     2
  9
$DIMALTRND
 40
0.0
  9
$DIMAZIN
 70
     0
  9
$DIMDSEP
 70
    44
  9
$DIMATFIT
 70
     3
  9
$DIMFRAC
 70
     0
  9
$DIMLDRBLK
  1

  9
$DIMLUNIT
 70
     2
  9
$DIMLWD
 70
    -2
  9
$DIMLWE
 70
    -2
  9
$DIMTMOVE
 70
     0
  9
$LUNITS
 70
     2
  9
$LUPREC
 70
     2
  9
$SKETCHINC
 40
1.0
  9
$FILLETRAD
 40
10.0
  9
$AUNITS
 70
     0
  9
$AUPREC
 70
     2
  9
$MENU
  1
.
  9
$ELEVATION
 40
0.0
  9
$PELEVATION
 40
0.0
  9
$THICKNESS
 40
0.0
  9
$LIMCHECK
 70
     0
  9
$CHAMFERA
 40
0.0
  9
$CHAMFERB
 40
0.0
  9
$CHAMFERC
 40
0.0
  9
$CHAMFERD
 40
0.0
  9
$SKPOLY
 70
     0
  9
$TDCREATE
 40
2458940.463525243
  9
$TDUCREATE
 40
2458940.338525243
  9
$TDUPDATE
 40
2458940.463554514
  9
$TDUUPDATE
 40
2458940.338554514
  9
$TDINDWG
 40
0.0000000116
  9
$TDUSRTIMER
 40
0.0000000116
  9
$USRTIMER
 70
     1
  9
$ANGBASE
 50
0.0
  9
$ANGDIR
 70
     0
  9
$PDMODE
 70
     0
  9
$PDSIZE
 40
-1.0
  9
$PLINEWID
 40
0.0
  9
$SPLFRAME
 70
     0
  9
$SPLINETYPE
 70
     6
  9
$SPLINESEGS
 70
     8
  9
$HANDSEED
  5
1CD
  9
$SURFTAB1
 70
     6
  9
$SURFTAB2
 70
     6
  9
$SURFTYPE
 70
     6
  9
$SURFU
 70
     6
  9
$SURFV
 70
     6
  9
$UCSBASE
  2

  9
$UCSNAME
  2

  9
$UCSORG
 10
0.0
 20
0.0
 30
0.0
  9
$UCSXDIR
 10
1.0
 20
0.0
 30
0.0
  9
$UCSYDIR
 10
0.0
 20
1.0
 30
0.0
  9
$UCSORTHOREF
  2

  9
$UCSORTHOVIEW
 70
     0
  9
$UCSORGTOP
 10
0.0
 20
0.0
 30
0.0
  9
$UCSORGBOTTOM
 10
0.0
 20
0.0
 30
0.0
  9
$UCSORGLEFT
 10
0.0
 20
0.0
 30
0.0
  9
$UCSORGRIGHT
 10
0.0
 20
0.0
 30
0.0
  9
$UCSORGFRONT
 10
0.0
 20
0.0
 30
0.0
  9
$UCSORGBACK
 10
0.0
 20
0.0
 30
0.0
  9
$PUCSBASE
  2

  9
$PUCSNAME
  2

  9
$PUCSORG
 10
0.0
 20
0.0
 30
0.0
  9
$PUCSXDIR
 10
1.0
 20
0.0
 30
0.0
  9
$PUCSYDIR
 10
0.0
 20
1.0
 30
0.0
  9
$PUCSORTHOREF
  2

  9
$PUCSORTHOVIEW
 70
     0
  9
$PUCSORGTOP
 10
0.0
 20
0.0
 30
0.0
  9
$PUCSORGBOTTOM
 10
0.0
 20
0.0
 30
0.0
  9
$PUCSORGLEFT
 10
0.0
 20
0.0
 30
0.0
  9
$PUCSORGRIGHT
 10
0.0
 20
0.0
 30
0.0
  9
$PUCSORGFRONT
 10
0.0
 20
0.0
 30
0.0
  9
$PUCSORGBACK
 10
0.0
 20
0.0
 30
0.0
  9
$USERI1
 70
     0
  9
$USERI2
 70
     0
  9
$USERI3
 70
     0
  9
$USERI4
 70
     0
  9
$USERI5
 70
     0
  9
$USERR1
 40
0.0
  9
$USERR2
 40
0.0
  9
$USERR3
 40
0.0
  9
$USERR4
 40
0.0
  9
$USERR5
 40
0.0
  9
$WORLDVIEW
 70
     1
  9
$SHADEDGE
 70
     3
  9
$SHADEDIF
 70
    70
  9
$TILEMODE
 70
     1
  9
$MAXACTVP
 70
    64
  9
$PINSBASE
 10
0.0
 20
0.0
 30
0.0
  9
$PLIMCHECK
 70
     0
  9
$PEXTMIN
 10
1.0000000000E+20
 20
1.0000000000E+20
 30
1.0000000000E+20
  9
$PEXTMAX
 10
-1.0000000000E+20
 20
-1.0000000000E+20
 30
-1.0000000000E+20
  9
$PLIMMIN
 10
0.0
 20
0.0
  9
$PLIMMAX
 10
420.0
 20
297.0
  9
$UNITMODE
 70
     0
  9
$VISRETAIN
 70
     1
  9
$PLINEGEN
 70
     0
  9
$PSLTSCALE
 70
     1
  9
$TREEDEPTH
 70
  3020
  9
$CMLSTYLE
  2
Standard
  9
$CMLJUST
 70
     0
  9
$CMLSCALE
 40
20.0
  9
$PROXYGRAPHICS
 70
     1
  9
$MEASUREMENT
 70
     1
  9
$CELWEIGHT
370
    -1
  9
$ENDCAPS
280
     0
  9
$JOINSTYLE
280
     0
  9
$LWDISPLAY
290
     1
  9
$INSUNITS
 70
     4
  9
$HYPERLINKBASE
  1

  9
$STYLESHEET
  1

  9
$XEDIT
290
     1
  9
$CEPSNTYPE
380
     0
  9
$PSTYLEMODE
290
     1
  9
$FINGERPRINTGUID
  2
{EED0A987-E7F8-4970-B96D-D8FDE134E8ED}
  9
$VERSIONGUID
  2
{FAEB1C32-E019-11D5-929B-00C0DF256EC4}
  9
$EXTNAMES
290
     1
  9
$PSVPSCALE
 40
0.0
  9
$OLESTARTUP
290
     0
  0
ENDSEC
  0
SECTION
  2
CLASSES
  0
CLASS
  1
ACDBDICTIONARYWDFLT
  2
AcDbDictionaryWithDefault
  3
ObjectDBX Classes
 90
        0
280
     0
281
     0
  0
CLASS
  1
VISUALSTYLE
  2
AcDbVisualStyle
  3
ObjectDBX Classes
 90
     4095
280
     0
281
     0
  0
CLASS
  1
MATERIAL
  2
AcDbMaterial
  3
ObjectDBX Classes
 90
     1153
280
     0
281
     0
  0
CLASS
  1
SCALE
  2
AcDbScale
  3
ObjectDBX Classes
 90
     1153
280
     0
281
     0
  0
CLASS
  1
TABLESTYLE
  2
AcDbTableStyle
  3
ObjectDBX Classes
 90
     4095
280
     0
281
     0
  0
CLASS
  1
MLEADERSTYLE
  2
AcDbMLeaderStyle
  3
ACDB_MLEADERSTYLE_CLASS
 90
     4095
280
     0
281
     0
  0
CLASS
  1
SUN
  2
AcDbSun
  3
SCENEOE
 90
     1153
280
     0
281
     0
  0
CLASS
  1
ACDBPLACEHOLDER
  2
AcDbPlaceHolder
  3
ObjectDBX Classes
 90
        0
280
     0
281
     0
  0
CLASS
  1
LAYOUT
  2
AcDbLayout
  3
ObjectDBX Classes
 90
        0
280
     0
281
     0
  0
ENDSEC
  0
SECTION
  2
TABLES
  0
TABLE
  2
VPORT
  5
8
330
0
100
AcDbSymbolTable
 70
     1
  0
VPORT
  5
29
330
8
100
AcDbSymbolTableRecord
100
AcDbViewportTableRecord
  2
*Active
 70
     0
 10
0.0
 20
0.0
 11
1.0
 21
1.0
 12
0.0
 22
-35.2126528789
 13
0.0
 23
0.0
 14
10.0
 24
10.0
 15
10.0
 25
10.0
 16
0.0
 26
0.0
 36
1.0
 17
0.0
 27
0.0
 37
0.0
 40
266.016
 41
0.8512269939
 42
50.0
 43
0.0
 44
0.0
 50
0.0
 51
0.0
 71
     0
 72
   100
 73
     1
 74
     3
 75
     0
 76
     0
 77
     0
 78
     0
281
     0
 65
     1
110
0.0
120
0.0
130
0.0
111
1.0
121
0.0
131
0.0
112
0.0
122
1.0
132
0.0
 79
     0
146
0.0
  0
ENDTAB
  0
TABLE
  2
LTYPE
  5
5
330
0
100
AcDbSymbolTable
 70
     6
  0
LTYPE
  5
14
330
5
100
AcDbSymbolTableRecord
100
AcDbLinetypeTableRecord
  2
ByBlock
 70
     0
  3

 72
    65
 73
     0
 40
0.0
  0
LTYPE
  5
15
330
5
100
AcDbSymbolTableRecord
100
AcDbLinetypeTableRecord
  2
ByLayer
 70
     0
  3

 72
    65
 73
     0
 40
0.0
  0
LTYPE
  5
16
330
5
100
AcDbSymbolTableRecord
100
AcDbLinetypeTableRecord
  2
Continuous
 70
     0
  3
Solid line
 72
    65
 73
     0
 40
0.0
  0
LTYPE
  5
6E
330
5
100
AcDbSymbolTableRecord
100
AcDbLinetypeTableRecord
  2
HIDDEN
 70
     0
  3
Hidden __ __ __ __ __ __ __ __ __ __ __ __ __ __
 72
    65
 73
     2
 40
1.905
 49
1.27
 74
     0
 49
-0.635
 74
     0
  0
LTYPE
  5
6F
330
5
100
AcDbSymbolTableRecord
100
AcDbLinetypeTableRecord
  2
PHANTOM
 70
     0
  3
Phantom ______  __  __  ______  __  __  ______
 72
    65
 73
     6
 40
12.7
 49
6.35
 74
     0
 49
-1.27
 74
     0
 49
1.27
 74
     0
 49
-1.27
 74
     0
 49
1.27
 74
     0
 49
-1.27
 74
     0
  0
LTYPE
  5
70
330
5
100
AcDbSymbolTableRecord
100
AcDbLinetypeTableRecord
  2
CENTER
 70
     0
  3
Center ____ _ ____ _ ____ _ ____ _ ____ _ ____
 72
    65
 73
     4
 40
10.16
 49
6.35
 74
     0
 49
-1.27
 74
     0
 49
1.27
 74
     0
 49
-1.27
 74
     0
  0
LTYPE
  5
71
330
5
100
AcDbSymbolTableRecord
100
AcDbLinetypeTableRecord
  2
CENTERX2
 70
     0
  3
Center (2x) ________  __  ________  __  _____
 72
    65
 73
     4
 40
20.32
 49
12.7
 74
     0
 49
-2.54
 74
     0
 49
2.54
 74
     0
 49
-2.54
 74
     0
  0
LTYPE
  5
72
330
5
100
AcDbSymbolTableRecord
100
AcDbLinetypeTableRecord
  2
DOT2
 70
     0
  3
Dot (.5x) ........................................
 72
    65
 73
     2
 40
0.635
 49
0.0
 74
     0
 49
-0.635
 74
     0
  0
ENDTAB
  0
TABLE
  2
LAYER
  5
2
330
0
100
AcDbSymbolTable
 70
     1
  0
LAYER
  5
10
330
2
100
AcDbSymbolTableRecord
100
AcDbLayerTableRecord
  2
0
 70
     0
 62
     7
  6
Continuous
370
    -3
390
F
  0
ENDTAB
  0
TABLE
  2
STYLE
  5
3
330
0
100
AcDbSymbolTable
 70
     1
  0
STYLE
  5
11
330
3
100
AcDbSymbolTableRecord
100
AcDbTextStyleTableRecord
  2
Standard
 70
     0
 40
0.0
 41
1.0
 50
0.0
 71
     0
 42
3.5
  3
txt
  4

  0
ENDTAB
  0
TABLE
  2
VIEW
  5
6
330
0
100
AcDbSymbolTable
 70
     0
  0
ENDTAB
  0
TABLE
  2
UCS
  5
7
330
0
100
AcDbSymbolTable
 70
     0
  0
ENDTAB
  0
TABLE
  2
APPID
  5
9
330
0
100
AcDbSymbolTable
 70
     1
  0
APPID
  5
12
330
9
100
AcDbSymbolTableRecord
100
AcDbRegAppTableRecord
  2
ACAD
 70
     0
  0
ENDTAB
  0
TABLE
  2
DIMSTYLE
  5
A
330
0
100
AcDbSymbolTable
 70
     1
100
AcDbDimStyleTable
  0
DIMSTYLE
105
27
330
A
100
AcDbSymbolTableRecord
100
AcDbDimStyleTableRecord
  2
ISO-25
 70
     0
 41
2.5
 42
0.625
 43
3.75
 44
1.25
 73
     0
 74
     0
 77
     1
 78
     8
140
2.5
141
2.5
143
0.0393700787
147
0.625
171
     3
172
     1
178
     0
271
     2
272
     2
274
     3
278
    44
283
     0
284
     8
340
11
  0
ENDTAB
  0
TABLE
  2
BLOCK_RECORD
  5
1
330
0
100
AcDbSymbolTable
 70
     1
  0
BLOCK_RECORD
  5
1F
330
1
100
AcDbSymbolTableRecord
100
AcDbBlockTableRecord
  2
*Model_Space
340
22
  0
BLOCK_RECORD
  5
1B
330
1
100
AcDbSymbolTableRecord
100
AcDbBlockTableRecord
  2
*Paper_Space
340
1E
  0
BLOCK_RECORD
  5
23
330
1
100
AcDbSymbolTableRecord
100
AcDbBlockTableRecord
  2
*Paper_Space0
340
26
  0
ENDTAB
  0
ENDSEC
  0
SECTION
  2
BLOCKS
  0
BLOCK
  5
20
330
1F
100
AcDbEntity
  8
0
100
AcDbBlockBegin
  2
*Model_Space
 70
     0
 10
0.0
 20
0.0
 30
0.0
  3
*Model_Space
  1

  0
ENDBLK
  5
21
330
1F
100
AcDbEntity
  8
0
100
AcDbBlockEnd
  0
BLOCK
  5
1C
330
1B
100
AcDbEntity
 67
     1
  8
0
100
AcDbBlockBegin
  2
*Paper_Space
 70
     0
 10
0.0
 20
0.0
 30
0.0
  3
*Paper_Space
  1

  0
ENDBLK
  5
1D
330
1B
100
AcDbEntity
 67
     1
  8
0
100
AcDbBlockEnd
  0
BLOCK
  5
24
330
23
100
AcDbEntity
  8
0
100
AcDbBlockBegin
  2
*Paper_Space0
 70
     0
 10
0.0
 20
0.0
 30
0.0
  3
*Paper_Space0
  1

  0
ENDBLK
  5
25
330
23
100
AcDbEntity
  8
0
100
AcDbBlockEnd
  0
ENDSEC
  0
SECTION
  2
ENTITIES
  0
CIRCLE
  5
8E
330
1F
100
AcDbEntity
  8
0
  6
Continuous
 62
     7
370
    25
100
AcDbCircle
 10
60.0879167918
 20
-132.3074514645
 30
0.0
 40
3.300000000000011
  0
CIRCLE
  5
D7
330
1F
100
AcDbEntity
  8
0
  6
Continuous
 62
     7
370
    25
100
AcDbCircle
 10
-87.0
 20
-155.6126528789
 30
0.0
 40
1.600000000000051
  0
CIRCLE
  5
E6
330
1F
100
AcDbEntity
  8
0
  6
Continuous
 62
     7
370
    25
100
AcDbCircle
 10
87.0
 20
-155.6126528789
 30
0.0
 40
1.599999999999966
  0
CIRCLE
  5
EB
330
1F
100
AcDbEntity
  8
0
  6
Continuous
 62
     7
370
    25
100
AcDbCircle
 10
60.0879167918
 20
-90.868161769
 30
0.0
 40
3.299999999999983
  0
CIRCLE
  5
F2
330
1F
100
AcDbEntity
  8
0
  6
Continuous
 62
     7
370
    25
100
AcDbCircle
 10
-87.0
 20
85.1873471211
 30
0.0
 40
1.59999999999998
  0
CIRCLE
  5
100
330
1F
100
AcDbEntity
  8
0
  6
Continuous
 62
     7
370
    25
100
AcDbCircle
 10
87.0
 20
85.1873471211
 30
0.0
 40
1.599999999999966
  0
CIRCLE
  5
101
330
1F
100
AcDbEntity
  8
0
  6
Continuous
 62
     7
370
    25
100
AcDbCircle
 10
-66.0
 20
-29.8126528789
 30
0.0
 40
1.600000000000026
  0
CIRCLE
  5
103
330
1F
100
AcDbEntity
  8
0
  6
Continuous
 62
     7
370
    25
100
AcDbCircle
 10
66.0
 20
-29.8126528789
 30
0.0
 40
1.599999999999969
  0
SPLINE
  5
107
330
1F
100
AcDbEntity
  8
0
  6
Continuous
 62
     7
370
    25
100
AcDbSpline
210
0.0
220
0.0
230
1.0
 70
     8
 71
     3
 72
    23
 73
    19
 74
     0
 42
0.000000001
 43
0.00000001
 40
0.0
 40
0.0
 40
0.0
 40
0.0
 40
0.0616742388774247
 40
0.1230530616348082
 40
0.1834750007317058
 40
0.2437265005106063
 40
0.3042789165122523
 40
0.3648629209606851
 40
0.4259462039686169
 40
0.4873912299654081
 40
0.5492203840754725
 40
0.6111435886926007
 40
0.6735285303101495
 40
0.7369614566573017
 40
0.8007852828728373
 40
0.8660125956416158
 40
0.9321007477905755
 40
1.0
 40
1.0
 40
1.0
 40
1.0
 10
49.15298634934623
 20
-133.8285528632744
 30
0.0
 10
49.13086823946511
 20
-133.8570913151977
 30
0.0
 10
49.08673796419969
 20
-133.9140315214719
 30
0.0
 10
49.01527994721329
 20
-133.994303231196
 30
0.0
 10
48.94000264981763
 20
-134.0698072666951
 30
0.0
 10
48.8603469398107
 20
-134.1399348879225
 30
0.0
 10
48.77722914822103
 20
-134.2060893535274
 30
0.0
 10
48.6891568358764
 20
-134.2663911848031
 30
0.0
 10
48.59728780337109
 20
-134.3216820690854
 30
0.0
 10
48.50193332446549
 20
-134.3723089935975
 30
0.0
 10
48.40319471166585
 20
-134.417226240622
 30
0.0
 10
48.30119027672387
 20
-134.4556800084141
 30
0.0
 10
48.19635970121987
 20
-134.4888048979466
 30
0.0
 10
48.08869819280778
 20
-134.5160568346704
 30
0.0
 10
47.97798243598088
 20
-134.537327918544
 30
0.0
 10
47.86461196188768
 20
-134.5515475933887
 30
0.0
 10
47.74834208666864
 20
-134.5612895078235
 30
0.0
 10
47.6699006655429
 20
-134.5621774236422
 30
0.0
 10
47.63014981088469
 20
-134.5626273825052
 30
0.0
  0
SPLINE
  5
108
330
1F
100
AcDbEntity
  8
0
  6
Continuous
 62
     7
370
    25
100
AcDbSpline
210
0.0
220
0.0
230
1.0
 70
     8
 71
     3
 72
    19
 73
    15
 74
     0
 42
0.000000001
 43
0.00000001
 40
0.0
 40
0.0
 40
0.0
 40
0.0
 40
0.0863150037405909
 40
0.1677664659179403
 40
0.2444326843848635
 40
0.3181346623514489
 40
0.3918841069799672
 40
0.4700680503917567
 40
0.5539041787139085
 40
0.6443394983098192
 40
0.7368746633345136
 40
0.8261683643076503
 40
0.9136785948895824
 40
1.0
 40
1.0
 40
1.0
 40
1.0
 10
38.42308708959548
 20
-90.7725161876065
 30
0.0
 10
38.42826454840075
 20
-90.80536295095798
 30
0.0
 10
38.43832773473629
 20
-90.86920568009563
 30
0.0
 10
38.4639741125125
 20
-90.96011396194079
 30
0.0
 10
38.49979161351364
 20
-91.04204542021787
 30
0.0
 10
38.54223465623981
 20
-91.11755671132985
 30
0.0
 10
38.59816726759018
 20
-91.1845460713745
 30
0.0
 10
38.66517080286693
 20
-91.24625772416638
 30
0.0
 10
38.74634857139796
 20
-91.3002295288084
 30
0.0
 10
38.83660917707124
 20
-91.3495803406294
 30
0.0
 10
38.93389441458618
 20
-91.38924542299614
 30
0.0
 10
39.03330568093736
 20
-91.41923878733651
 30
0.0
 10
39.13334866009251
 20
-91.43751768711006
 30
0.0
 10
39.20032482517323
 20
-91.4396342260827
 30
0.0
 10
39.23358388446728
 20
-91.44068525811932
 30
0.0
  0
SPLINE
  5
109
330
1F
100
AcDbEntity
  8
0
  6
Continuous
 62
     7
370
    25
100
AcDbSpline
210
0.0
220
0.0
230
1.0
 70
     8
 71
     3
 72
    15
 73
    11
 74
     0
 42
0.000000001
 43
0.00000001
 40
0.0
 40
0.0
 40
0.0
 40
0.0
 40
0.1287770352440114
 40
0.2551818927067077
 40
0.3801502058277845
 40
0.503363004596994
 40
0.6268586451702858
 40
0.750310134428101
 40
0.8744398126914156
 40
1.0
 40
1.0
 40
1.0
 40
1.0
 10
35.04571471473084
 20
-134.2667539850693
 30
0.0
 10
35.00675762189234
 20
-134.2904277207184
 30
0.0
 10
34.92956105756671
 20
-134.3373391025416
 30
0.0
 10
34.80919441978934
 20
-134.3978052693336
 30
0.0
 10
34.68643411962231
 20
-134.4481210070953
 30
0.0
 10
34.56155177672879
 20
-134.4896909812592
 30
0.0
 10
34.43472928831181
 20
-134.52296530669
 30
0.0
 10
34.30532355006122
 20
-134.5460590958581
 30
0.0
 10
34.1738039062521
 20
-134.5594693717099
 30
0.0
 10
34.08544150416131
 20
-134.5615706993044
 30
0.0
 10
34.04100718267956
 20
-134.5626273825052
 30
0.0
  0
SPLINE
  5
10A
330
1F
100
AcDbEntity
  8
0
  6
Continuous
 62
     7
370
    25
100
AcDbSpline
210
0.0
220
0.0
230
1.0
 70
     8
 71
     3
 72
    19
 73
    15
 74
     0
 42
0.000000001
 43
0.00000001
 40
0.0
 40
0.0
 40
0.0
 40
0.0
 40
0.0828906475568643
 40
0.1653025405594693
 40
0.2477618761145835
 40
0.3315277110598054
 40
0.4152798127751541
 40
0.4963662304840578
 40
0.5771513480211454
 40
0.6577825401388852
 40
0.7393216419943605
 40
0.8237930816663127
 40
0.9094759533791135
 40
1.0
 40
1.0
 40
1.0
 40
1.0
 10
37.72750558011546
 20
-134.2036530235308
 30
0.0
 10
37.75605932050809
 20
-134.2025791732492
 30
0.0
 10
37.81300188240735
 20
-134.2004376749624
 30
0.0
 10
37.89760831309616
 20
-134.1871762439329
 30
0.0
 10
37.98000842174648
 20
-134.1632756782523
 30
0.0
 10
38.06060910165377
 20
-134.1324359198335
 30
0.0
 10
38.13616008607339
 20
-134.0916883287384
 30
0.0
 10
38.20670352808484
 20
-134.0446174892661
 30
0.0
 10
38.26966746231331
 20
-133.9894066132483
 30
0.0
 10
38.32712546014539
 20
-133.9283062687176
 30
0.0
 10
38.37716039599799
 20
-133.8593664687503
 30
0.0
 10
38.42053153759976
 20
-133.7840883307015
 30
0.0
 10
38.45605746724523
 20
-133.7013389838189
 30
0.0
 10
38.47360099208471
 20
-133.6431845615689
 30
0.0
 10
38.48261375319238
 20
-133.6133084722488
 30
0.0
  0
SPLINE
  5
10B
330
1F
100
AcDbEntity
  8
0
  6
Continuous
 62
     7
370
    25
100
AcDbSpline
210
0.0
220
0.0
230
1.0
 70
     8
 71
     3
 72
    15
 73
    11
 74
     0
 42
0.000000001
 43
0.00000001
 40
0.0
 40
0.0
 40
0.0
 40
0.0
 40
0.191078591715723
 40
0.3626045563099828
 40
0.5160987502785251
 40
0.6500380260398252
 40
0.7659767209868014
 40
0.8623740257993705
 40
0.9408420582211928
 40
0.9999999999999999
 40
0.9999999999999999
 40
0.9999999999999999
 40
0.9999999999999999
 10
36.90298634934623
 20
-133.0699390812231
 30
0.0
 10
36.90293960537349
 20
-133.0996198169678
 30
0.0
 10
36.90285090062984
 20
-133.1559441279178
 30
0.0
 10
36.90344341450121
 20
-133.2361124284475
 30
0.0
 10
36.90510278291446
 20
-133.3073848874992
 30
0.0
 10
36.90614894247275
 20
-133.3700362350674
 30
0.0
 10
36.90847627600788
 20
-133.4237789825263
 30
0.0
 10
36.91037432290786
 20
-133.4689042932102
 30
0.0
 10
36.91281487961666
 20
-133.5051984956647
 30
0.0
 10
36.91574799711638
 20
-133.5263794217156
 30
0.0
 10
36.91700878524366
 20
-133.535483953018
 30
0.0
  0
SPLINE
  5
10C
330
1F
100
AcDbEntity
  8
0
  6
Continuous
 62
     7
370
    25
100
AcDbSpline
210
0.0
220
0.0
230
1.0
 70
     8
 71
     3
 72
    23
 73
    19
 74
     0
 42
0.000000001
 43
0.00000001
 40
0.0
 40
0.0
 40
0.0
 40
0.0
 40
0.0787802355821466
 40
0.1537206442085853
 40
0.2267135303087764
 40
0.299191166065942
 40
0.3711899968376728
 40
0.4430064143534139
 40
0.516689173294886
 40
0.5932172166234134
 40
0.6338729178078493
 40
0.6769891422899826
 40
0.7228995063258298
 40
0.7719586105061456
 40
0.8242113233348365
 40
0.8793786506272038
 40
0.9379481193304173
 40
0.9999999999999999
 40
0.9999999999999999
 40
0.9999999999999999
 40
0.9999999999999999
 10
29.00555045191033
 20
-131.9088813889154
 30
0.0
 10
29.00408145380183
 20
-131.9555164935264
 30
0.0
 10
29.0012150580122
 20
-132.0465136614144
 30
0.0
 10
28.97448995433217
 20
-132.1785745428232
 30
0.0
 10
28.93071343460342
 20
-132.3017638574637
 30
0.0
 10
28.87039014559411
 20
-132.4159264953792
 30
0.0
 10
28.79357066988061
 20
-132.5188371407393
 30
0.0
 10
28.70124587877727
 20
-132.6092275960432
 30
0.0
 10
28.5933642672876
 20
-132.684867508634
 30
0.0
 10
28.4929349513484
 20
-132.7373203133354
 30
0.0
 10
28.40422075165178
 20
-132.7709132219602
 30
0.0
 10
28.33118743886374
 20
-132.7945495808193
 30
0.0
 10
28.25152046136793
 20
-132.8128115460963
 30
0.0
 10
28.16598312676205
 20
-132.8291716778669
 30
0.0
 10
28.07421947126993
 20
-132.8415233722784
 30
0.0
 10
27.97644943188075
 20
-132.8505699667478
 30
0.0
 10
27.87260328025065
 20
-132.8562240154461
 30
0.0
 10
27.80126421089751
 20
-132.857066020335
 30
0.0
 10
27.76456487498725
 20
-132.857499177377
 30
0.0
  0
SPLINE
  5
10D
330
1F
100
AcDbEntity
  8
0
  6
Continuous
 62
     7
370
    25
100
AcDbSpline
210
0.0
220
0.0
230
1.0
 70
     8
 71
     3
 72
    15
 73
    11
 74
     0
 42
0.000000001
 43
0.00000001
 40
0.0
 40
0.0
 40
0.0
 40
0.0
 40
0.1285151895116618
 40
0.2529486363526595
 40
0.3747547340060077
 40
0.4959397538670484
 40
0.6171806414298897
 40
0.7409094692781366
 40
0.8678111481862117
 40
1.0
 40
1.0
 40
1.0
 40
1.0
 10
47.62804644550008
 20
-134.2036530235308
 30
0.0
 10
47.68914913449365
 20
-134.2019642437799
 30
0.0
 10
47.80941384341356
 20
-134.1986403212403
 30
0.0
 10
47.9857818697549
 20
-134.1704810721176
 30
0.0
 10
48.15461763538364
 20
-134.1248231542824
 30
0.0
 10
48.31593022192509
 20
-134.0609252319634
 30
0.0
 10
48.4692648681299
 20
-133.9778599440605
 30
0.0
 10
48.61486152843894
 20
-133.8771620666532
 30
0.0
 10
48.75284309894288
 20
-133.7578737338925
 30
0.0
 10
48.83581438117927
 20
-133.6667906056354
 30
0.0
 10
48.87814660575648
 20
-133.6203196901975
 30
0.0
  0
SPLINE
  5
10E
330
1F
100
AcDbEntity
  8
0
  6
Continuous
 62
     7
370
    25
100
AcDbSpline
210
0.0
220
0.0
230
1.0
 70
     8
 71
     3
 72
    23
 73
    19
 74
     0
 42
0.000000001
 43
0.00000001
 40
0.0
 40
0.0
 40
0.0
 40
0.0
 40
0.0642168426314307
 40
0.1270637656931266
 40
0.1887445383478246
 40
0.2491321028350438
 40
0.3094525327106242
 40
0.3698266762476855
 40
0.4306501418384645
 40
0.4923519318794717
 40
0.5540721062625259
 40
0.6156897837449715
 40
0.676797702506541
 40
0.7384390482469493
 40
0.8013169100649054
 40
0.8651845117115357
 40
0.931641324419073
 40
1.0
 40
1.0
 40
1.0
 40
1.0
 10
28.30022192626931
 20
-131.0205600748129
 30
0.0
 10
28.32582855040614
 20
-131.0268868401785
 30
0.0
 10
28.37649553987788
 20
-131.0394054038304
 30
0.0
 10
28.44944560591778
 20
-131.065865004654
 30
0.0
 10
28.51895992986951
 20
-131.0964846292786
 30
0.0
 10
28.58474975419121
 20
-131.1324483495968
 30
0.0
 10
28.64648554538167
 20
-131.1740231292693
 30
0.0
 10
28.7048038561763
 20
-131.2204912517045
 30
0.0
 10
28.7599693195563
 20
-131.2715984574749
 30
0.0
 10
28.80975094973664
 20
-131.3286332989776
 30
0.0
 10
28.85669000143118
 20
-131.3884698086576
 30
0.0
 10
28.89627862793178
 20
-131.4531735654987
 30
0.0
 10
28.93040510765426
 20
-131.5208350930228
 30
0.0
 10
28.95757562465441
 20
-131.5921425107783
 30
0.0
 10
28.97945359812756
 20
-131.6664042826409
 30
0.0
 10
28.99487983749852
 20
-131.7442930793681
 30
0.0
 10
29.00413102512932
 20
-131.825454054452
 30
0.0
 10
29.00507288068284
 20
-131.8808119632436
 30
0.0
 10
29.00555045191033
 20
-131.9088813889154
 30
0.0
  0
SPLINE
  5
10F
330
1F
100
AcDbEntity
  8
0
  6
Continuous
 62
     7
370
    25
100
AcDbSpline
210
0.0
220
0.0
230
1.0
 70
     8
 71
     3
 72
    23
 73
    19
 74
     0
 42
0.000000001
 43
0.00000001
 40
0.0
 40
0.0
 40
0.0
 40
0.0
 40
0.0658188768433064
 40
0.1297465269068314
 40
0.1920719544880045
 40
0.2534594242982022
 40
0.3145695877964211
 40
0.3762798811880256
 40
0.4390256536685594
 40
0.5032670288290866
 40
0.5674928228792949
 40
0.6297047956052448
 40
0.6909996492157544
 40
0.7514516509174436
 40
0.8120043642646926
 40
0.8731496810680424
 40
0.9356354837317857
 40
1.0
 40
1.0
 40
1.0
 40
1.0
 10
33.29928901267241
 20
-91.79965961709367
 30
0.0
 10
33.23586469369283
 20
-91.7981102302394
 30
0.0
 10
33.11083847775448
 20
-91.79505597631076
 30
0.0
 10
32.9273014423747
 20
-91.76887457150865
 30
0.0
 10
32.75102369852695
 20
-91.72793326770748
 30
0.0
 10
32.58250934731458
 20
-91.66942383148891
 30
0.0
 10
32.42166441771609
 20
-91.59380660076407
 30
0.0
 10
32.26817433502156
 20
-91.50160222169906
 30
0.0
 10
32.12265518777989
 20
-91.39219508051842
 30
0.0
 10
31.98631344129537
 20
-91.26802850593744
 30
0.0
 10
31.86156424311293
 20
-91.13285695392167
 30
0.0
 10
31.75280486742003
 20
-90.98802269884342
 30
0.0
 10
31.66057975410082
 20
-90.83636724219997
 30
0.0
 10
31.58521642160558
 20
-90.67746971808732
 30
0.0
 10
31.52555196226086
 20
-90.51209827538553
 30
0.0
 10
31.48484714412178
 20
-90.33914979789608
 30
0.0
 10
31.45851119205293
 20
-90.15961029208127
 30
0.0
 10
31.4554763455712
 20
-90.03736739375599
 30
0.0
 10
31.45393644856984
 20
-89.97534070683726
 30
0.0
  0
SPLINE
  5
110
330
1F
100
AcDbEntity
  8
0
  6
Continuous
 62
     7
370
    25
100
AcDbSpline
210
0.0
220
0.0
230
1.0
 70
     8
 71
     3
 72
    15
 73
    11
 74
     0
 42
0.000000001
 43
0.00000001
 40
0.0
 40
0.0
 40
0.0
 40
0.0
 40
0.1762577548177995
 40
0.3384344138804737
 40
0.4848220507878346
 40
0.6171575782663299
 40
0.7346983606124737
 40
0.8373851838323572
 40
0.9263724209295848
 40
1.0
 40
1.0
 40
1.0
 40
1.0
 10
27.50725317626931
 20
-130.9728837927616
 30
0.0
 10
27.55399430478289
 20
-130.9730393787496
 30
0.0
 10
27.64374244919195
 20
-130.9733381210814
 30
0.0
 10
27.77231571955159
 20
-130.9750038839896
 30
0.0
 10
27.88914281655176
 20
-130.9797782396978
 30
0.0
 10
27.99416265586893
 20
-130.9838868231749
 30
0.0
 10
28.08737331084522
 20
-130.9913787644981
 30
0.0
 10
28.16906060159316
 20
-130.9985394116178
 30
0.0
 10
28.23884829909439
 20
-131.0079130723968
 30
0.0
 10
28.28109415039696
 20
-131.0166184953625
 30
0.0
 10
28.30022192626931
 20
-131.0205600748129
 30
0.0
  0
SPLINE
  5
111
330
1F
100
AcDbEntity
  8
0
  6
Continuous
 62
     7
370
    25
100
AcDbSpline
210
0.0
220
0.0
230
1.0
 70
     8
 71
     3
 72
    23
 73
    19
 74
     0
 42
0.000000001
 43
0.00000001
 40
0.0
 40
0.0
 40
0.0
 40
0.0
 40
0.0711745037456327
 40
0.1396441217506208
 40
0.2063172239119599
 40
0.271373240191884
 40
0.335418083916313
 40
0.3980763446528607
 40
0.4606079146322872
 40
0.5229695111172303
 40
0.5847157240924604
 40
0.6448949403163565
 40
0.704290560820788
 40
0.7629981899193269
 40
0.8210874309038861
 40
0.8801038914766945
 40
0.9393884881896668
 40
1.0
 40
1.0
 40
1.0
 40
1.0
 10
37.74503362498725
 20
-134.5626273825052
 30
0.0
 10
37.7113645223793
 20
-134.561842617241
 30
0.0
 10
37.64530586350021
 20
-134.5603029105999
 30
0.0
 10
37.54796779622049
 20
-134.5514801604721
 30
0.0
 10
37.45465359992136
 20
-134.5348617661568
 30
0.0
 10
37.36437772289646
 20
-134.5137018224339
 30
0.0
 10
37.27836922576146
 20
-134.4845180851553
 30
0.0
 10
37.19547578137966
 20
-134.4504199602952
 30
0.0
 10
37.11711710026089
 20
-134.4085427000122
 30
0.0
 10
37.04202197164548
 20
-134.3619493069924
 30
0.0
 10
36.97219721548927
 20
-134.3095246688237
 30
0.0
 10
36.90809981238161
 20
-134.252384494873
 30
0.0
 10
36.84962394179024
 20
-134.1914441174776
 30
0.0
 10
36.79775524544214
 20
-134.1260437517092
 30
0.0
 10
36.75163436086184
 20
-134.0566920447053
 30
0.0
 10
36.71190414745865
 20
-133.9831928048962
 30
0.0
 10
36.67779090333853
 20
-133.9055744887418
 30
0.0
 10
36.66018433628066
 20
-133.8516212883367
 30
0.0
 10
36.65128362498726
 20
-133.8243461325052
 30
0.0
  0
SPLINE
  5
112
330
1F
100
AcDbEntity
  8
0
  6
Continuous
 62
     7
370
    25
100
AcDbSpline
210
0.0
220
0.0
230
1.0
 70
     8
 71
     3
 72
    31
 73
    27
 74
     0
 42
0.000000001
 43
0.00000001
 40
0.0
 40
0.0
 40
0.0
 40
0.0
 40
0.0432089861713334
 40
0.0858728716306171
 40
0.1281200066967032
 40
0.1701519644541969
 40
0.2119176209878618
 40
0.253753002619122
 40
0.2960064088559475
 40
0.3384433571447835
 40
0.3810153681620325
 40
0.4228204794407591
 40
0.4640890557943113
 40
0.5051258486836842
 40
0.5459749706852401
 40
0.5869852111338603
 40
0.6283385916346613
 40
0.6700838015912051
 40
0.7119916023637216
 40
0.7530391548630189
 40
0.7940493953116384
 40
0.8348855427015818
 40
0.875498312929514
 40
0.9165472998303796
 40
0.9580037786449612
 40
1.0
 40
1.0
 40
1.0
 40
1.0
 10
31.45393644856984
 20
-89.97534070683726
 30
0.0
 10
31.45447108407496
 20
-89.9337080377006
 30
0.0
 10
31.45553361041885
 20
-89.850967914194
 30
0.0
 10
31.46832530288767
 20
-89.72810131404167
 30
0.0
 10
31.48688700409439
 20
-89.60721065627466
 30
0.0
 10
31.5134889166438
 20
-89.48863970831036
 30
0.0
 10
31.54828058363029
 20
-89.37267872360803
 30
0.0
 10
31.58933261102055
 20
-89.2585279607717
 30
0.0
 10
31.63947245637808
 20
-89.14734423702627
 30
0.0
 10
31.6961531044169
 20
-89.03860084531516
 30
0.0
 10
31.75941491243974
 20
-88.93399293947887
 30
0.0
 10
31.82929066189173
 20
-88.83511335632774
 30
0.0
 10
31.90332603035959
 20
-88.74113235954549
 30
0.0
 10
31.98448942398764
 20
-88.65448535570648
 30
0.0
 10
32.07010586918312
 20
-88.5726516993165
 30
0.0
 10
32.16156424731733
 20
-88.49688898229628
 30
0.0
 10
32.25830649168289
 20
-88.42651403133975
 30
0.0
 10
32.36074887144849
 20
-88.36309369025933
 30
0.0
 10
32.46636714632803
 20
-88.30573455564348
 30
0.0
 10
32.57524392410742
 20
-88.25651270466072
 30
0.0
 10
32.68590049561305
 20
-88.21426664315018
 30
0.0
 10
32.79885514353857
 20
-88.1800258179532
 30
0.0
 10
32.91380791561888
 20
-88.15299378196114
 30
0.0
 10
33.03100970019176
 20
-88.1345864282523
 30
0.0
 10
33.1503671264712
 20
-88.12176211036484
 30
0.0
 10
33.23077844542118
 20
-88.12070460837549
 30
0.0
 10
33.27124414087753
 20
-88.12017243760648
 30
0.0
  0
SPLINE
  5
113
330
1F
100
AcDbEntity
  8
0
  6
Continuous
 62
     7
370
    25
100
AcDbSpline
210
0.0
220
0.0
230
1.0
 70
     8
 71
     3
 72
    31
 73
    27
 74
     0
 42
0.000000001
 43
0.00000001
 40
0.0
 40
0.0
 40
0.0
 40
0.0
 40
0.0439549089061985
 40
0.0875018747976072
 40
0.1304626267314915
 40
0.1727520205665195
 40
0.2154030673796037
 40
0.257649829743241
 40
0.3001527489572978
 40
0.343121489502088
 40
0.3859251632064353
 40
0.4276857274028005
 40
0.4688179504865925
 40
0.5094918001550004
 40
0.5498830310733475
 40
0.5899800229668852
 40
0.6304052300068413
 40
0.6708686260826405
 40
0.7113839438381786
 40
0.7516272580635879
 40
0.791775576865195
 40
0.8324589188037462
 40
0.873319045017291
 40
0.9145429556263518
 40
0.9569235582098862
 40
1.0
 40
1.0
 40
1.0
 40
1.0
 10
47.60631166985905
 20
-131.2421145619924
 30
0.0
 10
47.57122837051865
 20
-131.2425185245022
 30
0.0
 10
47.50138737794774
 20
-131.2433227003688
 30
0.0
 10
47.39773890444727
 20
-131.2539318255737
 30
0.0
 10
47.29602585331588
 20
-131.2688430356182
 30
0.0
 10
47.19631438709726
 20
-131.2909683588417
 30
0.0
 10
47.09873142855801
 20
-131.3189409779192
 30
0.0
 10
47.00263902649236
 20
-131.3523663918429
 30
0.0
 10
46.90942842669528
 20
-131.3937212317028
 30
0.0
 10
46.81781018848103
 20
-131.4394294916597
 30
0.0
 10
46.73003097748577
 20
-131.4910569364031
 30
0.0
 10
46.6469759297084
 20
-131.5473702882846
 30
0.0
 10
46.5689479617872
 20
-131.6077393847243
 30
0.0
 10
46.49588534965405
 20
-131.6723904911022
 30
0.0
 10
46.42771340131854
 20
-131.7410324515777
 30
0.0
 10
46.36492609051337
 20
-131.8143967931668
 30
0.0
 10
46.30774068024796
 20
-131.892248966684
 30
0.0
 10
46.25502365518458
 20
-131.9735623742424
 30
0.0
 10
46.20781092182982
 20
-132.0581001658772
 30
0.0
 10
46.16828104243894
 20
-132.1461752363158
 30
0.0
 10
46.13327592023331
 20
-132.2362793393469
 30
0.0
 10
46.10557667758726
 20
-132.3294305001756
 30
0.0
 10
46.08365216075592
 20
-132.4249732660188
 30
0.0
 10
46.06852449748243
 20
-132.5231640539687
 30
0.0
 10
46.05803602628814
 20
-132.623797733566
 30
0.0
 10
46.0572358493874
 20
-132.6920070461804
 30
0.0
 10
46.05683250319238
 20
-132.726389401736
 30
0.0
  0
SPLINE
  5
114
330
1F
100
AcDbEntity
  8
0
  6
Continuous
 62
     7
370
    25
100
AcDbSpline
210
0.0
220
0.0
230
1.0
 70
     8
 71
     3
 72
    15
 73
    11
 74
     0
 42
0.000000001
 43
0.00000001
 40
0.0
 40
0.0
 40
0.0
 40
0.0
 40
0.0698351039154647
 40
0.155620754911669
 40
0.257801556658299
 40
0.373811234066359
 40
0.5064024926743698
 40
0.6555644581431076
 40
0.8200792824038567
 40
1.0
 40
1.0
 40
1.0
 40
1.0
 10
38.48261375319238
 20
-133.6133084722488
 30
0.0
 10
38.48561387848741
 20
-133.6009598979061
 30
0.0
 10
38.4922993666884
 20
-133.573442297823
 30
0.0
 10
38.49854641167446
 20
-133.5269210072685
 30
0.0
 10
38.50505293709018
 20
-133.4720316433016
 30
0.0
 10
38.50956750709108
 20
-133.4083798304912
 30
0.0
 10
38.51396872750546
 20
-133.3361788578868
 30
0.0
 10
38.51660180030185
 20
-133.2550526004034
 30
0.0
 10
38.51781883322598
 20
-133.1652956395922
 30
0.0
 10
38.51818151358047
 20
-133.1026584778165
 30
0.0
 10
38.51837096473085
 20
-133.0699390812231
 30
0.0
  0
SPLINE
  5
115
330
1F
100
AcDbEntity
  8
0
  6
Continuous
 62
     7
370
    25
100
AcDbSpline
210
0.0
220
0.0
230
1.0
 70
     8
 71
     3
 72
    31
 73
    27
 74
     0
 42
0.000000001
 43
0.00000001
 40
0.0
 40
0.0
 40
0.0
 40
0.0
 40
0.0548580354451508
 40
0.1070587915426422
 40
0.1569783545765232
 40
0.203992277182976
 40
0.2484915357868477
 40
0.2904833137405232
 40
0.3304890042981911
 40
0.3678859257629613
 40
0.4038581313538719
 40
0.4400093433074088
 40
0.4762950107796851
 40
0.5127922945733482
 40
0.5504848246303747
 40
0.5883811157748446
 40
0.6276453271698524
 40
0.6679794644543796
 40
0.7084327575000818
 40
0.7486023022886319
 40
0.7890877771957802
 40
0.829461204631707
 40
0.8703710453051766
 40
0.912214227149442
 40
0.9555465749316864
 40
1.0
 40
1.0
 40
1.0
 40
1.0
 10
40.33855183318523
 20
-90.32379823888854
 30
0.0
 10
40.33829771280073
 20
-90.36189661783729
 30
0.0
 10
40.33780178141984
 20
-90.43624792073922
 30
0.0
 10
40.33350120492273
 20
-90.54519927976327
 30
0.0
 10
40.32664420507054
 20
-90.64855226107012
 30
0.0
 10
40.31695611709642
 20
-90.74632075759774
 30
0.0
 10
40.30411911392639
 20
-90.8381549168413
 30
0.0
 10
40.28984389342173
 20
-90.92485968501674
 30
0.0
 10
40.2716643603647
 20
-91.00581267766371
 30
0.0
 10
40.25043095918149
 20
-91.08164509530921
 30
0.0
 10
40.22615741114467
 20
-91.1538306087231
 30
0.0
 10
40.19471626280379
 20
-91.22233922338701
 30
0.0
 10
40.15929176287094
 20
-91.28925362301713
 30
0.0
 10
40.11727710995918
 20
-91.35356173189908
 30
0.0
 10
40.07006572731641
 20
-91.4155482850366
 30
0.0
 10
40.01661404656916
 20
-91.47483736004638
 30
0.0
 10
39.95868988567519
 20
-91.53237640632098
 30
0.0
 10
39.89533032607761
 20
-91.58668947247378
 30
0.0
 10
39.82757980082086
 20
-91.63649814936132
 30
0.0
 10
39.75563984316273
 20
-91.68029592044519
 30
0.0
 10
39.68006307341015
 20
-91.7173195379262
 30
0.0
 10
39.6010459472859
 20
-91.74779546232736
 30
0.0
 10
39.51855474439654
 20
-91.77071006152497
 30
0.0
 10
39.43258738467249
 20
-91.78778521730605
 30
0.0
 10
39.34294819135789
 20
-91.79748751484554
 30
0.0
 10
39.28198353515985
 20
-91.79892944490534
 30
0.0
 10
39.25111192933907
 20
-91.79965961709367
 30
0.0
  0
SPLINE
  5
116
330
1F
100
AcDbEntity
  8
0
  6
Continuous
 62
     7
370
    25
100
AcDbSpline
210
0.0
220
0.0
230
1.0
 70
     8
 71
     3
 72
    23
 73
    19
 74
     0
 42
0.000000001
 43
0.00000001
 40
0.0
 40
0.0
 40
0.0
 40
0.0
 40
0.0652265038922754
 40
0.1285689957067286
 40
0.1903203781044676
 40
0.2513779886240611
 40
0.3123875283336943
 40
0.3737887042767224
 40
0.4364311597804491
 40
0.500566755309852
 40
0.564686795384743
 40
0.627135517883511
 40
0.6884554088949781
 40
0.7492457464637468
 40
0.8101551773646769
 40
0.8716709256529231
 40
0.9347734961077223
 40
1.0
 40
1.0
 40
1.0
 40
1.0
 10
35.13342362805702
 20
-89.95851378376034
 30
0.0
 10
35.13187369553294
 20
-90.02147123011689
 30
0.0
 10
35.12881859896722
 20
-90.14556765054887
 30
0.0
 10
35.10264982143167
 20
-90.32771109471959
 30
0.0
 10
35.06160882145768
 20
-90.50280179120183
 30
0.0
 10
35.00301255527506
 20
-90.67054744397673
 30
0.0
 10
34.92778707681176
 20
-90.83112500774175
 30
0.0
 10
34.83513190568082
 20
-90.98411196162358
 30
0.0
 10
34.72599069493868
 20
-91.1295584600095
 30
0.0
 10
34.60178384390537
 20
-91.26587112523319
 30
0.0
 10
34.46638280189132
 20
-91.39086859592682
 30
0.0
 10
34.32115253508236
 20
-91.49978747161046
 30
0.0
 10
34.16935921516035
 20
-91.59351159620941
 30
0.0
 10
34.00904950700097
 20
-91.66829527017458
 30
0.0
 10
33.84234947017453
 20
-91.72806719061967
 30
0.0
 10
33.66776714708602
 20
-91.76881982065106
 30
0.0
 10
33.48612059304564
 20
-91.79510686390313
 30
0.0
 10
33.36224958924306
 20
-91.79812537986629
 30
0.0
 10
33.29928901267241
 20
-91.79965961709367
 30
0.0
  0
SPLINE
  5
117
330
1F
100
AcDbEntity
  8
0
  6
Continuous
 62
     7
370
    25
100
AcDbSpline
210
0.0
220
0.0
230
1.0
 70
     8
 71
     3
 72
    19
 73
    15
 74
     0
 42
0.000000001
 43
0.00000001
 40
0.0
 40
0.0
 40
0.0
 40
0.0
 40
0.0863150037405902
 40
0.167766465917939
 40
0.2444326843848616
 40
0.3181346623514598
 40
0.3918841069799552
 40
0.4700680503917522
 40
0.5539041787139103
 40
0.6443394983098145
 40
0.7368746633345072
 40
0.8261683643076455
 40
0.9136785948895769
 40
1.0
 40
1.0
 40
1.0
 40
1.0
 10
36.91700878524366
 20
-133.535483953018
 30
0.0
 10
36.92218624404893
 20
-133.5683307163695
 30
0.0
 10
36.93224943038449
 20
-133.6321734455072
 30
0.0
 10
36.95789580816067
 20
-133.7230817273523
 30
0.0
 10
36.99371330916183
 20
-133.8050131856294
 30
0.0
 10
37.03615635188795
 20
-133.8805244767413
 30
0.0
 10
37.09208896323838
 20
-133.947513836786
 30
0.0
 10
37.15909249851511
 20
-134.0092254895779
 30
0.0
 10
37.24027026704614
 20
-134.0631972942199
 30
0.0
 10
37.33053087271941
 20
-134.1125481060409
 30
0.0
 10
37.42781611023435
 20
-134.1522131884077
 30
0.0
 10
37.52722737658554
 20
-134.182206552748
 30
0.0
 10
37.62727035574069
 20
-134.2004854525216
 30
0.0
 10
37.69424652082141
 20
-134.2026019914942
 30
0.0
 10
37.72750558011546
 20
-134.2036530235308
 30
0.0
  0
SPLINE
  5
118
330
1F
100
AcDbEntity
  8
0
  6
Continuous
 62
     7
370
    25
100
AcDbSpline
210
0.0
220
0.0
230
1.0
 70
     8
 71
     3
 72
    23
 73
    19
 74
     0
 42
0.000000001
 43
0.00000001
 40
0.0
 40
0.0
 40
0.0
 40
0.0
 40
0.0696628008990733
 40
0.1377495622582738
 40
0.2039167435177806
 40
0.2687798623293319
 40
0.3324137064772241
 40
0.3947535404471373
 40
0.4561800316591642
 40
0.516995649196719
 40
0.5773959379659483
 40
0.6371983435092731
 40
0.6969991842614489
 40
0.7567561942255594
 40
0.8165539052725996
 40
0.8769479965978647
 40
0.9381317879205953
 40
1.0
 40
1.0
 40
1.0
 40
1.0
 10
47.63014981088469
 20
-134.5626273825052
 30
0.0
 10
47.59250614382699
 20
-134.5623653899494
 30
0.0
 10
47.51807045373025
 20
-134.5618473321135
 30
0.0
 10
47.40817170211812
 20
-134.5534551647026
 30
0.0
 10
47.30118212131647
 20
-134.5420054277925
 30
0.0
 10
47.19740749544978
 20
-134.5247652967287
 30
0.0
 10
47.0962815204033
 20
-134.5044209566746
 30
0.0
 10
46.99872093591251
 20
-134.4771497000496
 30
0.0
 10
46.903765725554
 20
-134.4466005334534
 30
0.0
 10
46.8117973848579
 20
-134.4106955467086
 30
0.0
 10
46.72273768506129
 20
-134.3701793641713
 30
0.0
 10
46.6368738736934
 20
-134.3243878052701
 30
0.0
 10
46.55424544129441
 20
-134.2737059406089
 30
0.0
 10
46.47404002043915
 20
-134.2192509301852
 30
0.0
 10
46.39744243676413
 20
-134.1592736283148
 30
0.0
 10
46.32378891141671
 20
-134.0946069938111
 30
0.0
 10
46.25266643518411
 20
-134.0254689830598
 30
0.0
 10
46.20866375019235
 20
-133.9756141297174
 30
0.0
 10
46.18654003524367
 20
-133.9505480555821
 30
0.0
  0
SPLINE
  5
119
330
1F
100
AcDbEntity
  8
0
  6
Continuous
 62
     7
370
    25
100
AcDbSpline
210
0.0
220
0.0
230
1.0
 70
     8
 71
     3
 72
    31
 73
    27
 74
     0
 42
0.000000001
 43
0.00000001
 40
0.0
 40
0.0
 40
0.0
 40
0.0
 40
0.0429467432831167
 40
0.0855917492701566
 40
0.1273442348477961
 40
0.1691210933082126
 40
0.2106332667734616
 40
0.2525241407023016
 40
0.2943009991627189
 40
0.3368059667078239
 40
0.3791196007503834
 40
0.4208686033260844
 40
0.4620374625207017
 40
0.5028251959424972
 40
0.5436015190109758
 40
0.5843628611434202
 40
0.625520415646623
 40
0.6670122666286007
 40
0.7085517546538084
 40
0.7498891096823158
 40
0.7910176817309436
 40
0.8320676863961213
 40
0.873374072891693
 40
0.9148883481149924
 40
0.9570532567168809
 40
1.0
 40
1.0
 40
1.0
 40
1.0
 10
32.19144788780777
 20
-132.7383084722488
 30
0.0
 10
32.19199568034226
 20
-132.6966771885703
 30
0.0
 10
32.19308741670409
 20
-132.6137071162902
 30
0.0
 10
32.20571656846328
 20
-132.4908199446392
 30
0.0
 10
32.22448035887975
 20
-132.3699558138233
 30
0.0
 10
32.25102101207861
 20
-132.2516169866314
 30
0.0
 10
32.28576494081977
 20
-132.1353184088718
 30
0.0
 10
32.32741932440853
 20
-132.0212894044
 30
0.0
 10
32.3778891546128
 20
-131.9098237957983
 30
0.0
 10
32.43494407303764
 20
-131.8011497187996
 30
0.0
 10
32.49857667293061
 20
-131.6962090580891
 30
0.0
 10
32.56789310859962
 20
-131.5964953991281
 30
0.0
 10
32.64306390471851
 20
-131.5029914260163
 30
0.0
 10
32.72403584509335
 20
-131.4157399203771
 30
0.0
 10
32.81048555412166
 20
-131.3345480117226
 30
0.0
 10
32.90166963379292
 20
-131.2580787132872
 30
0.0
 10
32.99953231054986
 20
-131.1891767637121
 30
0.0
 10
33.10149068529793
 20
-131.1251007146262
 30
0.0
 10
33.20811652986011
 20
-131.0687547023252
 30
0.0
 10
33.31732424432737
 20
-131.0183831676228
 30
0.0
 10
33.42993076206047
 20
-130.9775130144305
 30
0.0
 10
33.54447500424225
 20
-130.9426866928756
 30
0.0
 10
33.66165189841502
 20
-130.9160987836579
 30
0.0
 10
33.78137012142273
 20
-130.8974725446354
 30
0.0
 10
33.90354545083009
 20
-130.8847215778746
 30
0.0
 10
33.98605309124103
 20
-130.8836705462252
 30
0.0
 10
34.027685868577
 20
-130.883140203018
 30
0.0
  0
SPLINE
  5
11A
330
1F
100
AcDbEntity
  8
0
  6
Continuous
 62
     7
370
    25
100
AcDbSpline
210
0.0
220
0.0
230
1.0
 70
     8
 71
     3
 72
    23
 73
    19
 74
     0
 42
0.000000001
 43
0.00000001
 40
0.0
 40
0.0
 40
0.0
 40
0.0
 40
0.0656670126655721
 40
0.1289742151073962
 40
0.1909276749603073
 40
0.2519487749183357
 40
0.3126942235710606
 40
0.3738296131874431
 40
0.4362009092567689
 40
0.4998805412082655
 40
0.5635601731597601
 40
0.6259314692290854
 40
0.6870668588454699
 40
0.7478123074981914
 40
0.8088334074562213
 40
0.8707868673091314
 40
0.9343329873344304
 40
1.0
 40
1.0
 40
1.0
 40
1.0
 10
34.027685868577
 20
-130.883140203018
 30
0.0
 10
34.09134644723479
 20
-130.8846658511967
 30
0.0
 10
34.21637989755309
 20
-130.8876623218505
 30
0.0
 10
34.399894260087
 20
-130.9140067511879
 30
0.0
 10
34.57595767176792
 20
-130.9548505133743
 30
0.0
 10
34.74444479628606
 20
-131.0134112094514
 30
0.0
 10
34.90520541368132
 20
-131.0887830286113
 30
0.0
 10
35.05817198499104
 20
-131.1814536215909
 30
0.0
 10
35.20358166838851
 20
-131.2903730516996
 30
0.0
 10
35.33927051626696
 20
-131.4148047627866
 30
0.0
 10
35.46370218172582
 20
-131.5504936042086
 30
0.0
 10
35.57262178328303
 20
-131.6959032682047
 30
0.0
 10
35.6652917512608
 20
-131.848869921297
 30
0.0
 10
35.74066588308457
 20
-132.0096302331517
 30
0.0
 10
35.79921787594046
 20
-132.1781185082943
 30
0.0
 10
35.84014730183627
 20
-132.3544033319686
 30
0.0
 10
35.86636594141294
 20
-132.5381702505317
 30
0.0
 10
35.8693954499747
 20
-132.6634317555372
 30
0.0
 10
35.87093506729494
 20
-132.7270905235308
 30
0.0
  0
SPLINE
  5
11B
330
1F
100
AcDbEntity
  8
0
  6
Continuous
 62
     7
370
    25
100
AcDbSpline
210
0.0
220
0.0
230
1.0
 70
     8
 71
     3
 72
    23
 73
    19
 74
     0
 42
0.000000001
 43
0.00000001
 40
0.0
 40
0.0
 40
0.0
 40
0.0
 40
0.0711745037456327
 40
0.1396441217506256
 40
0.2063172239119664
 40
0.2713732401918859
 40
0.3354180839163133
 40
0.3980763446528649
 40
0.4606079146322822
 40
0.5229695111172304
 40
0.5847157240924606
 40
0.6448949403163633
 40
0.704290560820791
 40
0.7629981899193268
 40
0.8210874309038778
 40
0.8801038914767055
 40
0.9393884881896668
 40
1.0
 40
1.0
 40
1.0
 40
1.0
 10
39.25111192933907
 20
-91.79965961709367
 30
0.0
 10
39.21744282673112
 20
-91.79887485182952
 30
0.0
 10
39.15138416785204
 20
-91.79733514518847
 30
0.0
 10
39.05404610057229
 20
-91.78851239506055
 30
0.0
 10
38.9607319042732
 20
-91.77189400074533
 30
0.0
 10
38.87045602724826
 20
-91.75073405702229
 30
0.0
 10
38.78444753011328
 20
-91.72155031974386
 30
0.0
 10
38.70155408573149
 20
-91.68745219488369
 30
0.0
 10
38.62319540461268
 20
-91.6455749346007
 30
0.0
 10
38.54810027599729
 20
-91.59898154158088
 30
0.0
 10
38.47827551984109
 20
-91.54655690341221
 30
0.0
 10
38.41417811673346
 20
-91.48941672946151
 30
0.0
 10
38.35570224614204
 20
-91.42847635206608
 30
0.0
 10
38.30383354979398
 20
-91.36307598629772
 30
0.0
 10
38.25771266521365
 20
-91.29372427929381
 30
0.0
 10
38.21798245181047
 20
-91.22022503948469
 30
0.0
 10
38.18386920769036
 20
-91.14260672333037
 30
0.0
 10
38.16626264063247
 20
-91.08865352292518
 30
0.0
 10
38.15736192933908
 20
-91.06137836709367
 30
0.0
  0
SPLINE
  5
11C
330
1F
100
AcDbEntity
  8
0
  6
Continuous
 62
     7
370
    25
100
AcDbSpline
210
0.0
220
0.0
230
1.0
 70
     8
 71
     3
 72
    23
 73
    19
 74
     0
 42
0.000000001
 43
0.00000001
 40
0.0
 40
0.0
 40
0.0
 40
0.0
 40
0.065984410694278
 40
0.1298376775260076
 40
0.1923264853164013
 40
0.2536425275300599
 40
0.3149010679721986
 40
0.3765395581448083
 40
0.439406486002679
 40
0.503573112895525
 40
0.5677241768074988
 40
0.6300096275864546
 40
0.6913591876110161
 40
0.7517408501832319
 40
0.8122231072176307
 40
0.8732972781823892
 40
0.9357103752807192
 40
1.0
 40
1.0
 40
1.0
 40
1.0
 10
34.04100718267957
 20
-134.5626273825052
 30
0.0
 10
33.97734684179325
 20
-134.5610940361045
 30
0.0
 10
33.85208224180329
 20
-134.5580768668456
 30
0.0
 10
33.66811212459667
 20
-134.5317364100991
 30
0.0
 10
33.491528505514
 20
-134.4910558909106
 30
0.0
 10
33.32268335481932
 20
-134.4321952262358
 30
0.0
 10
33.1613927428062
 20
-134.3570127437964
 30
0.0
 10
33.00773160477056
 20
-134.2643234680175
 30
0.0
 10
32.8616218397553
 20
-134.1554112528881
 30
0.0
 10
32.7252202494636
 20
-134.0309878734856
 30
0.0
 10
32.60049483191049
 20
-133.8956325674947
 30
0.0
 10
32.49105609332841
 20
-133.7510115290025
 30
0.0
 10
32.39800359689976
 20
-133.5995245694483
 30
0.0
 10
32.32276511052005
 20
-133.4404162713386
 30
0.0
 10
32.26305331598554
 20
-133.2750717840825
 30
0.0
 10
32.22236134735764
 20
-133.1021159893243
 30
0.0
 10
32.19602190956961
 20
-132.9225784684834
 30
0.0
 10
32.19298754187171
 20
-132.8003352975104
 30
0.0
 10
32.19144788780777
 20
-132.7383084722488
 30
0.0
  0
SPLINE
  5
11D
330
1F
100
AcDbEntity
  8
0
  6
Continuous
 62
     7
370
    25
100
AcDbSpline
210
0.0
220
0.0
230
1.0
 70
     8
 71
     3
 72
    19
 73
    15
 74
     0
 42
0.000000001
 43
0.00000001
 40
0.0
 40
0.0
 40
0.0
 40
0.0
 40
0.0631632593634583
 40
0.1254749410306343
 40
0.1871212198160322
 40
0.2482943461142878
 40
0.3092948562551188
 40
0.3698500660670854
 40
0.4309733755473783
 40
0.4924559896728126
 40
0.6161479662918532
 40
0.7408436984673621
 40
0.8681826486700431
 40
1.0
 40
1.0
 40
1.0
 40
1.0
 10
48.87814660575648
 20
-131.8254478953257
 30
0.0
 10
48.85854071740028
 20
-131.8020819254945
 30
0.0
 10
48.81959327057535
 20
-131.7556650097712
 30
0.0
 10
48.75693406805146
 20
-131.6904854652964
 30
0.0
 10
48.6916324251553
 20
-131.6294202038736
 30
0.0
 10
48.62371330393929
 20
-131.5721783242447
 30
0.0
 10
48.55195418445236
 20
-131.52076155851
 30
0.0
 10
48.47809338578644
 20
-131.4724904555671
 30
0.0
 10
48.40089534057989
 20
-131.4292227176246
 30
0.0
 10
48.2941436059344
 20
-131.3767597315086
 30
0.0
 10
48.15449575765407
 20
-131.3220135764964
 30
0.0
 10
47.97870091858094
 20
-131.2761103451961
 30
0.0
 10
47.79518982009622
 20
-131.2468891695118
 30
0.0
 10
47.66999222046923
 20
-131.2437243280527
 30
0.0
 10
47.60631166985905
 20
-131.2421145619924
 30
0.0
  0
SPLINE
  5
11E
330
1F
100
AcDbEntity
  8
0
  6
Continuous
 62
     7
370
    25
100
AcDbSpline
210
0.0
220
0.0
230
1.0
 70
     8
 71
     3
 72
    15
 73
    11
 74
     0
 42
0.000000001
 43
0.00000001
 40
0.0
 40
0.0
 40
0.0
 40
0.0
 40
0.1307076167532134
 40
0.2570291278115392
 40
0.3802316977119382
 40
0.5012473315417553
 40
0.6219529799761166
 40
0.7443181763518867
 40
0.8701288996743877
 40
1.0
 40
1.0
 40
1.0
 40
1.0
 10
35.87093506729494
 20
-132.7270905235308
 30
0.0
 10
35.86925244927442
 20
-132.7933278897486
 30
0.0
 10
35.86594367620519
 20
-132.923579920123
 30
0.0
 10
35.83778544817496
 20
-133.1145806455718
 30
0.0
 10
35.79251196134235
 20
-133.2970313322725
 30
0.0
 10
35.72830868939666
 20
-133.4708124374743
 30
0.0
 10
35.6453083678789
 20
-133.6358923746091
 30
0.0
 10
35.54511450147762
 20
-133.7939219593935
 30
0.0
 10
35.42652074608518
 20
-133.9448899871084
 30
0.0
 10
35.33486069097316
 20
-134.0365183416124
 30
0.0
 10
35.28830285575649
 20
-134.0830600748129
 30
0.0
  0
SPLINE
  5
11F
330
1F
100
AcDbEntity
  8
0
  6
Continuous
 62
     7
370
    25
100
AcDbSpline
210
0.0
220
0.0
230
1.0
 70
     8
 71
     3
 72
    15
 73
    11
 74
     0
 42
0.000000001
 43
0.00000001
 40
0.0
 40
0.0
 40
0.0
 40
0.0
 40
0.0698351039154196
 40
0.1556207549116493
 40
0.2578015566582817
 40
0.3738112340663699
 40
0.5064024926743832
 40
0.6555644581430992
 40
0.8200792824038523
 40
1.0
 40
1.0
 40
1.0
 40
1.0
 10
39.98869205754421
 20
-90.85034070683726
 30
0.0
 10
39.99169218283924
 20
-90.83799213249453
 30
0.0
 10
39.99837767104026
 20
-90.81047453241155
 30
0.0
 10
40.00462471602626
 20
-90.76395324185694
 30
0.0
 10
40.01113124144202
 20
-90.70906387789012
 30
0.0
 10
40.0156458114429
 20
-90.64541206507961
 30
0.0
 10
40.02004703185726
 20
-90.57321109247529
 30
0.0
 10
40.02268010465367
 20
-90.49208483499193
 30
0.0
 10
40.0238971375778
 20
-90.40232787418074
 30
0.0
 10
40.02425981793228
 20
-90.33969071240503
 30
0.0
 10
40.02444926908267
 20
-90.30697131581164
 30
0.0
  0
SPLINE
  5
120
330
1F
100
AcDbEntity
  8
0
  6
Continuous
 62
     7
370
    25
100
AcDbSpline
210
0.0
220
0.0
230
1.0
 70
     8
 71
     3
 72
    15
 73
    11
 74
     0
 42
0.000000001
 43
0.00000001
 40
0.0
 40
0.0
 40
0.0
 40
0.0
 40
0.0781298651584246
 40
0.1694654174977412
 40
0.2743352908540792
 40
0.3921101633539166
 40
0.5236873298575131
 40
0.6683654211389699
 40
0.8271319021257798
 40
1.0
 40
1.0
 40
1.0
 40
1.0
 10
38.15736192933909
 20
-91.06137836709368
 30
0.0
 10
38.15218477116478
 20
-91.04274579264442
 30
0.0
 10
38.14095539978829
 20
-91.00233132371255
 30
0.0
 10
38.12893010214349
 20
-90.93544483515505
 30
0.0
 10
38.11882102050203
 20
-90.8584299175048
 30
0.0
 10
38.10931546228081
 20
-90.77128129913672
 30
0.0
 10
38.1037065043241
 20
-90.67393143253418
 30
0.0
 10
38.09878906562778
 20
-90.56642251666477
 30
0.0
 10
38.09492744683124
 20
-90.44862455497854
 30
0.0
 10
38.09495021923476
 20
-90.36657003936098
 30
0.0
 10
38.09496208959548
 20
-90.32379823888854
 30
0.0
  0
SPLINE
  5
121
330
1F
100
AcDbEntity
  8
0
  6
Continuous
 62
     7
370
    25
100
AcDbSpline
210
0.0
220
0.0
230
1.0
 70
     8
 71
     3
 72
    15
 73
    11
 74
     0
 42
0.000000001
 43
0.00000001
 40
0.0
 40
0.0
 40
0.0
 40
0.0
 40
0.191078591715723
 40
0.3626045563099531
 40
0.5160987502785551
 40
0.6500380260398253
 40
0.7659767209867718
 40
0.8623740257993706
 40
0.9408420582211634
 40
1.0
 40
1.0
 40
1.0
 40
1.0
 10
38.40906465369806
 20
-90.30697131581164
 30
0.0
 10
38.40901790972533
 20
-90.33665205155636
 30
0.0
 10
38.40892920498168
 20
-90.39297636250629
 30
0.0
 10
38.40952171885301
 20
-90.47314466303594
 30
0.0
 10
38.41118108726629
 20
-90.54441712208771
 30
0.0
 10
38.41222724682457
 20
-90.60706846965594
 30
0.0
 10
38.4145545803597
 20
-90.66081121711478
 30
0.0
 10
38.41645262725966
 20
-90.70593652779864
 30
0.0
 10
38.41889318396849
 20
-90.7422307302532
 30
0.0
 10
38.42182630146821
 20
-90.76341165630404
 30
0.0
 10
38.42308708959549
 20
-90.77251618760651
 30
0.0
  0
SPLINE
  5
122
330
1F
100
AcDbEntity
  8
0
  6
Continuous
 62
     7
370
    25
100
AcDbSpline
210
0.0
220
0.0
230
1.0
 70
     8
 71
     3
 72
    15
 73
    11
 74
     0
 42
0.000000001
 43
0.00000001
 40
0.0
 40
0.0
 40
0.0
 40
0.0
 40
0.0781298651584428
 40
0.1694654174977209
 40
0.2743352908540788
 40
0.3921101633539162
 40
0.5236873298575133
 40
0.6683654211389511
 40
0.8271319021257986
 40
1.0
 40
1.0
 40
1.0
 40
1.0
 10
36.65128362498726
 20
-133.8243461325052
 30
0.0
 10
36.64610646681296
 20
-133.8057135580559
 30
0.0
 10
36.63487709543647
 20
-133.7652990891241
 30
0.0
 10
36.62285179779166
 20
-133.6984126005665
 30
0.0
 10
36.61274271615022
 20
-133.6213976829163
 30
0.0
 10
36.603237157929
 20
-133.5342490645483
 30
0.0
 10
36.59762819997228
 20
-133.4368991979457
 30
0.0
 10
36.59271076127597
 20
-133.3293902820763
 30
0.0
 10
36.58884914247942
 20
-133.2115923203901
 30
0.0
 10
36.58887191488293
 20
-133.1295378047725
 30
0.0
 10
36.58888378524367
 20
-133.0867660043
 30
0.0
  0
SPLINE
  5
123
330
1F
100
AcDbEntity
  8
0
  6
Continuous
 62
     7
370
    25
100
AcDbSpline
210
0.0
220
0.0
230
1.0
 70
     8
 71
     3
 72
    23
 73
    19
 74
     0
 42
0.000000001
 43
0.00000001
 40
0.0
 40
0.0
 40
0.0
 40
0.0
 40
0.0643232165798457
 40
0.1262901037035531
 40
0.1867264692161349
 40
0.2461464323353416
 40
0.3055756426461422
 40
0.3654293856180518
 40
0.4263263089482576
 40
0.4888399064006467
 40
0.5517249718140502
 40
0.6139185964661639
 40
0.6754837657683976
 40
0.7373338970992889
 40
0.8002290443945271
 40
0.8645022981233235
 40
0.9310407391556978
 40
1.0
 40
1.0
 40
1.0
 40
1.0
 10
46.05683250319238
 20
-132.726389401736
 30
0.0
 10
46.05809432221628
 20
-132.7781207216587
 30
0.0
 10
46.06057173649774
 20
-132.8796883065081
 30
0.0
 10
46.0826200705782
 20
-133.0284589170493
 30
0.0
 10
46.11612516186684
 20
-133.1709795908297
 30
0.0
 10
46.16634073880255
 20
-133.3063594331405
 30
0.0
 10
46.22825978936302
 20
-133.4362677911985
 30
0.0
 10
46.30650040086834
 20
-133.558506644605
 30
0.0
 10
46.39711693823257
 20
-133.6749232091165
 30
0.0
 10
46.50139135769364
 20
-133.782766156865
 30
0.0
 10
46.61579717368291
 20
-133.8812798821631
 30
0.0
 10
46.7385450852768
 20
-133.9680304636743
 30
0.0
 10
46.86932937306093
 20
-134.0403453461408
 30
0.0
 10
47.00670600324753
 20
-134.1005212926572
 30
0.0
 10
47.15173211716613
 20
-134.1467780203126
 30
0.0
 10
47.30414691957998
 20
-134.1793421438159
 30
0.0
 10
47.46361891483009
 20
-134.2005843243575
 30
0.0
 10
47.5725883147201
 20
-134.2026180124266
 30
0.0
 10
47.62804644550008
 20
-134.2036530235308
 30
0.0
  0
SPLINE
  5
124
330
1F
100
AcDbEntity
  8
0
  6
Continuous
 62
     7
370
    25
100
AcDbSpline
210
0.0
220
0.0
230
1.0
 70
     8
 71
     3
 72
    23
 73
    19
 74
     0
 42
0.000000001
 43
0.00000001
 40
0.0
 40
0.0
 40
0.0
 40
0.0
 40
0.0645578459297185
 40
0.1270135315497584
 40
0.1879548102020912
 40
0.2480139127896361
 40
0.3077476818488424
 40
0.3682345146974851
 40
0.4294698439426714
 40
0.4927434367465846
 40
0.5562577687060869
 40
0.6182167855431455
 40
0.6796554755875573
 40
0.7412455456206285
 40
0.8034152647056978
 40
0.8668154615439947
 40
0.9323283119492667
 40
1.0
 40
1.0
 40
1.0
 40
1.0
 10
45.74272993908981
 20
-132.7025512607103
 30
0.0
 10
45.74428513264689
 20
-132.639595807169
 30
0.0
 10
45.7473448788804
 20
-132.5157348826069
 30
0.0
 10
45.77334067435215
 20
-132.3339609293178
 30
0.0
 10
45.81515947054363
 20
-132.1598095304645
 30
0.0
 10
45.87455635913862
 20
-131.9936057858767
 30
0.0
 10
45.94986171044401
 20
-131.8344755056446
 30
0.0
 10
46.04288832428353
 20
-131.6836343007978
 30
0.0
 10
46.15255546650495
 20
-131.5401175011414
 30
0.0
 10
46.27800303418856
 20
-131.4061027498437
 30
0.0
 10
46.41557036948831
 20
-131.2835633972215
 30
0.0
 10
46.56288918337732
 20
-131.1757571934731
 30
0.0
 10
46.71967113034997
 20
-131.0860396774741
 30
0.0
 10
46.88418898202554
 20
-131.011043515048
 30
0.0
 10
47.05767466359217
 20
-130.9533990519121
 30
0.0
 10
47.2397580327176
 20
-130.9130458652242
 30
0.0
 10
47.43009694749885
 20
-130.8879287489343
 30
0.0
 10
47.55995937314818
 20
-130.8847535410315
 30
0.0
 10
47.62594308011546
 20
-130.883140203018
 30
0.0
  0
SPLINE
  5
125
330
1F
100
AcDbEntity
  8
0
  6
Continuous
 62
     7
370
    25
100
AcDbSpline
210
0.0
220
0.0
230
1.0
 70
     8
 71
     3
 72
    23
 73
    19
 74
     0
 42
0.000000001
 43
0.00000001
 40
0.0
 40
0.0
 40
0.0
 40
0.0
 40
0.0665700352151791
 40
0.1307490414821794
 40
0.193412800029504
 40
0.2549893988897097
 40
0.316113555875902
 40
0.3772617579089846
 40
0.4394007841555538
 40
0.5029705893719778
 40
0.5665249763607324
 40
0.62823110251331
 40
0.6890906105998629
 40
0.7493446689958064
 40
0.8101695933722062
 40
0.8716098243170438
 40
0.9348691840727641
 40
1.0
 40
1.0
 40
1.0
 40
1.0
 10
33.27124414087753
 20
-88.12017243760648
 30
0.0
 10
33.33605224678557
 20
-88.12181391697754
 30
0.0
 10
33.46334071374163
 20
-88.12503791789156
 30
0.0
 10
33.65041561146561
 20
-88.14971702144695
 30
0.0
 10
33.82901070675019
 20
-88.19241241141405
 30
0.0
 10
34.00058084555194
 20
-88.2492753938947
 30
0.0
 10
34.16307382212116
 20
-88.32512977927553
 30
0.0
 10
34.31771271461175
 20
-88.41681492761509
 30
0.0
 10
34.4641295884373
 20
-88.52529138637327
 30
0.0
 10
34.60035096996573
 20
-88.64972061322493
 30
0.0
 10
34.72500792024892
 20
-88.78510406712648
 30
0.0
 10
34.8348338065182
 20
-88.92958197719939
 30
0.0
 10
34.92687610024993
 20
-89.0822807795061
 30
0.0
 10
35.00246188741515
 20
-89.2427416101478
 30
0.0
 10
35.06176049710899
 20
-89.41060157812241
 30
0.0
 10
35.10267954079961
 20
-89.58675558086382
 30
0.0
 10
35.12881769095252
 20
-89.77006227093585
 30
0.0
 10
35.13187346835999
 20
-89.8950891356596
 30
0.0
 10
35.13342362805702
 20
-89.95851378376034
 30
0.0
  0
SPLINE
  5
126
330
1F
100
AcDbEntity
  8
0
  6
Continuous
 62
     7
370
    25
100
AcDbSpline
210
0.0
220
0.0
230
1.0
 70
     8
 71
     3
 72
    23
 73
    19
 74
     0
 42
0.000000001
 43
0.00000001
 40
0.0
 40
0.0
 40
0.0
 40
0.0
 40
0.0685475367089061
 40
0.1356829456230469
 40
0.2012149895263308
 40
0.2656822347546978
 40
0.3292668348172605
 40
0.3923954278443299
 40
0.4550697616521465
 40
0.5171268500645047
 40
0.5787900352866537
 40
0.639739863343538
 40
0.7001915036663087
 40
0.7598062425966747
 40
0.8196283192750033
 40
0.8793547910462733
 40
0.9395116077646626
 40
1.0
 40
1.0
 40
1.0
 40
1.0
 10
47.62594308011546
 20
-130.883140203018
 30
0.0
 10
47.66615755206188
 20
-130.8836223412089
 30
0.0
 10
47.74575804935671
 20
-130.8845766852025
 30
0.0
 10
47.86351070176904
 20
-130.8938828273171
 30
0.0
 10
47.97815302871228
 20
-130.9093964335442
 30
0.0
 10
48.08976401074663
 20
-130.9305125033573
 30
0.0
 10
48.19888662694954
 20
-130.9567198248269
 30
0.0
 10
48.30468686782813
 20
-130.9908601231435
 30
0.0
 10
48.40778555469268
 20
-131.0298966544591
 30
0.0
 10
48.50753246286913
 20
-131.074855120397
 30
0.0
 10
48.60344901300944
 20
-131.1253218618038
 30
0.0
 10
48.69550533152074
 20
-131.1807374853501
 30
0.0
 10
48.7829701902284
 20
-131.2410332908546
 30
0.0
 10
48.86645903866493
 20
-131.3056964662642
 30
0.0
 10
48.944575249741
 20
-131.3760950255596
 30
0.0
 10
49.0195367282762
 20
-131.4502926215333
 30
0.0
 10
49.0887978064378
 20
-131.5304264456906
 30
0.0
 10
49.13155100143192
 20
-131.5868313795996
 30
0.0
 10
49.15298634934624
 20
-131.6151113568642
 30
0.0
  0
SPLINE
  5
127
330
1F
100
AcDbEntity
  8
0
  6
Continuous
 62
     7
370
    25
100
AcDbSpline
210
0.0
220
0.0
230
1.0
 70
     8
 71
     3
 72
    19
 73
    15
 74
     0
 42
0.000000001
 43
0.00000001
 40
0.0
 40
0.0
 40
0.0
 40
0.0
 40
0.0828906475568694
 40
0.1653025405594728
 40
0.247761876114589
 40
0.3315277110597996
 40
0.4152798127751529
 40
0.4963662304840475
 40
0.5771513480211423
 40
0.6577825401388806
 40
0.7393216419943396
 40
0.8237930816663134
 40
0.9094759533791151
 40
1.0
 40
1.0
 40
1.0
 40
1.0
 10
39.23358388446728
 20
-91.44068525811932
 30
0.0
 10
39.26213762485991
 20
-91.4396114078377
 30
0.0
 10
39.31908018675917
 20
-91.43746990955091
 30
0.0
 10
39.40368661744799
 20
-91.42420847852136
 30
0.0
 10
39.48608672609829
 20
-91.4003079128407
 30
0.0
 10
39.56668740600561
 20
-91.36946815442205
 30
0.0
 10
39.64223839042521
 20
-91.3287205633269
 30
0.0
 10
39.71278183243668
 20
-91.2816497238546
 30
0.0
 10
39.77574576666511
 20
-91.22643884783679
 30
0.0
 10
39.83320376449721
 20
-91.16533850330603
 30
0.0
 10
39.88323870034981
 20
-91.09639870333882
 30
0.0
 10
39.92660984195157
 20
-91.02112056528996
 30
0.0
 10
39.96213577159705
 20
-90.93837121840733
 30
0.0
 10
39.97967929643652
 20
-90.8802167961574
 30
0.0
 10
39.98869205754421
 20
-90.85034070683727
 30
0.0
  0
SPLINE
  5
128
330
1F
100
AcDbEntity
  8
0
  6
Continuous
 62
     7
370
    25
100
AcDbSpline
210
0.0
220
0.0
230
1.0
 70
     8
 71
     3
 72
    31
 73
    27
 74
     0
 42
0.000000001
 43
0.00000001
 40
0.0
 40
0.0
 40
0.0
 40
0.0
 40
0.0548580354451507
 40
0.1070587915426354
 40
0.1569783545765296
 40
0.2039922771829824
 40
0.248491535786854
 40
0.2904833137405294
 40
0.3304890042981842
 40
0.3678859257629599
 40
0.4038581313538715
 40
0.4400093433074144
 40
0.4762950107796774
 40
0.512792294573346
 40
0.5504848246303725
 40
0.5883811157748395
 40
0.6276453271698519
 40
0.6679794644543835
 40
0.7084327575000816
 40
0.7486023022886352
 40
0.7890877771957805
 40
0.829461204631705
 40
0.8703710453051781
 40
0.9122142271494422
 40
0.9555465749316865
 40
1.0
 40
1.0
 40
1.0
 40
1.0
 10
38.8324735288334
 20
-133.0867660043
 30
0.0
 10
38.83221940844891
 20
-133.1248643832488
 30
0.0
 10
38.83172347706804
 20
-133.1992156861508
 30
0.0
 10
38.82742290057086
 20
-133.3081670451747
 30
0.0
 10
38.82056590071874
 20
-133.4115200264818
 30
0.0
 10
38.81087781274459
 20
-133.5092885230092
 30
0.0
 10
38.79804080957457
 20
-133.6011226822528
 30
0.0
 10
38.78376558906989
 20
-133.6878274504282
 30
0.0
 10
38.76558605601286
 20
-133.7687804430752
 30
0.0
 10
38.74435265482969
 20
-133.8446128607208
 30
0.0
 10
38.72007910679284
 20
-133.9167983741346
 30
0.0
 10
38.68863795845198
 20
-133.9853069887986
 30
0.0
 10
38.65321345851912
 20
-134.0522213884286
 30
0.0
 10
38.61119880560736
 20
-134.1165294973106
 30
0.0
 10
38.56398742296461
 20
-134.1785160504482
 30
0.0
 10
38.51053574221731
 20
-134.2378051254578
 30
0.0
 10
38.45261158132338
 20
-134.2953441717325
 30
0.0
 10
38.38925202172577
 20
-134.3496572378853
 30
0.0
 10
38.32150149646903
 20
-134.3994659147728
 30
0.0
 10
38.24956153881089
 20
-134.4432636858567
 30
0.0
 10
38.17398476905834
 20
-134.4802873033377
 30
0.0
 10
38.09496764293407
 20
-134.5107632277388
 30
0.0
 10
38.01247644004474
 20
-134.5336778269366
 30
0.0
 10
37.92650908032065
 20
-134.5507529827175
 30
0.0
 10
37.83686988700607
 20
-134.5604552802571
 30
0.0
 10
37.77590523080803
 20
-134.5618972103169
 30
0.0
 10
37.74503362498725
 20
-134.5626273825052
 30
0.0
  0
SPLINE
  5
129
330
1F
100
AcDbEntity
  8
0
  6
Continuous
 62
     7
370
    25
100
AcDbSpline
210
0.0
220
0.0
230
1.0
 70
     8
 71
     3
 72
    15
 73
    11
 74
     0
 42
0.000000001
 43
0.00000001
 40
0.0
 40
0.0
 40
0.0
 40
0.0
 40
0.1243285095938426
 40
0.2471560163611893
 40
0.3687797492913343
 40
0.4907338624016491
 40
0.6136137718478513
 40
0.7389575757222088
 40
0.8673105751912599
 40
1.0
 40
1.0
 40
1.0
 40
1.0
 10
46.18654003524367
 20
-133.9505480555821
 30
0.0
 10
46.15110439174386
 20
-133.9070068666649
 30
0.0
 10
46.08066091491609
 20
-133.8204501562568
 30
0.0
 10
45.99053523136497
 20
-133.6801641749985
 30
0.0
 10
45.91338767615566
 20
-133.5336959661226
 30
0.0
 10
45.8510117553775
 20
-133.3802760373443
 30
0.0
 10
45.80224902222291
 20
-133.2202486501039
 30
0.0
 10
45.76846782714312
 20
-133.0535331356931
 30
0.0
 10
45.74651622266533
 20
-132.8802851934909
 30
0.0
 10
45.74400593388415
 20
-132.7624484048311
 30
0.0
 10
45.74272993908981
 20
-132.7025512607103
 30
0.0
  0
SPLINE
  5
12D
330
1F
100
AcDbEntity
  8
0
  6
Continuous
 62
     7
370
    25
100
AcDbSpline
210
0.0
220
0.0
230
1.0
 70
     8
 71
     3
 72
    23
 73
    19
 74
     0
 42
0.000000001
 43
0.00000001
 40
0.0
 40
0.0
 40
0.0
 40
0.0
 40
0.0639079077057128
 40
0.1257266250228194
 40
0.1861562693658117
 40
0.246104082683286
 40
0.3061123364554316
 40
0.3668627559233636
 40
0.4290835859354369
 40
0.4932513481089734
 40
0.5578147107893274
 40
0.6207925512431053
 40
0.6827460661082979
 40
0.7445343957783831
 40
0.8065935673314355
 40
0.8693302975165242
 40
0.9337426282431793
 40
1.0
 40
1.0
 40
1.0
 40
1.0
 10
32.50555045191033
 20
-132.736906228659
 30
0.0
 10
32.5068640084869
 20
-132.787459139966
 30
0.0
 10
32.50944818063518
 20
-132.8869123555676
 30
0.0
 10
32.53087032407861
 20
-133.0329268408996
 30
0.0
 10
32.56678723637269
 20
-133.1727133310693
 30
0.0
 10
32.61703648807036
 20
-133.3064718074919
 30
0.0
 10
32.68011753112686
 20
-133.434973229572
 30
0.0
 10
32.75856357827441
 20
-133.5569587123838
 30
0.0
 10
32.85203995607406
 20
-133.6719636303003
 30
0.0
 10
32.95701041330034
 20
-133.7807779096279
 30
0.0
 10
33.07247948283955
 20
-133.8793592894944
 30
0.0
 10
33.19488789593346
 20
-133.9661216677347
 30
0.0
 10
33.32319055829038
 20
-134.0397318576954
 30
0.0
 10
33.45779036196701
 20
-134.099143869706
 30
0.0
 10
33.59768359127715
 20
-134.1468537256366
 30
0.0
 10
33.7439745600456
 20
-134.1791542514243
 30
0.0
 10
33.89570695928213
 20
-134.2005639080953
 30
0.0
 10
33.99909836793317
 20
-134.2026136709146
 30
0.0
 10
34.05152400960264
 20
-134.2036530235308
 30
0.0
  0
SPLINE
  5
12E
330
1F
100
AcDbEntity
  8
0
  6
Continuous
 62
     7
370
    25
100
AcDbSpline
210
0.0
220
0.0
230
1.0
 70
     8
 71
     3
 72
    15
 73
    11
 74
     0
 42
0.000000001
 43
0.00000001
 40
0.0
 40
0.0
 40
0.0
 40
0.0
 40
0.1325868341022132
 40
0.2622473938845612
 40
0.3884718013410994
 40
0.5137507825547925
 40
0.6357587077740103
 40
0.7577484178707864
 40
0.8786953314398586
 40
1.0
 40
1.0
 40
1.0
 40
1.0
 10
34.05152400960264
 20
-134.2036530235308
 30
0.0
 10
34.08754241357155
 20
-134.203260652791
 30
0.0
 10
34.15878427281562
 20
-134.2024845711789
 30
0.0
 10
34.26383827801364
 20
-134.1919039526035
 30
0.0
 10
34.36632150350146
 20
-134.1770115140449
 30
0.0
 10
34.46528492878322
 20
-134.1543615737026
 30
0.0
 10
34.56158672026351
 20
-134.1262027160313
 30
0.0
 10
34.65465366042796
 20
-134.0919500078459
 30
0.0
 10
34.7449794332257
 20
-134.0513431342663
 30
0.0
 10
34.80241250252591
 20
-134.0192183187681
 30
0.0
 10
34.83117144550008
 20
-134.0031321901975
 30
0.0
  0
SPLINE
  5
12F
330
1F
100
AcDbEntity
  8
0
  6
Continuous
 62
     7
370
    25
100
AcDbSpline
210
0.0
220
0.0
230
1.0
 70
     8
 71
     3
 72
    31
 73
    27
 74
     0
 42
0.000000001
 43
0.00000001
 40
0.0
 40
0.0
 40
0.0
 40
0.0
 40
0.0422168938016571
 40
0.0843253469900109
 40
0.1258559105936466
 40
0.1673077630956356
 40
0.2088592911446261
 40
0.2506876061395485
 40
0.292847732501337
 40
0.3357450514592584
 40
0.3783592435927357
 40
0.4201865175514293
 40
0.4615742413042138
 40
0.5025272668889531
 40
0.543223236915473
 40
0.5842591139918667
 40
0.6252227709273672
 40
0.6664840488718762
 40
0.7078180804198885
 40
0.7488762351019701
 40
0.7898749559354351
 40
0.8308609297313343
 40
0.8723789095864941
 40
0.9142009779753647
 40
0.9566031247605737
 40
1.0
 40
1.0
 40
1.0
 40
1.0
 10
34.02908811216675
 20
-131.2421145619924
 30
0.0
 10
33.99564035051816
 20
-131.2425276123415
 30
0.0
 10
33.92883074296369
 20
-131.243352652056
 30
0.0
 10
33.82961059703077
 20
-131.2539051194187
 30
0.0
 10
33.73166265228173
 20
-131.2690028778407
 30
0.0
 10
33.6354177028575
 20
-131.2909060455846
 30
0.0
 10
33.54053491120158
 20
-131.3189261380902
 30
0.0
 10
33.44730878599214
 20
-131.353623093377
 30
0.0
 10
33.35492858517689
 20
-131.3933374101904
 30
0.0
 10
33.26531128312956
 20
-131.4403316292363
 30
0.0
 10
33.17861367840787
 20
-131.4919212514657
 30
0.0
 10
33.09615877038999
 20
-131.5480253463024
 30
0.0
 10
33.01907654482544
 20
-131.609203666488
 30
0.0
 10
32.94663580299216
 20
-131.6744712456464
 30
0.0
 10
32.87901747780698
 20
-131.7443316729162
 30
0.0
 10
32.81590230872898
 20
-131.8183202401269
 30
0.0
 10
32.75839870858626
 20
-131.8972954400642
 30
0.0
 10
32.70571459402763
 20
-131.9798442816796
 30
0.0
 10
32.65914987421333
 20
-132.0660564541425
 30
0.0
 10
32.61715440550513
 20
-132.1543764839897
 30
0.0
 10
32.5830447564132
 20
-132.2457780875749
 30
0.0
 10
32.55504145805869
 20
-132.3395296890778
 30
0.0
 10
32.53215852439284
 20
-132.4353982149323
 30
0.0
 10
32.51740958555201
 20
-132.533940178415
 30
0.0
 10
32.50669911927972
 20
-132.6345404198825
 30
0.0
 10
32.50593628904276
 20
-132.7025215746078
 30
0.0
 10
32.50555045191033
 20
-132.736906228659
 30
0.0
  0
SPLINE
  5
130
330
1F
100
AcDbEntity
  8
0
  6
Continuous
 62
     7
370
    25
100
AcDbSpline
210
0.0
220
0.0
230
1.0
 70
     8
 71
     3
 72
    31
 73
    27
 74
     0
 42
0.000000001
 43
0.00000001
 40
0.0
 40
0.0
 40
0.0
 40
0.0
 40
0.0430399286694067
 40
0.0850823542599318
 40
0.1265459763824827
 40
0.167644912013534
 40
0.2082860955153094
 40
0.2486763011610174
 40
0.2892947325755545
 40
0.3300743209766431
 40
0.3710606404109131
 40
0.4115325030015812
 40
0.4523412262352998
 40
0.4930462642117311
 40
0.5342457570078347
 40
0.5761444940038739
 40
0.6184447453397027
 40
0.6618015866715637
 40
0.7051959773844235
 40
0.7479763643669168
 40
0.7903109431511064
 40
0.8323732575991981
 40
0.8740507803589337
 40
0.9158074427356541
 40
0.957849868326179
 40
1.0
 40
1.0
 40
1.0
 40
1.0
 10
35.55683250319239
 20
-132.7179759401975
 30
0.0
 10
35.55644139867265
 20
-132.6840595074942
 30
0.0
 10
35.55566825395957
 20
-132.6170126969695
 30
0.0
 10
35.54503752956855
 20
-132.5177951801918
 30
0.0
 10
35.52999821637538
 20
-132.4207690106636
 30
0.0
 10
35.50822590083072
 20
-132.3261075485785
 30
0.0
 10
35.48018850785999
 20
-132.2340025819155
 30
0.0
 10
35.44555986458442
 20
-132.1445791446425
 30
0.0
 10
35.40501465557944
 20
-132.0575487492681
 30
0.0
 10
35.3577478010687
 20
-131.9734520253084
 30
0.0
 10
35.30564009346352
 20
-131.892410860662
 30
0.0
 10
35.2476378219861
 20
-131.815416350311
 30
0.0
 10
35.1845574022046
 20
-131.7428654998867
 30
0.0
 10
35.11708795852737
 20
-131.67356270509
 30
0.0
 10
35.04392868092009
 20
-131.6089365519295
 30
0.0
 10
34.96534194594673
 20
-131.5490147432221
 30
0.0
 10
34.8822961202432
 20
-131.4923471877199
 30
0.0
 10
34.79438025803306
 20
-131.4411974037653
 30
0.0
 10
34.70378298851759
 20
-131.3941731593644
 30
0.0
 10
34.61103443097073
 20
-131.3534530737197
 30
0.0
 10
34.51691336621793
 20
-131.3189646201517
 30
0.0
 10
34.42156554573565
 20
-131.2909989132768
 30
0.0
 10
34.32511435044639
 20
-131.2689863405087
 30
0.0
 10
34.22739068170649
 20
-131.253963855651
 30
0.0
 10
34.1286472531667
 20
-131.2433440782596
 30
0.0
 10
34.06230278361112
 20
-131.2425247501322
 30
0.0
 10
34.02908811216674
 20
-131.2421145619924
 30
0.0
  0
SPLINE
  5
131
330
1F
100
AcDbEntity
  8
0
  6
Continuous
 62
     7
370
    25
100
AcDbSpline
210
0.0
220
0.0
230
1.0
 70
     8
 71
     3
 72
    15
 73
    11
 74
     0
 42
0.000000001
 43
0.00000001
 40
0.0
 40
0.0
 40
0.0
 40
0.0
 40
0.131526263576927
 40
0.2587179924131692
 40
0.3827297268112453
 40
0.5050597936177744
 40
0.6263067267417217
 40
0.7481632880963859
 40
0.8726877911473243
 40
1.0
 40
1.0
 40
1.0
 40
1.0
 10
35.07726519550008
 20
-133.8243461325052
 30
0.0
 10
35.11545387631845
 20
-133.7855631594546
 30
0.0
 10
35.19057270479833
 20
-133.7092753318026
 30
0.0
 10
35.28803790768926
 20
-133.5841673310584
 30
0.0
 10
35.37186775984942
 20
-133.4541200987325
 30
0.0
 10
35.43898268261648
 20
-133.3174036987159
 30
0.0
 10
35.49238175432568
 20
-133.1757309860257
 30
0.0
 10
35.52927464766481
 20
-133.0279794012811
 30
0.0
 10
35.55237472908914
 20
-132.8748215790501
 30
0.0
 10
35.55533565317757
 20
-132.7706422241774
 30
0.0
 10
35.55683250319239
 20
-132.7179759401975
 30
0.0
  0
SPLINE
  5
135
330
1F
100
AcDbEntity
  8
0
  6
Continuous
 62
     7
370
    25
100
AcDbSpline
210
0.0
220
0.0
230
1.0
 70
     8
 71
     3
 72
    23
 73
    19
 74
     0
 42
0.000000001
 43
0.00000001
 40
0.0
 40
0.0
 40
0.0
 40
0.0
 40
0.0688142958243116
 40
0.1363648245522205
 40
0.2040193535112358
 40
0.2730637386246036
 40
0.3429133195614877
 40
0.4109654441389486
 40
0.4791687665134437
 40
0.549308006509777
 40
0.5876515764176508
 40
0.6306466687627896
 40
0.6788787856966476
 40
0.7319342992295801
 40
0.7911114229480465
 40
0.8552831895130776
 40
0.9250859386773841
 40
1.0
 40
1.0
 40
1.0
 40
1.0
 10
28.69144788780777
 20
-131.9081802671206
 30
0.0
 10
28.69024576671927
 20
-131.8800336933909
 30
0.0
 10
28.687863601366
 20
-131.8242574547123
 30
0.0
 10
28.66841483283929
 20
-131.7426015444247
 30
0.0
 10
28.63552545148282
 20
-131.6655345942939
 30
0.0
 10
28.59120321355806
 20
-131.5933701093022
 30
0.0
 10
28.53720405859555
 20
-131.5278643734478
 30
0.0
 10
28.4738862459009
 20
-131.4718172203903
 30
0.0
 10
28.40298105075085
 20
-131.4255677557122
 30
0.0
 10
28.33670985239894
 20
-131.3960133752003
 30
0.0
 10
28.27747563990657
 20
-131.3778935219544
 30
0.0
 10
28.22604597986565
 20
-131.3651423581434
 30
0.0
 10
28.16793450214627
 20
-131.3548978892134
 30
0.0
 10
28.10285904353433
 20
-131.3466898283382
 30
0.0
 10
28.03109741274945
 20
-131.3396348840894
 30
0.0
 10
27.95228676165794
 20
-131.3348831054313
 30
0.0
 10
27.86694998139666
 20
-131.3320692413253
 30
0.0
 10
27.80780305020523
 20
-131.3319301524447
 30
0.0
 10
27.77718506729495
 20
-131.331858151736
 30
0.0
  0
SPLINE
  5
136
330
1F
100
AcDbEntity
  8
0
  6
Continuous
 62
     7
370
    25
100
AcDbSpline
210
0.0
220
0.0
230
1.0
 70
     8
 71
     3
 72
    23
 73
    19
 74
     0
 42
0.000000001
 43
0.00000001
 40
0.0
 40
0.0
 40
0.0
 40
0.0
 40
0.0716681496796054
 40
0.1389132862742037
 40
0.2011845700265585
 40
0.2591244282905433
 40
0.3122550414262367
 40
0.3606815096231076
 40
0.4050861433286418
 40
0.4451016585907095
 40
0.5187777804882534
 40
0.5894615790331948
 40
0.6584622419857206
 40
0.7272832183683581
 40
0.7963224869047126
 40
0.8631748932078778
 40
0.930949380987855
 40
1.0
 40
1.0
 40
1.0
 40
1.0
 10
27.76176038780777
 20
-132.5034326709667
 30
0.0
 10
27.79168042672962
 20
-132.5034459076209
 30
0.0
 10
27.84967398384903
 20
-132.5034715640267
 30
0.0
 10
27.93357464866041
 20
-132.4994777877831
 30
0.0
 10
28.01169476035201
 20
-132.4949344695402
 30
0.0
 10
28.08373551251443
 20
-132.4879851240033
 30
0.0
 10
28.1497290878404
 20
-132.4790290522776
 30
0.0
 10
28.20964250106199
 20
-132.467826068039
 30
0.0
 10
28.26357355295874
 20
-132.4547740053921
 30
0.0
 10
28.32647209138142
 20
-132.4345723795821
 30
0.0
 10
28.39670862273837
 20
-132.4025663613169
 30
0.0
 10
28.47304008261542
 20
-132.3560008626223
 30
0.0
 10
28.53804242036594
 20
-132.2974317434548
 30
0.0
 10
28.59296028267091
 20
-132.2304582874204
 30
0.0
 10
28.63708971414622
 20
-132.1568220385828
 30
0.0
 10
28.66820176848076
 20
-132.0774056693666
 30
0.0
 10
28.68794421077285
 20
-131.994214071359
 30
0.0
 10
28.69027275622227
 20
-131.9370359635142
 30
0.0
 10
28.69144788780777
 20
-131.9081802671206
 30
0.0
  0
SPLINE
  5
137
330
1F
100
AcDbEntity
  8
0
  6
Continuous
 62
     7
370
    25
100
AcDbSpline
210
0.0
220
0.0
230
1.0
 70
     8
 71
     3
 72
    23
 73
    19
 74
     0
 42
0.000000001
 43
0.00000001
 40
0.0
 40
0.0
 40
0.0
 40
0.0
 40
0.0645039992970596
 40
0.1268993215900431
 40
0.1877465401000146
 40
0.2481497329298296
 40
0.3085860647627398
 40
0.3695830050869948
 40
0.4318269653810525
 40
0.4961797225241576
 40
0.5606678546118791
 40
0.6235044551176637
 40
0.6852604113304294
 40
0.7465368217511684
 40
0.8083273517367091
 40
0.8704861878877684
 40
0.9343168833592452
 40
1.0
 40
1.0
 40
1.0
 40
1.0
 10
31.76803901267241
 20
-89.9739384632475
 30
0.0
 10
31.76931387462994
 20
-90.02450068405054
 30
0.0
 10
31.77182192249203
 20
-90.12397221431083
 30
0.0
 10
31.79377949260736
 20
-90.26974035819579
 30
0.0
 10
31.82760146706019
 20
-90.40982864453979
 30
0.0
 10
31.8774588334969
 20
-90.54347055383329
 30
0.0
 10
31.93980944815454
 20
-90.67181483666485
 30
0.0
 10
32.01683633842921
 20
-90.79372294135229
 30
0.0
 10
32.10809542399825
 20
-90.90922781571601
 30
0.0
 10
32.21175895060004
 20
-91.0175230846857
 30
0.0
 10
32.32508165719963
 20
-91.11636888892521
 30
0.0
 10
32.44541438712861
 20
-91.2031322975703
 30
0.0
 10
32.5714679946159
 20
-91.2765425473938
 30
0.0
 10
32.70357119732839
 20
-91.33634761977717
 30
0.0
 10
32.84101873635773
 20
-91.3837373575762
 30
0.0
 10
32.98469628739517
 20
-91.41621598870373
 30
0.0
 10
33.13364674697878
 20
-91.43759144407161
 30
0.0
 10
33.23517740213887
 20
-91.43964419999274
 30
0.0
 10
33.28666882036472
 20
-91.44068525811932
 30
0.0
  0
SPLINE
  5
138
330
1F
100
AcDbEntity
  8
0
  6
Continuous
 62
     7
370
    25
100
AcDbSpline
210
0.0
220
0.0
230
1.0
 70
     8
 71
     3
 72
    31
 73
    27
 74
     0
 42
0.000000001
 43
0.00000001
 40
0.0
 40
0.0
 40
0.0
 40
0.0
 40
0.0436332182657566
 40
0.0865377766972014
 40
0.129177336089891
 40
0.1714363236638276
 40
0.2134158945709055
 40
0.2552659545538482
 40
0.297369481156622
 40
0.3399407478985539
 40
0.3823474587518105
 40
0.4239529468152698
 40
0.4648711632610183
 40
0.505572294118272
 40
0.5460025771083177
 40
0.5865679748069126
 40
0.6270647991481679
 40
0.6682706840331742
 40
0.7095492248503295
 40
0.750428153513186
 40
0.791096194448591
 40
0.8320271447794316
 40
0.8731359553359641
 40
0.9146107643654514
 40
0.9569559864804388
 40
1.0
 40
1.0
 40
1.0
 40
1.0
 10
33.28666882036472
 20
-91.44068525811932
 30
0.0
 10
33.32127832197693
 20
-91.44020975375314
 30
0.0
 10
33.38991935835146
 20
-91.4392666857812
 30
0.0
 10
33.49201488070425
 20
-91.42976800894435
 30
0.0
 10
33.59227109243521
 20
-91.41453613952622
 30
0.0
 10
33.69054737231548
 20
-91.39260548391734
 30
0.0
 10
33.78673218370194
 20
-91.36515827748927
 30
0.0
 10
33.88122698681691
 20
-91.3325505495302
 30
0.0
 10
33.97302527713643
 20
-91.29186934584702
 30
0.0
 10
34.06328511493761
 20
-91.24692139426804
 30
0.0
 10
34.14968135662876
 20
-91.1956812367346
 30
0.0
 10
34.23215688891963
 20
-91.14064308707536
 30
0.0
 10
34.30863286877449
 20
-91.07967446636552
 30
0.0
 10
34.38102194019544
 20
-91.01535665382153
 30
0.0
 10
34.44864962918799
 20
-90.94639280596428
 30
0.0
 10
34.51105861341318
 20
-90.87287258411745
 30
0.0
 10
34.56803874556331
 20
-90.79433192688424
 30
0.0
 10
34.62050439217234
 20
-90.71204652114399
 30
0.0
 10
34.66730765492812
 20
-90.62605026845874
 30
0.0
 10
34.70808675397723
 20
-90.5375205905104
 30
0.0
 10
34.74268286980996
 20
-90.4466754811437
 30
0.0
 10
34.77061137463922
 20
-90.35338390966231
 30
0.0
 10
34.79249683632238
 20
-90.25782306089148
 30
0.0
 10
34.80757675623035
 20
-90.15986498273013
 30
0.0
 10
34.81812519487735
 20
-90.05970564024001
 30
0.0
 10
34.81892027206403
 20
-89.99196178427832
 30
0.0
 10
34.81932106395446
 20
-89.95781266196546
 30
0.0
  0
SPLINE
  5
139
330
1F
100
AcDbEntity
  8
0
  6
Continuous
 62
     7
370
    25
100
AcDbSpline
210
0.0
220
0.0
230
1.0
 70
     8
 71
     3
 72
    31
 73
    27
 74
     0
 42
0.000000001
 43
0.00000001
 40
0.0
 40
0.0
 40
0.0
 40
0.0
 40
0.0420233285259257
 40
0.083644911168713
 40
0.1249837954173959
 40
0.1662474611728956
 40
0.2077015560969891
 40
0.2496310707996489
 40
0.2917417703321307
 40
0.3347428753531986
 40
0.3774601685508657
 40
0.4195563188419414
 40
0.4610441763330357
 40
0.502096283944397
 40
0.5428907140756022
 40
0.58380081862651
 40
0.6248635833101941
 40
0.6662246890691719
 40
0.7073991864779384
 40
0.7485566775366961
 40
0.7896545909521837
 40
0.8307397264898355
 40
0.8720701422586076
 40
0.9139933952421347
 40
0.9564981300675894
 40
1.0
 40
1.0
 40
1.0
 40
1.0
 10
33.28666882036472
 20
-88.47914679658085
 30
0.0
 10
33.25345418681836
 20
-88.4795516868341
 30
0.0
 10
33.1873424538848
 20
-88.48035759656216
 30
0.0
 10
33.08905791763804
 20
-88.49097331213432
 30
0.0
 10
32.99206598380724
 20
-88.5061032011057
 30
0.0
 10
32.89634662163562
 20
-88.52768472187023
 30
0.0
 10
32.80230033225781
 20
-88.55708877464386
 30
0.0
 10
32.70905049108472
 20
-88.59092968283322
 30
0.0
 10
32.61744743721598
 20
-88.63215077342868
 30
0.0
 10
32.52779357935962
 20
-88.67872347779831
 30
0.0
 10
32.44087850421362
 20
-88.73027239860205
 30
0.0
 10
32.35886580275888
 20
-88.7872441656372
 30
0.0
 10
32.28154315879511
 20
-88.84830271988446
 30
0.0
 10
32.2090998921424
 20
-88.9135905572618
 30
0.0
 10
32.14174871996789
 20
-88.98344015905296
 30
0.0
 10
32.07816401851513
 20
-89.05679259517066
 30
0.0
 10
32.02089443686906
 20
-89.13574448621434
 30
0.0
 10
31.96840886004215
 20
-89.21815489308123
 30
0.0
 10
31.92144101976479
 20
-89.303916474287
 30
0.0
 10
31.8796756650423
 20
-89.39212633655494
 30
0.0
 10
31.8455116562368
 20
-89.48350402333332
 30
0.0
 10
31.81764927995262
 20
-89.57705818090955
 30
0.0
 10
31.79454946910586
 20
-89.67264064057304
 30
0.0
 10
31.77991554501154
 20
-89.77097648941226
 30
0.0
 10
31.76918318556288
 20
-89.87157160144187
 30
0.0
 10
31.76842334011029
 20
-89.93955345548407
 30
0.0
 10
31.76803901267241
 20
-89.9739384632475
 30
0.0
  0
SPLINE
  5
13A
330
1F
100
AcDbEntity
  8
0
  6
Continuous
 62
     7
370
    25
100
AcDbSpline
210
0.0
220
0.0
230
1.0
 70
     8
 71
     3
 72
    31
 73
    27
 74
     0
 42
0.000000001
 43
0.00000001
 40
0.0
 40
0.0
 40
0.0
 40
0.0
 40
0.0429150821010486
 40
0.085129970584697
 40
0.1264733185549961
 40
0.1674530378853858
 40
0.2079763328949851
 40
0.2482493780637583
 40
0.2887499869834422
 40
0.3296698569108729
 40
0.3705372867119753
 40
0.4111285639171142
 40
0.4518189126736367
 40
0.4924058769342652
 40
0.5334858617420225
 40
0.5752630624415491
 40
0.6174406128021919
 40
0.6606716882923659
 40
0.7039402042434902
 40
0.7468675221598718
 40
0.7890793003947231
 40
0.8311040424574042
 40
0.8732379898547741
 40
0.9151657696593324
 40
0.9573806581429836
 40
1.0
 40
1.0
 40
1.0
 40
1.0
 10
34.81932106395446
 20
-89.95781266196546
 30
0.0
 10
34.81891995097629
 20
-89.92389715769701
 30
0.0
 10
34.81812426949648
 20
-89.85661950752404
 30
0.0
 10
34.80758179487213
 20
-89.75715868916274
 30
0.0
 10
34.79248090450228
 20
-89.6599054776889
 30
0.0
 10
34.77071819646275
 20
-89.56524167469284
 30
0.0
 10
34.74266804272716
 20
-89.47314314962613
 30
0.0
 10
34.70808071233829
 20
-89.38369640192488
 30
0.0
 10
34.66729541286448
 20
-89.29656820684174
 30
0.0
 10
34.6204871884828
 20
-89.21197390984186
 30
0.0
 10
34.5678713650064
 20
-89.13079917185442
 30
0.0
 10
34.51037712169548
 20
-89.05319675932894
 30
0.0
 10
34.44701177355437
 20
-88.98062401801839
 30
0.0
 10
34.37958574868057
 20
-88.91128932397497
 30
0.0
 10
34.30641486335148
 20
-88.8466714343672
 30
0.0
 10
34.22783056927233
 20
-88.7867489137096
 30
0.0
 10
34.14478689151088
 20
-88.73007563942072
 30
0.0
 10
34.05685965607788
 20
-88.67895007758007
 30
0.0
 10
33.96611570234602
 20
-88.63173584486685
 30
0.0
 10
33.87300174437345
 20
-88.59128484172226
 30
0.0
 10
33.77857264475716
 20
-88.55691272233493
 30
0.0
 10
33.68306853242503
 20
-88.52759575728429
 30
0.0
 10
33.58568555408966
 20
-88.50618772714023
 30
0.0
 10
33.48708172524275
 20
-88.4909596772802
 30
0.0
 10
33.38739346666716
 20
-88.48036129138677
 30
0.0
 10
33.32035024694358
 20
-88.47955291285068
 30
0.0
 10
33.28666882036472
 20
-88.47914679658085
 30
0.0
  0
LINE
  5
13B
330
1F
100
AcDbEntity
  8
0
  6
Continuous
 62
     7
370
    25
100
AcDbLine
 10
47.6526543973
 20
-91.3509416684
 30
0.0
 11
47.6526543973
 21
-91.7099160274
 31
0.0
  0
LINE
  5
13C
330
1F
100
AcDbEntity
  8
0
  6
Continuous
 62
     7
370
    25
100
AcDbLine
 10
45.992397987
 20
-91.3509416684
 30
0.0
 11
47.6526543973
 21
-91.3509416684
 31
0.0
  0
LINE
  5
13D
330
1F
100
AcDbEntity
  8
0
  6
Continuous
 62
     7
370
    25
100
AcDbLine
 10
45.992397987
 20
-90.0047878222
 30
0.0
 11
45.992397987
 21
-91.3509416684
 31
0.0
  0
LINE
  5
13E
330
1F
100
AcDbEntity
  8
0
  6
Continuous
 62
     7
370
    25
100
AcDbLine
 10
47.6526543973
 20
-89.6458134632
 30
0.0
 11
47.6526543973
 21
-90.0047878222
 31
0.0
  0
LINE
  5
13F
330
1F
100
AcDbEntity
  8
0
  6
Continuous
 62
     7
370
    25
100
AcDbLine
 10
45.992397987
 20
-89.6458134632
 30
0.0
 11
47.6526543973
 21
-89.6458134632
 31
0.0
  0
LINE
  5
140
330
1F
100
AcDbEntity
  8
0
  6
Continuous
 62
     7
370
    25
100
AcDbLine
 10
45.992397987
 20
-88.5688903863
 30
0.0
 11
45.992397987
 21
-89.6458134632
 31
0.0
  0
LINE
  5
141
330
1F
100
AcDbEntity
  8
0
  6
Continuous
 62
     7
370
    25
100
AcDbLine
 10
47.6526543973
 20
-88.5688903863
 30
0.0
 11
45.992397987
 21
-88.5688903863
 31
0.0
  0
LINE
  5
142
330
1F
100
AcDbEntity
  8
0
  6
Continuous
 62
     7
370
    25
100
AcDbLine
 10
47.6526543973
 20
-88.2099160274
 30
0.0
 11
47.6526543973
 21
-88.5688903863
 31
0.0
  0
LINE
  5
143
330
1F
100
AcDbEntity
  8
0
  6
Continuous
 62
     7
370
    25
100
AcDbLine
 10
45.6782954229
 20
-88.2099160274
 30
0.0
 11
47.6526543973
 21
-88.2099160274
 31
0.0
  0
LINE
  5
144
330
1F
100
AcDbEntity
  8
0
  6
Continuous
 62
     7
370
    25
100
AcDbLine
 10
45.6782954229
 20
-91.7099160274
 30
0.0
 11
45.6782954229
 21
-88.2099160274
 31
0.0
  0
LINE
  5
145
330
1F
100
AcDbEntity
  8
0
  6
Continuous
 62
     7
370
    25
100
AcDbLine
 10
47.6526543973
 20
-91.7099160274
 30
0.0
 11
45.6782954229
 21
-91.7099160274
 31
0.0
  0
LINE
  5
146
330
1F
100
AcDbEntity
  8
0
  6
Continuous
 62
     7
370
    25
100
AcDbLine
 10
24.787601734
 20
-132.7677555876
 30
0.0
 11
24.787601734
 21
-134.4728837928
 31
0.0
  0
LINE
  5
147
330
1F
100
AcDbEntity
  8
0
  6
Continuous
 62
     7
370
    25
100
AcDbLine
 10
26.178627375
 20
-132.7677555876
 30
0.0
 11
24.787601734
 21
-132.7677555876
 31
0.0
  0
LINE
  5
148
330
1F
100
AcDbEntity
  8
0
  6
Continuous
 62
     7
370
    25
100
AcDbLine
 10
26.178627375
 20
-132.4087812287
 30
0.0
 11
26.178627375
 21
-132.7677555876
 31
0.0
  0
LINE
  5
149
330
1F
100
AcDbEntity
  8
0
  6
Continuous
 62
     7
370
    25
100
AcDbLine
 10
24.787601734
 20
-132.4087812287
 30
0.0
 11
26.178627375
 21
-132.4087812287
 31
0.0
  0
LINE
  5
14A
330
1F
100
AcDbEntity
  8
0
  6
Continuous
 62
     7
370
    25
100
AcDbLine
 10
26.178627375
 20
-131.3318581517
 30
0.0
 11
24.787601734
 21
-131.3318581517
 31
0.0
  0
LINE
  5
14B
330
1F
100
AcDbEntity
  8
0
  6
Continuous
 62
     7
370
    25
100
AcDbLine
 10
26.178627375
 20
-130.9728837928
 30
0.0
 11
26.178627375
 21
-131.3318581517
 31
0.0
  0
LINE
  5
14C
330
1F
100
AcDbEntity
  8
0
  6
Continuous
 62
     7
370
    25
100
AcDbLine
 10
24.4734991699
 20
-130.9728837928
 30
0.0
 11
26.178627375
 21
-130.9728837928
 31
0.0
  0
LINE
  5
14D
330
1F
100
AcDbEntity
  8
0
  6
Continuous
 62
     7
370
    25
100
AcDbLine
 10
24.4734991699
 20
-134.4728837928
 30
0.0
 11
24.4734991699
 21
-130.9728837928
 31
0.0
  0
LINE
  5
14E
330
1F
100
AcDbEntity
  8
0
  6
Continuous
 62
     7
370
    25
100
AcDbLine
 10
24.787601734
 20
-134.4728837928
 30
0.0
 11
24.4734991699
 21
-134.4728837928
 31
0.0
  0
LINE
  5
14F
330
1F
100
AcDbEntity
  8
0
  6
Continuous
 62
     7
370
    25
100
AcDbLine
 10
27.1209350673
 20
-132.8574991774
 30
0.0
 11
27.1209350673
 21
-134.4728837928
 31
0.0
  0
LINE
  5
150
330
1F
100
AcDbEntity
  8
0
  6
Continuous
 62
     7
370
    25
100
AcDbLine
 10
28.6620007724
 20
-134.4728837928
 30
0.0
 11
27.3761434006
 21
-132.8574991774
 31
0.0
  0
LINE
  5
151
330
1F
100
AcDbEntity
  8
0
  6
Continuous
 62
     7
370
    25
100
AcDbLine
 10
29.0504222468
 20
-134.4728837928
 30
0.0
 11
28.6620007724
 21
-134.4728837928
 31
0.0
  0
LINE
  5
152
330
1F
100
AcDbEntity
  8
0
  6
Continuous
 62
     7
370
    25
100
AcDbLine
 10
27.764564875
 20
-132.8574991774
 30
0.0
 11
29.0504222468
 21
-134.4728837928
 31
0.0
  0
LINE
  5
153
330
1F
100
AcDbEntity
  8
0
  6
Continuous
 62
     7
370
    25
100
AcDbLine
 10
26.8068325032
 20
-130.9728837928
 30
0.0
 11
27.5072531763
 21
-130.9728837928
 31
0.0
  0
LINE
  5
154
330
1F
100
AcDbEntity
  8
0
  6
Continuous
 62
     7
370
    25
100
AcDbLine
 10
26.8068325032
 20
-134.4728837928
 30
0.0
 11
26.8068325032
 21
-130.9728837928
 31
0.0
  0
LINE
  5
155
330
1F
100
AcDbEntity
  8
0
  6
Continuous
 62
     7
370
    25
100
AcDbLine
 10
27.1209350673
 20
-134.4728837928
 30
0.0
 11
26.8068325032
 21
-134.4728837928
 31
0.0
  0
LINE
  5
156
330
1F
100
AcDbEntity
  8
0
  6
Continuous
 62
     7
370
    25
100
AcDbLine
 10
-5.375
 20
-123.0200744881
 30
0.0
 11
-5.375
 21
-127.4052312698
 31
0.0
  0
LINE
  5
157
330
1F
100
AcDbEntity
  8
0
  6
Continuous
 62
     7
370
    25
100
AcDbLine
 10
5.375
 20
-127.4052312698
 30
0.0
 11
5.375
 21
-123.0200744881
 31
0.0
  0
LINE
  5
158
330
1F
100
AcDbEntity
  8
0
  6
Continuous
 62
     7
370
    25
100
AcDbLine
 10
-111.0
 20
95.1873471211
 30
0.0
 11
-111.0
 21
-165.6126528789
 31
0.0
  0
LINE
  5
159
330
1F
100
AcDbEntity
  8
0
  6
Continuous
 62
     7
370
    25
100
AcDbLine
 10
29.5020133716
 20
-90.9681291684
 30
0.0
 11
30.6686800383
 21
-88.2099160274
 31
0.0
  0
LINE
  5
15A
330
1F
100
AcDbEntity
  8
0
  6
Continuous
 62
     7
370
    25
100
AcDbLine
 10
28.335346705
 20
-88.2099160274
 30
0.0
 11
29.5020133716
 21
-90.9681291684
 31
0.0
  0
LINE
  5
15B
330
1F
100
AcDbEntity
  8
0
  6
Continuous
 62
     7
370
    25
100
AcDbLine
 10
27.9988082434
 20
-88.2099160274
 30
0.0
 11
28.335346705
 21
-88.2099160274
 31
0.0
  0
LINE
  5
15C
330
1F
100
AcDbEntity
  8
0
  6
Continuous
 62
     7
370
    25
100
AcDbLine
 10
45.0247812211
 20
-130.9728837928
 30
0.0
 11
45.0247812211
 21
-134.4728837928
 31
0.0
  0
LINE
  5
15D
330
1F
100
AcDbEntity
  8
0
  6
Continuous
 62
     7
370
    25
100
AcDbLine
 10
44.710678657
 20
-130.9728837928
 30
0.0
 11
45.0247812211
 21
-130.9728837928
 31
0.0
  0
LINE
  5
15E
330
1F
100
AcDbEntity
  8
0
  6
Continuous
 62
     7
370
    25
100
AcDbLine
 10
44.710678657
 20
-133.7275913248
 30
0.0
 11
44.710678657
 21
-130.9728837928
 31
0.0
  0
LINE
  5
15F
330
1F
100
AcDbEntity
  8
0
  6
Continuous
 62
     7
370
    25
100
AcDbLine
 10
40.0440119904
 20
-132.4087812287
 30
0.0
 11
41.7042684006
 21
-132.4087812287
 31
0.0
  0
LINE
  5
160
330
1F
100
AcDbEntity
  8
0
  6
Continuous
 62
     7
370
    25
100
AcDbLine
 10
40.0440119904
 20
-131.3318581517
 30
0.0
 11
40.0440119904
 21
-132.4087812287
 31
0.0
  0
LINE
  5
161
330
1F
100
AcDbEntity
  8
0
  6
Continuous
 62
     7
370
    25
100
AcDbLine
 10
37.5116287563
 20
-91.3509416684
 30
0.0
 11
37.5116287563
 21
-91.7099160274
 31
0.0
  0
LINE
  5
162
330
1F
100
AcDbEntity
  8
0
  6
Continuous
 62
     7
370
    25
100
AcDbLine
 10
36.1654749101
 20
-91.3509416684
 30
0.0
 11
37.5116287563
 21
-91.3509416684
 31
0.0
  0
LINE
  5
163
330
1F
100
AcDbEntity
  8
0
  6
Continuous
 62
     7
370
    25
100
AcDbLine
 10
35.851372346
 20
-88.2099160274
 30
0.0
 11
36.1654749101
 21
-88.2099160274
 31
0.0
  0
LINE
  5
164
330
1F
100
AcDbEntity
  8
0
  6
Continuous
 62
     7
370
    25
100
AcDbLine
 10
35.851372346
 20
-91.7099160274
 30
0.0
 11
35.851372346
 21
-88.2099160274
 31
0.0
  0
LINE
  5
165
330
1F
100
AcDbEntity
  8
0
  6
Continuous
 62
     7
370
    25
100
AcDbLine
 10
37.5116287563
 20
-91.7099160274
 30
0.0
 11
35.851372346
 21
-91.7099160274
 31
0.0
  0
LINE
  5
166
330
1F
100
AcDbEntity
  8
0
  6
Continuous
 62
     7
370
    25
100
AcDbLine
 10
40.3385518332
 20
-88.2099160274
 30
0.0
 11
40.3385518332
 21
-90.3237982389
 31
0.0
  0
LINE
  5
167
330
1F
100
AcDbEntity
  8
0
  6
Continuous
 62
     7
370
    25
100
AcDbLine
 10
40.0244492691
 20
-88.2099160274
 30
0.0
 11
40.3385518332
 21
-88.2099160274
 31
0.0
  0
LINE
  5
168
330
1F
100
AcDbEntity
  8
0
  6
Continuous
 62
     7
370
    25
100
AcDbLine
 10
38.4090646537
 20
-88.2099160274
 30
0.0
 11
38.4090646537
 21
-90.3069713158
 31
0.0
  0
LINE
  5
169
330
1F
100
AcDbEntity
  8
0
  6
Continuous
 62
     7
370
    25
100
AcDbLine
 10
38.0949620896
 20
-88.2099160274
 30
0.0
 11
38.4090646537
 21
-88.2099160274
 31
0.0
  0
LINE
  5
16A
330
1F
100
AcDbEntity
  8
0
  6
Continuous
 62
     7
370
    25
100
AcDbLine
 10
38.0949620896
 20
-90.3237982389
 30
0.0
 11
38.0949620896
 21
-88.2099160274
 31
0.0
  0
LINE
  5
16B
330
1F
100
AcDbEntity
  8
0
  6
Continuous
 62
     7
370
    25
100
AcDbLine
 10
42.9754709037
 20
-91.7099160274
 30
0.0
 11
41.7071415768
 21
-89.1858775658
 31
0.0
  0
LINE
  5
16C
330
1F
100
AcDbEntity
  8
0
  6
Continuous
 62
     7
370
    25
100
AcDbLine
 10
43.046284205
 20
-91.7099160274
 30
0.0
 11
42.9754709037
 21
-91.7099160274
 31
0.0
  0
LINE
  5
16D
330
1F
100
AcDbEntity
  8
0
  6
Continuous
 62
     7
370
    25
100
AcDbLine
 10
44.3097056793
 20
-89.1914865402
 30
0.0
 11
43.046284205
 21
-91.7099160274
 31
0.0
  0
LINE
  5
16E
330
1F
100
AcDbEntity
  8
0
  6
Continuous
 62
     7
370
    25
100
AcDbLine
 10
44.6448418973
 20
-91.7099160274
 30
0.0
 11
44.3097056793
 21
-89.1914865402
 31
0.0
  0
LINE
  5
16F
330
1F
100
AcDbEntity
  8
0
  6
Continuous
 62
     7
370
    25
100
AcDbLine
 10
44.960346705
 20
-91.7099160274
 30
0.0
 11
44.6448418973
 21
-91.7099160274
 31
0.0
  0
LINE
  5
170
330
1F
100
AcDbEntity
  8
0
  6
Continuous
 62
     7
370
    25
100
AcDbLine
 10
44.495502955
 20
-88.2099160274
 30
0.0
 11
44.960346705
 21
-91.7099160274
 31
0.0
  0
LINE
  5
171
330
1F
100
AcDbEntity
  8
0
  6
Continuous
 62
     7
370
    25
100
AcDbLine
 10
44.4499300383
 20
-88.2099160274
 30
0.0
 11
44.495502955
 21
-88.2099160274
 31
0.0
  0
LINE
  5
172
330
1F
100
AcDbEntity
  8
0
  6
Continuous
 62
     7
370
    25
100
AcDbLine
 10
43.0084236281
 20
-91.0817108991
 30
0.0
 11
44.4499300383
 21
-88.2099160274
 31
0.0
  0
LINE
  5
173
330
1F
100
AcDbEntity
  8
0
  6
Continuous
 62
     7
370
    25
100
AcDbLine
 10
41.5634116088
 20
-88.2099160274
 30
0.0
 11
43.0084236281
 21
-91.0817108991
 31
0.0
  0
LINE
  5
174
330
1F
100
AcDbEntity
  8
0
  6
Continuous
 62
     7
370
    25
100
AcDbLine
 10
41.0565005511
 20
-91.7099160274
 30
0.0
 11
41.518539814
 21
-88.2099160274
 31
0.0
  0
LINE
  5
175
330
1F
100
AcDbEntity
  8
0
  6
Continuous
 62
     7
370
    25
100
AcDbLine
 10
41.3727064806
 20
-91.7099160274
 30
0.0
 11
41.0565005511
 21
-91.7099160274
 31
0.0
  0
LINE
  5
176
330
1F
100
AcDbEntity
  8
0
  6
Continuous
 62
     7
370
    25
100
AcDbLine
 10
30.0824735288
 20
-134.1139094338
 30
0.0
 11
31.7427299391
 21
-134.1139094338
 31
0.0
  0
LINE
  5
177
330
1F
100
AcDbEntity
  8
0
  6
Continuous
 62
     7
370
    25
100
AcDbLine
 10
30.0824735288
 20
-132.7677555876
 30
0.0
 11
30.0824735288
 21
-134.1139094338
 31
0.0
  0
LINE
  5
178
330
1F
100
AcDbEntity
  8
0
  6
Continuous
 62
     7
370
    25
100
AcDbLine
 10
31.7427299391
 20
-132.7677555876
 30
0.0
 11
30.0824735288
 21
-132.7677555876
 31
0.0
  0
LINE
  5
179
330
1F
100
AcDbEntity
  8
0
  6
Continuous
 62
     7
370
    25
100
AcDbLine
 10
31.7427299391
 20
-132.4087812287
 30
0.0
 11
31.7427299391
 21
-132.7677555876
 31
0.0
  0
LINE
  5
17A
330
1F
100
AcDbEntity
  8
0
  6
Continuous
 62
     7
370
    25
100
AcDbLine
 10
30.0824735288
 20
-132.4087812287
 30
0.0
 11
31.7427299391
 21
-132.4087812287
 31
0.0
  0
LINE
  5
17B
330
1F
100
AcDbEntity
  8
0
  6
Continuous
 62
     7
370
    25
100
AcDbLine
 10
30.0824735288
 20
-131.3318581517
 30
0.0
 11
30.0824735288
 21
-132.4087812287
 31
0.0
  0
LINE
  5
17C
330
1F
100
AcDbEntity
  8
0
  6
Continuous
 62
     7
370
    25
100
AcDbLine
 10
31.7427299391
 20
-131.3318581517
 30
0.0
 11
30.0824735288
 21
-131.3318581517
 31
0.0
  0
LINE
  5
17D
330
1F
100
AcDbEntity
  8
0
  6
Continuous
 62
     7
370
    25
100
AcDbLine
 10
31.7427299391
 20
-130.9728837928
 30
0.0
 11
31.7427299391
 21
-131.3318581517
 31
0.0
  0
LINE
  5
17E
330
1F
100
AcDbEntity
  8
0
  6
Continuous
 62
     7
370
    25
100
AcDbLine
 10
29.7683709647
 20
-130.9728837928
 30
0.0
 11
31.7427299391
 21
-130.9728837928
 31
0.0
  0
LINE
  5
17F
330
1F
100
AcDbEntity
  8
0
  6
Continuous
 62
     7
370
    25
100
AcDbLine
 10
29.7683709647
 20
-134.4728837928
 30
0.0
 11
29.7683709647
 21
-130.9728837928
 31
0.0
  0
LINE
  5
180
330
1F
100
AcDbEntity
  8
0
  6
Continuous
 62
     7
370
    25
100
AcDbLine
 10
31.7427299391
 20
-134.4728837928
 30
0.0
 11
29.7683709647
 21
-134.4728837928
 31
0.0
  0
LINE
  5
181
330
1F
100
AcDbEntity
  8
0
  6
Continuous
 62
     7
370
    25
100
AcDbLine
 10
-50.0
 20
48.1873471211
 30
0.0
 11
50.0
 21
48.1873471211
 31
0.0
  0
LINE
  5
182
330
1F
100
AcDbEntity
  8
0
  6
Continuous
 62
     7
370
    25
100
AcDbLine
 10
50.0
 20
78.1873471211
 30
0.0
 11
-50.0
 21
78.1873471211
 31
0.0
  0
LINE
  5
183
330
1F
100
AcDbEntity
  8
0
  6
Continuous
 62
     7
370
    25
100
AcDbLine
 10
-60.2516207788
 20
-139.2126528789
 30
0.0
 11
-60.2516207788
 21
-136.9626528789
 31
0.0
  0
LINE
  5
184
330
1F
100
AcDbEntity
  8
0
  6
Continuous
 62
     7
370
    25
100
AcDbLine
 10
-60.2516207788
 20
-136.9626528789
 30
0.0
 11
-54.5016207788
 21
-136.9626528789
 31
0.0
  0
LINE
  5
185
330
1F
100
AcDbEntity
  8
0
  6
Continuous
 62
     7
370
    25
100
AcDbLine
 10
-54.5016207788
 20
-136.9626528789
 30
0.0
 11
-54.5016207788
 21
-113.4626528789
 31
0.0
  0
LINE
  5
186
330
1F
100
AcDbEntity
  8
0
  6
Continuous
 62
     7
370
    25
100
AcDbLine
 10
-54.5016207788
 20
-113.4626528789
 30
0.0
 11
-60.2516207788
 21
-113.4626528789
 31
0.0
  0
LINE
  5
187
330
1F
100
AcDbEntity
  8
0
  6
Continuous
 62
     7
370
    25
100
AcDbLine
 10
-60.2516207788
 20
-113.4626528789
 30
0.0
 11
-60.2516207788
 21
-111.2126528789
 31
0.0
  0
LINE
  5
188
330
1F
100
AcDbEntity
  8
0
  6
Continuous
 62
     7
370
    25
100
AcDbLine
 10
-60.2516207788
 20
-111.2126528789
 30
0.0
 11
-61.7516207788
 21
-111.2126528789
 31
0.0
  0
LINE
  5
189
330
1F
100
AcDbEntity
  8
0
  6
Continuous
 62
     7
370
    25
100
AcDbLine
 10
-61.7516207788
 20
-111.2126528789
 30
0.0
 11
-61.7516207788
 21
-113.4626528789
 31
0.0
  0
LINE
  5
18A
330
1F
100
AcDbEntity
  8
0
  6
Continuous
 62
     7
370
    25
100
AcDbLine
 10
-67.5016207788
 20
-113.4626528789
 30
0.0
 11
-67.5016207788
 21
-136.9626528789
 31
0.0
  0
LINE
  5
18B
330
1F
100
AcDbEntity
  8
0
  6
Continuous
 62
     7
370
    25
100
AcDbLine
 10
-61.7516207788
 20
-136.9626528789
 30
0.0
 11
-61.7516207788
 21
-139.2126528789
 31
0.0
  0
LINE
  5
18C
330
1F
100
AcDbEntity
  8
0
  6
Continuous
 62
     7
370
    25
100
AcDbLine
 10
-61.7516207788
 20
-113.4626528789
 30
0.0
 11
-67.5016207788
 21
-113.4626528789
 31
0.0
  0
LINE
  5
18D
330
1F
100
AcDbEntity
  8
0
  6
Continuous
 62
     7
370
    25
100
AcDbLine
 10
-67.5016207788
 20
-136.9626528789
 30
0.0
 11
-61.7516207788
 21
-136.9626528789
 31
0.0
  0
LINE
  5
18E
330
1F
100
AcDbEntity
  8
0
  6
Continuous
 62
     7
370
    25
100
AcDbLine
 10
-61.7516207788
 20
-139.2126528789
 30
0.0
 11
-60.2516207788
 21
-139.2126528789
 31
0.0
  0
LINE
  5
18F
330
1F
100
AcDbEntity
  8
0
  6
Continuous
 62
     7
370
    25
100
AcDbLine
 10
42.3983789776
 20
-130.9728837928
 30
0.0
 11
44.710678657
 21
-133.7275913248
 31
0.0
  0
LINE
  5
190
330
1F
100
AcDbEntity
  8
0
  6
Continuous
 62
     7
370
    25
100
AcDbLine
 10
42.3324735288
 20
-130.9728837928
 30
0.0
 11
42.3983789776
 21
-130.9728837928
 31
0.0
  0
LINE
  5
191
330
1F
100
AcDbEntity
  8
0
  6
Continuous
 62
     7
370
    25
100
AcDbLine
 10
42.3324735288
 20
-134.4728837928
 30
0.0
 11
42.3324735288
 21
-130.9728837928
 31
0.0
  0
LINE
  5
192
330
1F
100
AcDbEntity
  8
0
  6
Continuous
 62
     7
370
    25
100
AcDbLine
 10
42.6465760929
 20
-134.4728837928
 30
0.0
 11
42.3324735288
 21
-134.4728837928
 31
0.0
  0
LINE
  5
193
330
1F
100
AcDbEntity
  8
0
  6
Continuous
 62
     7
370
    25
100
AcDbLine
 10
31.7427299391
 20
-134.1139094338
 30
0.0
 11
31.7427299391
 21
-134.4728837928
 31
0.0
  0
LINE
  5
194
330
1F
100
AcDbEntity
  8
0
  6
Continuous
 62
     7
370
    25
100
AcDbLine
 10
36.9029863493
 20
-130.9728837928
 30
0.0
 11
36.9029863493
 21
-133.0699390812
 31
0.0
  0
LINE
  5
195
330
1F
100
AcDbEntity
  8
0
  6
Continuous
 62
     7
370
    25
100
AcDbLine
 10
36.5888837852
 20
-130.9728837928
 30
0.0
 11
36.9029863493
 21
-130.9728837928
 31
0.0
  0
LINE
  5
196
330
1F
100
AcDbEntity
  8
0
  6
Continuous
 62
     7
370
    25
100
AcDbLine
 10
36.5888837852
 20
-133.0867660043
 30
0.0
 11
36.5888837852
 21
-130.9728837928
 31
0.0
  0
LINE
  5
197
330
1F
100
AcDbEntity
  8
0
  6
Continuous
 62
     7
370
    25
100
AcDbLine
 10
24.787601734
 20
-131.3318581517
 30
0.0
 11
24.787601734
 21
-132.4087812287
 31
0.0
  0
LINE
  5
198
330
1F
100
AcDbEntity
  8
0
  6
Continuous
 62
     7
370
    25
100
AcDbLine
 10
41.7042684006
 20
-132.7677555876
 30
0.0
 11
40.0440119904
 21
-132.7677555876
 31
0.0
  0
LINE
  5
199
330
1F
100
AcDbEntity
  8
0
  6
Continuous
 62
     7
370
    25
100
AcDbLine
 10
49.1529863493
 20
-131.6151113569
 30
0.0
 11
48.8781466058
 21
-131.8254478953
 31
0.0
  0
LINE
  5
19A
330
1F
100
AcDbEntity
  8
0
  6
Continuous
 62
     7
370
    25
100
AcDbLine
 10
41.7071415768
 20
-89.1858775658
 30
0.0
 11
41.3727064806
 21
-91.7099160274
 31
0.0
  0
LINE
  5
19B
330
1F
100
AcDbEntity
  8
0
  6
Continuous
 62
     7
370
    25
100
AcDbLine
 10
35.4341361891
 20
-134.742114562
 30
0.0
 11
35.0457147147
 21
-134.2667539851
 31
0.0
  0
LINE
  5
19C
330
1F
100
AcDbEntity
  8
0
  6
Continuous
 62
     7
370
    25
100
AcDbLine
 10
35.8260632724
 20
-134.742114562
 30
0.0
 11
35.4341361891
 21
-134.742114562
 31
0.0
  0
LINE
  5
19D
330
1F
100
AcDbEntity
  8
0
  6
Continuous
 62
     7
370
    25
100
AcDbLine
 10
35.2883028558
 20
-134.0830600748
 30
0.0
 11
35.8260632724
 21
-134.742114562
 31
0.0
  0
LINE
  5
19E
330
1F
100
AcDbEntity
  8
0
  6
Continuous
 62
     7
370
    25
100
AcDbLine
 10
52.1593966058
 20
-130.9728837928
 30
0.0
 11
51.037601734
 21
-132.8091217735
 31
0.0
  0
LINE
  5
19F
330
1F
100
AcDbEntity
  8
0
  6
Continuous
 62
     7
370
    25
100
AcDbLine
 10
47.6526543973
 20
-90.0047878222
 30
0.0
 11
45.992397987
 21
-90.0047878222
 31
0.0
  0
LINE
  5
1A0
330
1F
100
AcDbEntity
  8
0
  6
Continuous
 62
     7
370
    25
100
AcDbLine
 10
50.8812515737
 20
-132.4767900428
 30
0.0
 11
51.799721125
 21
-130.9728837928
 31
0.0
  0
LINE
  5
1A1
330
1F
100
AcDbEntity
  8
0
  6
Continuous
 62
     7
370
    25
100
AcDbLine
 10
49.9613797788
 20
-130.9728837928
 30
0.0
 11
50.8812515737
 21
-132.4767900428
 31
0.0
  0
LINE
  5
1A2
330
1F
100
AcDbEntity
  8
0
  6
Continuous
 62
     7
370
    25
100
AcDbLine
 10
49.6017042981
 20
-130.9728837928
 30
0.0
 11
49.9613797788
 21
-130.9728837928
 31
0.0
  0
LINE
  5
1A3
330
1F
100
AcDbEntity
  8
0
  6
Continuous
 62
     7
370
    25
100
AcDbLine
 10
38.8324735288
 20
-130.9728837928
 30
0.0
 11
38.8324735288
 21
-133.0867660043
 31
0.0
  0
LINE
  5
1A4
330
1F
100
AcDbEntity
  8
0
  6
Continuous
 62
     7
370
    25
100
AcDbLine
 10
38.5183709647
 20
-130.9728837928
 30
0.0
 11
38.8324735288
 21
-130.9728837928
 31
0.0
  0
LINE
  5
1A5
330
1F
100
AcDbEntity
  8
0
  6
Continuous
 62
     7
370
    25
100
AcDbLine
 10
38.5183709647
 20
-133.0699390812
 30
0.0
 11
38.5183709647
 21
-130.9728837928
 31
0.0
  0
LINE
  5
1A6
330
1F
100
AcDbEntity
  8
0
  6
Continuous
 62
     7
370
    25
100
AcDbLine
 10
31.0052184999
 20
-88.2099160274
 30
0.0
 11
29.5244492691
 21
-91.7099160274
 31
0.0
  0
LINE
  5
1A7
330
1F
100
AcDbEntity
  8
0
  6
Continuous
 62
     7
370
    25
100
AcDbLine
 10
30.6686800383
 20
-88.2099160274
 30
0.0
 11
31.0052184999
 21
-88.2099160274
 31
0.0
  0
LINE
  5
1A8
330
1F
100
AcDbEntity
  8
0
  6
Continuous
 62
     7
370
    25
100
AcDbLine
 10
41.7042684006
 20
-131.3318581517
 30
0.0
 11
40.0440119904
 21
-131.3318581517
 31
0.0
  0
LINE
  5
1A9
330
1F
100
AcDbEntity
  8
0
  6
Continuous
 62
     7
370
    25
100
AcDbLine
 10
41.7042684006
 20
-130.9728837928
 30
0.0
 11
41.7042684006
 21
-131.3318581517
 31
0.0
  0
LINE
  5
1AA
330
1F
100
AcDbEntity
  8
0
  6
Continuous
 62
     7
370
    25
100
AcDbLine
 10
39.7299094263
 20
-130.9728837928
 30
0.0
 11
41.7042684006
 21
-130.9728837928
 31
0.0
  0
LINE
  5
1AB
330
1F
100
AcDbEntity
  8
0
  6
Continuous
 62
     7
370
    25
100
AcDbLine
 10
29.4795774742
 20
-91.7099160274
 30
0.0
 11
27.9988082434
 21
-88.2099160274
 31
0.0
  0
LINE
  5
1AC
330
1F
100
AcDbEntity
  8
0
  6
Continuous
 62
     7
370
    25
100
AcDbLine
 10
41.7042684006
 20
-134.4728837928
 30
0.0
 11
39.7299094263
 21
-134.4728837928
 31
0.0
  0
LINE
  5
1AD
330
1F
100
AcDbEntity
  8
0
  6
Continuous
 62
     7
370
    25
100
AcDbLine
 10
41.7042684006
 20
-134.1139094338
 30
0.0
 11
41.7042684006
 21
-134.4728837928
 31
0.0
  0
LINE
  5
1AE
330
1F
100
AcDbEntity
  8
0
  6
Continuous
 62
     7
370
    25
100
AcDbLine
 10
40.0440119904
 20
-134.1139094338
 30
0.0
 11
41.7042684006
 21
-134.1139094338
 31
0.0
  0
LINE
  5
1AF
330
1F
100
AcDbEntity
  8
0
  6
Continuous
 62
     7
370
    25
100
AcDbLine
 10
40.0440119904
 20
-132.7677555876
 30
0.0
 11
40.0440119904
 21
-134.1139094338
 31
0.0
  0
LINE
  5
1B0
330
1F
100
AcDbEntity
  8
0
  6
Continuous
 62
     7
370
    25
100
AcDbLine
 10
50.7234991699
 20
-132.8091217735
 30
0.0
 11
49.6017042981
 21
-130.9728837928
 31
0.0
  0
LINE
  5
1B1
330
1F
100
AcDbEntity
  8
0
  6
Continuous
 62
     7
370
    25
100
AcDbLine
 10
41.7042684006
 20
-132.4087812287
 30
0.0
 11
41.7042684006
 21
-132.7677555876
 31
0.0
  0
LINE
  5
1B2
330
1F
100
AcDbEntity
  8
0
  6
Continuous
 62
     7
370
    25
100
AcDbLine
 10
42.6465760929
 20
-131.7244863569
 30
0.0
 11
42.6465760929
 21
-134.4728837928
 31
0.0
  0
LINE
  5
1B3
330
1F
100
AcDbEntity
  8
0
  6
Continuous
 62
     7
370
    25
100
AcDbLine
 10
44.9532667981
 20
-134.4728837928
 30
0.0
 11
42.6465760929
 21
-131.7244863569
 31
0.0
  0
LINE
  5
1B4
330
1F
100
AcDbEntity
  8
0
  6
Continuous
 62
     7
370
    25
100
AcDbLine
 10
45.0247812211
 20
-134.4728837928
 30
0.0
 11
44.9532667981
 21
-134.4728837928
 31
0.0
  0
LINE
  5
1B5
330
1F
100
AcDbEntity
  8
0
  6
Continuous
 62
     7
370
    25
100
AcDbLine
 10
50.7234991699
 20
-134.4728837928
 30
0.0
 11
50.7234991699
 21
-132.8091217735
 31
0.0
  0
LINE
  5
1B6
330
1F
100
AcDbEntity
  8
0
  6
Continuous
 62
     7
370
    25
100
AcDbLine
 10
39.7299094263
 20
-134.4728837928
 30
0.0
 11
39.7299094263
 21
-130.9728837928
 31
0.0
  0
LINE
  5
1B7
330
1F
100
AcDbEntity
  8
0
  6
Continuous
 62
     7
370
    25
100
AcDbLine
 10
27.3761434006
 20
-132.8574991774
 30
0.0
 11
27.1209350673
 21
-132.8574991774
 31
0.0
  0
LINE
  5
1B8
330
1F
100
AcDbEntity
  8
0
  6
Continuous
 62
     7
370
    25
100
AcDbLine
 10
29.5244492691
 20
-91.7099160274
 30
0.0
 11
29.4795774742
 21
-91.7099160274
 31
0.0
  0
LINE
  5
1B9
330
1F
100
AcDbEntity
  8
0
  6
Continuous
 62
     7
370
    25
100
AcDbLine
 10
36.1654749101
 20
-88.2099160274
 30
0.0
 11
36.1654749101
 21
-91.3509416684
 31
0.0
  0
LINE
  5
1BA
330
1F
100
AcDbEntity
  8
0
  6
Continuous
 62
     7
370
    25
100
AcDbLine
 10
51.799721125
 20
-130.9728837928
 30
0.0
 11
52.1593966058
 21
-130.9728837928
 31
0.0
  0
LINE
  5
1BB
330
1F
100
AcDbEntity
  8
0
  6
Continuous
 62
     7
370
    25
100
AcDbLine
 10
48.8781466058
 20
-133.6203196902
 30
0.0
 11
49.1529863493
 21
-133.8285528633
 31
0.0
  0
LINE
  5
1BC
330
1F
100
AcDbEntity
  8
0
  6
Continuous
 62
     7
370
    25
100
AcDbLine
 10
-111.0
 20
-165.6126528789
 30
0.0
 11
111.0
 21
-165.6126528789
 31
0.0
  0
LINE
  5
1BD
330
1F
100
AcDbEntity
  8
0
  6
Continuous
 62
     7
370
    25
100
AcDbLine
 10
41.518539814
 20
-88.2099160274
 30
0.0
 11
41.5634116088
 21
-88.2099160274
 31
0.0
  0
LINE
  5
1BE
330
1F
100
AcDbEntity
  8
0
  6
Continuous
 62
     7
370
    25
100
AcDbLine
 10
51.037601734
 20
-132.8091217735
 30
0.0
 11
51.037601734
 21
-134.4728837928
 31
0.0
  0
LINE
  5
1BF
330
1F
100
AcDbEntity
  8
0
  6
Continuous
 62
     7
370
    25
100
AcDbLine
 10
-111.0
 20
95.1873471211
 30
0.0
 11
111.0
 21
95.1873471211
 31
0.0
  0
LINE
  5
1C0
330
1F
100
AcDbEntity
  8
0
  6
Continuous
 62
     7
370
    25
100
AcDbLine
 10
51.037601734
 20
-134.4728837928
 30
0.0
 11
50.7234991699
 21
-134.4728837928
 31
0.0
  0
LINE
  5
1C1
330
1F
100
AcDbEntity
  8
0
  6
Continuous
 62
     7
370
    25
100
AcDbLine
 10
111.0
 20
-165.6126528789
 30
0.0
 11
111.0
 21
95.1873471211
 31
0.0
  0
LINE
  5
1C2
330
1F
100
AcDbEntity
  8
0
  6
Continuous
 62
     7
370
    25
100
AcDbLine
 10
40.0244492691
 20
-90.3069713158
 30
0.0
 11
40.0244492691
 21
-88.2099160274
 31
0.0
  0
LINE
  5
1C3
330
1F
100
AcDbEntity
  8
0
  6
Continuous
 62
     7
370
    25
100
AcDbLine
 10
34.8311714455
 20
-134.0031321902
 30
0.0
 11
34.0431105481
 21
-133.0369863569
 31
0.0
  0
LINE
  5
1C4
330
1F
100
AcDbEntity
  8
0
  6
Continuous
 62
     7
370
    25
100
AcDbLine
 10
34.0431105481
 20
-133.0369863569
 30
0.0
 11
34.4350376314
 21
-133.0369863569
 31
0.0
  0
LINE
  5
1C5
330
1F
100
AcDbEntity
  8
0
  6
Continuous
 62
     7
370
    25
100
AcDbLine
 10
34.4350376314
 20
-133.0369863569
 30
0.0
 11
35.0772651955
 21
-133.8243461325
 31
0.0
  0
LINE
  5
1C6
330
1F
100
AcDbEntity
  8
0
  6
Continuous
 62
     7
370
    25
100
AcDbLine
 10
27.1209350673
 20
-131.3318581517
 30
0.0
 11
27.1209350673
 21
-132.4985248184
 31
0.0
  0
LINE
  5
1C7
330
1F
100
AcDbEntity
  8
0
  6
Continuous
 62
     7
370
    25
100
AcDbLine
 10
27.1209350673
 20
-132.4985248184
 30
0.0
 11
27.7617603878
 21
-132.503432671
 31
0.0
  0
LINE
  5
1C8
330
1F
100
AcDbEntity
  8
0
  6
Continuous
 62
     7
370
    25
100
AcDbLine
 10
27.7771850673
 20
-131.3318581517
 30
0.0
 11
27.1209350673
 21
-131.3318581517
 31
0.0
  0
ARC
  5
1C9
330
1F
100
AcDbEntity
  8
0
  6
Continuous
 62
     7
370
    25
100
AcDbCircle
 10
0.0
 20
-125.2126528789
 30
0.0
 40
5.804999999999978
100
AcDbArc
 50
202.1916065663
 51
337.8083934337
  0
ARC
  5
1CA
330
1F
100
AcDbEntity
  8
0
  6
Continuous
 62
     7
370
    25
100
AcDbCircle
 10
0.0
 20
-125.2126528789
 30
0.0
 40
5.804999999999995
100
AcDbArc
 50
22.1916065663
 51
157.8083934337
  0
ARC
  5
1CB
330
1F
100
AcDbEntity
  8
0
  6
Continuous
 62
     7
370
    25
100
AcDbCircle
 10
50.0
 20
63.1873471211
 30
0.0
 40
15.00000000000001
100
AcDbArc
 50
270.0
 51
90.0
  0
ARC
  5
1CC
330
1F
100
AcDbEntity
  8
0
  6
Continuous
 62
     7
370
    25
100
AcDbCircle
 10
-50.0
 20
63.1873471211
 30
0.0
 40
15.00000000000001
100
AcDbArc
 50
90.0
 51
270.0
  0
ENDSEC
  0
SECTION
  2
OBJECTS
  0
DICTIONARY
  5
C
330
0
100
AcDbDictionary
281
     1
  3
ACAD_GROUP
350
D
  3
ACAD_LAYOUT
350
1A
  3
ACAD_MLINESTYLE
350
17
  3
ACAD_PLOTSETTINGS
350
19
  3
ACAD_PLOTSTYLENAME
350
E
  3
ACAD_SCALELIST
350
47
  0
DICTIONARY
  5
D
102
{ACAD_REACTORS
330
C
102
}
330
C
100
AcDbDictionary
281
     1
  0
DICTIONARY
  5
1A
102
{ACAD_REACTORS
330
C
102
}
330
C
100
AcDbDictionary
281
     1
  3
Layout1
350
1E
  3
Layout2
350
26
  3
Model
350
22
  0
DICTIONARY
  5
17
102
{ACAD_REACTORS
330
C
102
}
330
C
100
AcDbDictionary
281
     1
  3
Standard
350
18
  0
DICTIONARY
  5
19
102
{ACAD_REACTORS
330
C
102
}
330
C
100
AcDbDictionary
281
     1
  0
ACDBDICTIONARYWDFLT
  5
E
102
{ACAD_REACTORS
330
C
102
}
330
C
100
AcDbDictionary
281
     1
  3
Normal
350
F
100
AcDbDictionaryWithDefault
340
F
  0
DICTIONARY
  5
47
102
{ACAD_REACTORS
330
C
102
}
330
C
100
AcDbDictionary
281
     1
  3
A0
350
48
  3
A1
350
49
  3
A2
350
4A
  3
A3
350
4B
  3
A4
350
4C
  3
A5
350
4D
  3
A6
350
4E
  3
A7
350
4F
  3
A8
350
50
  3
A9
350
51
  3
B0
350
52
  3
B1
350
53
  3
B2
350
54
  3
B3
350
55
  3
B4
350
56
  3
B5
350
57
  3
B6
350
58
  3
B7
350
59
  3
B8
350
5A
  3
B9
350
5B
  3
C0
350
5C
  3
C1
350
5D
  3
C2
350
5E
  3
C3
350
5F
  3
C4
350
60
  3
C5
350
61
  3
C6
350
62
  3
C7
350
63
  3
C8
350
64
  3
C9
350
65
  3
D0
350
66
  3
D1
350
67
  3
D2
350
68
  0
LAYOUT
  5
1E
102
{ACAD_REACTORS
330
1A
102
}
330
1A
100
AcDbPlotSettings
  1

  2
none_device
  4

  6

 40
0.0
 41
0.0
 42
0.0
 43
0.0
 44
0.0
 45
0.0
 46
0.0
 47
0.0
 48
0.0
 49
0.0
140
0.0
141
0.0
142
1.0
143
1.0
 70
   688
 72
     1
 73
     0
 74
     5
  7

 75
    16
147
1.0
148
0.0
149
0.0
100
AcDbLayout
  1
Layout1
 70
     1
 71
     1
 10
0.0
 20
0.0
 11
420.0
 21
297.0
 12
0.0
 22
0.0
 32
0.0
 14
1.0000000000E+20
 24
1.0000000000E+20
 34
1.0000000000E+20
 15
-1.0000000000E+20
 25
-1.0000000000E+20
 35
-1.0000000000E+20
146
0.0
 13
0.0
 23
0.0
 33
0.0
 16
1.0
 26
0.0
 36
0.0
 17
0.0
 27
1.0
 37
0.0
 76
     0
330
1B
  0
LAYOUT
  5
26
102
{ACAD_REACTORS
330
1A
102
}
330
1A
100
AcDbPlotSettings
  1

  2
none_device
  4

  6

 40
0.0
 41
0.0
 42
0.0
 43
0.0
 44
0.0
 45
0.0
 46
0.0
 47
0.0
 48
0.0
 49
0.0
140
0.0
141
0.0
142
1.0
143
1.0
 70
   688
 72
     1
 73
     0
 74
     5
  7

 75
    16
147
1.0
148
0.0
149
0.0
100
AcDbLayout
  1
Layout2
 70
     1
 71
     2
 10
0.0
 20
0.0
 11
0.0
 21
0.0
 12
0.0
 22
0.0
 32
0.0
 14
0.0
 24
0.0
 34
0.0
 15
0.0
 25
0.0
 35
0.0
146
0.0
 13
0.0
 23
0.0
 33
0.0
 16
1.0
 26
0.0
 36
0.0
 17
0.0
 27
1.0
 37
0.0
 76
     0
330
23
  0
LAYOUT
  5
22
102
{ACAD_REACTORS
330
1A
102
}
330
1A
100
AcDbPlotSettings
  1

  2
none_device
  4
ANSI_A_(11.00_x_8.50_Inches)
  6

 40
6.35
 41
19.05
 42
6.35000508
 43
19.05000254
 44
279.4
 45
215.9
 46
133.34999746
 47
117.758847039
 48
0.0
 49
0.0
140
0.0
141
0.0
142
0.0322661043
143
1.0
 70
  1696
 72
     0
 73
     0
 74
     0
  7

 75
     0
147
0.0179189148
148
-1300.4909072572
149
0.0
100
AcDbLayout
  1
Model
 70
     1
 71
     0
 10
0.0
 20
0.0
 11
420.0
 21
297.0
 12
0.0
 22
0.0
 32
0.0
 14
-111.0
 24
-165.6126528789
 34
0.0
 15
111.0
 25
95.1873471211
 35
0.0
146
0.0
 13
0.0
 23
0.0
 33
0.0
 16
1.0
 26
0.0
 36
0.0
 17
0.0
 27
1.0
 37
0.0
 76
     0
330
1F
331
29
  0
MLINESTYLE
  5
18
102
{ACAD_REACTORS
330
17
102
}
330
17
100
AcDbMlineStyle
  2
Standard
 70
     0
  3

 62
   256
 51
90.0
 52
90.0
 71
     2
 49
0.5
 62
   256
  6
BYLAYER
 49
-0.5
 62
   256
  6
BYLAYER
  0
ACDBPLACEHOLDER
  5
F
102
{ACAD_REACTORS
330
E
102
}
330
E
  0
SCALE
  5
48
102
{ACAD_REACTORS
330
47
102
}
330
47
100
AcDbScale
 70
     0
300
1:1
140
1.0
141
1.0
290
     1
  0
SCALE
  5
49
102
{ACAD_REACTORS
330
47
102
}
330
47
100
AcDbScale
 70
     0
300
1:2
140
1.0
141
2.0
290
     0
  0
SCALE
  5
4A
102
{ACAD_REACTORS
330
47
102
}
330
47
100
AcDbScale
 70
     0
300
1:4
140
1.0
141
4.0
290
     0
  0
SCALE
  5
4B
102
{ACAD_REACTORS
330
47
102
}
330
47
100
AcDbScale
 70
     0
300
1:5
140
1.0
141
5.0
290
     0
  0
SCALE
  5
4C
102
{ACAD_REACTORS
330
47
102
}
330
47
100
AcDbScale
 70
     0
300
1:8
140
1.0
141
8.0
290
     0
  0
SCALE
  5
4D
102
{ACAD_REACTORS
330
47
102
}
330
47
100
AcDbScale
 70
     0
300
1:10
140
1.0
141
10.0
290
     0
  0
SCALE
  5
4E
102
{ACAD_REACTORS
330
47
102
}
330
47
100
AcDbScale
 70
     0
300
1:16
140
1.0
141
16.0
290
     0
  0
SCALE
  5
4F
102
{ACAD_REACTORS
330
47
102
}
330
47
100
AcDbScale
 70
     0
300
1:20
140
1.0
141
20.0
290
     0
  0
SCALE
  5
50
102
{ACAD_REACTORS
330
47
102
}
330
47
100
AcDbScale
 70
     0
300
1:30
140
1.0
141
30.0
290
     0
  0
SCALE
  5
51
102
{ACAD_REACTORS
330
47
102
}
330
47
100
AcDbScale
 70
     0
300
1:40
140
1.0
141
40.0
290
     0
  0
SCALE
  5
52
102
{ACAD_REACTORS
330
47
102
}
330
47
100
AcDbScale
 70
     0
300
1:50
140
1.0
141
50.0
290
     0
  0
SCALE
  5
53
102
{ACAD_REACTORS
330
47
102
}
330
47
100
AcDbScale
 70
     0
300
1:100
140
1.0
141
100.0
290
     0
  0
SCALE
  5
54
102
{ACAD_REACTORS
330
47
102
}
330
47
100
AcDbScale
 70
     0
300
2:1
140
2.0
141
1.0
290
     0
  0
SCALE
  5
55
102
{ACAD_REACTORS
330
47
102
}
330
47
100
AcDbScale
 70
     0
300
4:1
140
4.0
141
1.0
290
     0
  0
SCALE
  5
56
102
{ACAD_REACTORS
330
47
102
}
330
47
100
AcDbScale
 70
     0
300
8:1
140
8.0
141
1.0
290
     0
  0
SCALE
  5
57
102
{ACAD_REACTORS
330
47
102
}
330
47
100
AcDbScale
 70
     0
300
10:1
140
10.0
141
1.0
290
     0
  0
SCALE
  5
58
102
{ACAD_REACTORS
330
47
102
}
330
47
100
AcDbScale
 70
     0
300
100:1
140
100.0
141
1.0
290
     0
  0
SCALE
  5
59
102
{ACAD_REACTORS
330
47
102
}
330
47
100
AcDbScale
 70
     0
300
1/128" = 1'-0"
140
0.0078125
141
12.0
290
     0
  0
SCALE
  5
5A
102
{ACAD_REACTORS
330
47
102
}
330
47
100
AcDbScale
 70
     0
300
1/64" = 1'-0"
140
0.015625
141
12.0
290
     0
  0
SCALE
  5
5B
102
{ACAD_REACTORS
330
47
102
}
330
47
100
AcDbScale
 70
     0
300
1/32" = 1'-0"
140
0.03125
141
12.0
290
     0
  0
SCALE
  5
5C
102
{ACAD_REACTORS
330
47
102
}
330
47
100
AcDbScale
 70
     0
300
1/16" = 1'-0"
140
0.0625
141
12.0
290
     0
  0
SCALE
  5
5D
102
{ACAD_REACTORS
330
47
102
}
330
47
100
AcDbScale
 70
     0
300
3/32" = 1'-0"
140
0.09375
141
12.0
290
     0
  0
SCALE
  5
5E
102
{ACAD_REACTORS
330
47
102
}
330
47
100
AcDbScale
 70
     0
300
1/8" = 1'-0"
140
0.125
141
12.0
290
     0
  0
SCALE
  5
5F
102
{ACAD_REACTORS
330
47
102
}
330
47
100
AcDbScale
 70
     0
300
3/16" = 1'-0"
140
0.1875
141
12.0
290
     0
  0
SCALE
  5
60
102
{ACAD_REACTORS
330
47
102
}
330
47
100
AcDbScale
 70
     0
300
1/4" = 1'-0"
140
0.25
141
12.0
290
     0
  0
SCALE
  5
61
102
{ACAD_REACTORS
330
47
102
}
330
47
100
AcDbScale
 70
     0
300
3/8" = 1'-0"
140
0.375
141
12.0
290
     0
  0
SCALE
  5
62
102
{ACAD_REACTORS
330
47
102
}
330
47
100
AcDbScale
 70
     0
300
1/2" = 1'-0"
140
0.5
141
12.0
290
     0
  0
SCALE
  5
63
102
{ACAD_REACTORS
330
47
102
}
330
47
100
AcDbScale
 70
     0
300
3/4" = 1'-0"
140
0.75
141
12.0
290
     0
  0
SCALE
  5
64
102
{ACAD_REACTORS
330
47
102
}
330
47
100
AcDbScale
 70
     0
300
1" = 1'-0"
140
1.0
141
12.0
290
     0
  0
SCALE
  5
65
102
{ACAD_REACTORS
330
47
102
}
330
47
100
AcDbScale
 70
     0
300
1-1/2" = 1'-0"
140
1.5
141
12.0
290
     0
  0
SCALE
  5
66
102
{ACAD_REACTORS
330
47
102
}
330
47
100
AcDbScale
 70
     0
300
3" = 1'-0"
140
3.0
141
12.0
290
     0
  0
SCALE
  5
67
102
{ACAD_REACTORS
330
47
102
}
330
47
100
AcDbScale
 70
     0
300
6" = 1'-0"
140
6.0
141
12.0
290
     0
  0
SCALE
  5
68
102
{ACAD_REACTORS
330
47
102
}
330
47
100
AcDbScale
 70
     0
300
1'-0" = 1'-0"
140
12.0
141
12.0
290
     0
  0
ENDSEC
  0
EOF
