  0
SECTION
  2
HEADER
  9
$ACADVER
  1
AC1015
  9
$ACADMAINTVER
 70
     6
  9
$DWGCODEPAGE
  3
ANSI_1252
  9
$INSBASE
 10
0.0
 20
0.0
 30
0.0
  9
$EXTMIN
 10
-54.0
 20
-53.9656564089
 30
0.0
  9
$EXTMAX
 10
54.0
 20
53.9656564089
 30
0.0
  9
$LIMMIN
 10
0.0
 20
0.0
  9
$LIMMAX
 10
420.0
 20
297.0
  9
$ORTHOMODE
 70
     0
  9
$REGENMODE
 70
     1
  9
$FILLMODE
 70
     1
  9
$QTEXTMODE
 70
     0
  9
$MIRRTEXT
 70
     1
  9
$LTSCALE
 40
1.0
  9
$ATTMODE
 70
     1
  9
$TEXTSIZE
 40
6.35
  9
$TRACEWID
 40
1.0
  9
$TEXTSTYLE
  7
Standard
  9
$CLAYER
  8
0
  9
$CELTYPE
  6
ByLayer
  9
$CECOLOR
 62
   256
  9
$CELTSCALE
 40
1.0
  9
$DISPSILH
 70
     0
  9
$DIMSCALE
 40
1.0
  9
$DIMASZ
 40
6.0
  9
$DIMEXO
 40
1.0
  9
$DIMDLI
 40
3.75
  9
$DIMRND
 40
0.0
  9
$DIMDLE
 40
0.0
  9
$DIMEXE
 40
1.0
  9
$DIMTP
 40
0.0
  9
$DIMTM
 40
0.0
  9
$DIMTXT
 40
6.35
  9
$DIMCEN
 40
2.5
  9
$DIMTSZ
 40
0.0
  9
$DIMTOL
 70
     0
  9
$DIMLIM
 70
     0
  9
$DIMTIH
 70
     1
  9
$DIMTOH
 70
     1
  9
$DIMSE1
 70
     0
  9
$DIMSE2
 70
     0
  9
$DIMTAD
 70
     1
  9
$DIMZIN
 70
     0
  9
$DIMBLK
  1

  9
$DIMASO
 70
     1
  9
$DIMSHO
 70
     1
  9
$DIMPOST
  1

  9
$DIMAPOST
  1

  9
$DIMALT
 70
     0
  9
$DIMALTD
 70
     3
  9
$DIMALTF
 40
0.0393700787
  9
$DIMLFAC
 40
1.0
  9
$DIMTOFL
 70
     1
  9
$DIMTVP
 40
0.0
  9
$DIMTIX
 70
     0
  9
$DIMSOXD
 70
     0
  9
$DIMSAH
 70
     0
  9
$DIMBLK1
  1

  9
$DIMBLK2
  1

  9
$DIMSTYLE
  2
ISO-25
  9
$DIMCLRD
 70
     0
  9
$DIMCLRE
 70
     0
  9
$DIMCLRT
 70
     0
  9
$DIMTFAC
 40
1.0
  9
$DIMGAP
 40
1.524
  9
$DIMJUST
 70
     0
  9
$DIMSD1
 70
     0
  9
$DIMSD2
 70
     0
  9
$DIMTOLJ
 70
     0
  9
$DIMTZIN
 70
     0
  9
$DIMALTZ
 70
     0
  9
$DIMALTTZ
 70
     0
  9
$DIMUPT
 70
     0
  9
$DIMDEC
 70
     3
  9
$DIMTDEC
 70
     2
  9
$DIMALTU
 70
     2
  9
$DIMALTTD
 70
     3
  9
$DIMTXSTY
  7
Standard
  9
$DIMAUNIT
 70
     0
  9
$DIMADEC
 70
     3
  9
$DIMALTRND
 40
0.0
  9
$DIMAZIN
 70
     0
  9
$DIMDSEP
 70
    44
  9
$DIMATFIT
 70
     3
  9
$DIMFRAC
 70
     0
  9
$DIMLDRBLK
  1

  9
$DIMLUNIT
 70
     2
  9
$DIMLWD
 70
    -2
  9
$DIMLWE
 70
    -2
  9
$DIMTMOVE
 70
     0
  9
$LUNITS
 70
     2
  9
$LUPREC
 70
     3
  9
$SKETCHINC
 40
1.0
  9
$FILLETRAD
 40
10.0
  9
$AUNITS
 70
     0
  9
$AUPREC
 70
     3
  9
$MENU
  1
.
  9
$ELEVATION
 40
0.0
  9
$PELEVATION
 40
0.0
  9
$THICKNESS
 40
0.0
  9
$LIMCHECK
 70
     0
  9
$CHAMFERA
 40
0.0
  9
$CHAMFERB
 40
0.0
  9
$CHAMFERC
 40
0.0
  9
$CHAMFERD
 40
0.0
  9
$SKPOLY
 70
     0
  9
$TDCREATE
 40
2458940.4445186
  9
$TDUCREATE
 40
2458940.3195186
  9
$TDUPDATE
 40
2458940.444546551
  9
$TDUUPDATE
 40
2458940.319546551
  9
$TDINDWG
 40
0.0000000116
  9
$TDUSRTIMER
 40
0.0000000116
  9
$USRTIMER
 70
     1
  9
$ANGBASE
 50
0.0
  9
$ANGDIR
 70
     0
  9
$PDMODE
 70
     0
  9
$PDSIZE
 40
-1.0
  9
$PLINEWID
 40
0.0
  9
$SPLFRAME
 70
     0
  9
$SPLINETYPE
 70
     6
  9
$SPLINESEGS
 70
     8
  9
$HANDSEED
  5
2A7
  9
$SURFTAB1
 70
     6
  9
$SURFTAB2
 70
     6
  9
$SURFTYPE
 70
     6
  9
$SURFU
 70
     6
  9
$SURFV
 70
     6
  9
$UCSBASE
  2

  9
$UCSNAME
  2

  9
$UCSORG
 10
0.0
 20
0.0
 30
0.0
  9
$UCSXDIR
 10
1.0
 20
0.0
 30
0.0
  9
$UCSYDIR
 10
0.0
 20
1.0
 30
0.0
  9
$UCSORTHOREF
  2

  9
$UCSORTHOVIEW
 70
     0
  9
$UCSORGTOP
 10
0.0
 20
0.0
 30
0.0
  9
$UCSORGBOTTOM
 10
0.0
 20
0.0
 30
0.0
  9
$UCSORGLEFT
 10
0.0
 20
0.0
 30
0.0
  9
$UCSORGRIGHT
 10
0.0
 20
0.0
 30
0.0
  9
$UCSORGFRONT
 10
0.0
 20
0.0
 30
0.0
  9
$UCSORGBACK
 10
0.0
 20
0.0
 30
0.0
  9
$PUCSBASE
  2

  9
$PUCSNAME
  2

  9
$PUCSORG
 10
0.0
 20
0.0
 30
0.0
  9
$PUCSXDIR
 10
1.0
 20
0.0
 30
0.0
  9
$PUCSYDIR
 10
0.0
 20
1.0
 30
0.0
  9
$PUCSORTHOREF
  2

  9
$PUCSORTHOVIEW
 70
     0
  9
$PUCSORGTOP
 10
0.0
 20
0.0
 30
0.0
  9
$PUCSORGBOTTOM
 10
0.0
 20
0.0
 30
0.0
  9
$PUCSORGLEFT
 10
0.0
 20
0.0
 30
0.0
  9
$PUCSORGRIGHT
 10
0.0
 20
0.0
 30
0.0
  9
$PUCSORGFRONT
 10
0.0
 20
0.0
 30
0.0
  9
$PUCSORGBACK
 10
0.0
 20
0.0
 30
0.0
  9
$USERI1
 70
     0
  9
$USERI2
 70
     0
  9
$USERI3
 70
     0
  9
$USERI4
 70
     0
  9
$USERI5
 70
     0
  9
$USERR1
 40
0.0
  9
$USERR2
 40
0.0
  9
$USERR3
 40
0.0
  9
$USERR4
 40
0.0
  9
$USERR5
 40
0.0
  9
$WORLDVIEW
 70
     1
  9
$SHADEDGE
 70
     3
  9
$SHADEDIF
 70
    70
  9
$TILEMODE
 70
     1
  9
$MAXACTVP
 70
    64
  9
$PINSBASE
 10
0.0
 20
0.0
 30
0.0
  9
$PLIMCHECK
 70
     0
  9
$PEXTMIN
 10
1.0000000000E+20
 20
1.0000000000E+20
 30
1.0000000000E+20
  9
$PEXTMAX
 10
-1.0000000000E+20
 20
-1.0000000000E+20
 30
-1.0000000000E+20
  9
$PLIMMIN
 10
0.0
 20
0.0
  9
$PLIMMAX
 10
420.0
 20
297.0
  9
$UNITMODE
 70
     0
  9
$VISRETAIN
 70
     1
  9
$PLINEGEN
 70
     0
  9
$PSLTSCALE
 70
     1
  9
$TREEDEPTH
 70
  3020
  9
$CMLSTYLE
  2
Standard
  9
$CMLJUST
 70
     0
  9
$CMLSCALE
 40
20.0
  9
$PROXYGRAPHICS
 70
     1
  9
$MEASUREMENT
 70
     1
  9
$CELWEIGHT
370
    -1
  9
$ENDCAPS
280
     0
  9
$JOINSTYLE
280
     0
  9
$LWDISPLAY
290
     1
  9
$INSUNITS
 70
     4
  9
$HYPERLINKBASE
  1

  9
$STYLESHEET
  1

  9
$XEDIT
290
     1
  9
$CEPSNTYPE
380
     0
  9
$PSTYLEMODE
290
     1
  9
$FINGERPRINTGUID
  2
{80D3A091-AA3F-40D9-AAEF-D925EC13DC43}
  9
$VERSIONGUID
  2
{FAEB1C32-E019-11D5-929B-00C0DF256EC4}
  9
$EXTNAMES
290
     1
  9
$PSVPSCALE
 40
0.0
  9
$OLESTARTUP
290
     0
  0
ENDSEC
  0
SECTION
  2
CLASSES
  0
CLASS
  1
ACDBDICTIONARYWDFLT
  2
AcDbDictionaryWithDefault
  3
ObjectDBX Classes
 90
        0
280
     0
281
     0
  0
CLASS
  1
VISUALSTYLE
  2
AcDbVisualStyle
  3
ObjectDBX Classes
 90
     4095
280
     0
281
     0
  0
CLASS
  1
MATERIAL
  2
AcDbMaterial
  3
ObjectDBX Classes
 90
     1153
280
     0
281
     0
  0
CLASS
  1
SCALE
  2
AcDbScale
  3
ObjectDBX Classes
 90
     1153
280
     0
281
     0
  0
CLASS
  1
TABLESTYLE
  2
AcDbTableStyle
  3
ObjectDBX Classes
 90
     4095
280
     0
281
     0
  0
CLASS
  1
MLEADERSTYLE
  2
AcDbMLeaderStyle
  3
ACDB_MLEADERSTYLE_CLASS
 90
     4095
280
     0
281
     0
  0
CLASS
  1
SUN
  2
AcDbSun
  3
SCENEOE
 90
     1153
280
     0
281
     0
  0
CLASS
  1
ACDBPLACEHOLDER
  2
AcDbPlaceHolder
  3
ObjectDBX Classes
 90
        0
280
     0
281
     0
  0
CLASS
  1
LAYOUT
  2
AcDbLayout
  3
ObjectDBX Classes
 90
        0
280
     0
281
     0
  0
ENDSEC
  0
SECTION
  2
TABLES
  0
TABLE
  2
VPORT
  5
8
330
0
100
AcDbSymbolTable
 70
     1
  0
VPORT
  5
29
330
8
100
AcDbSymbolTableRecord
100
AcDbViewportTableRecord
  2
*Active
 70
     0
 10
0.0
 20
0.0
 11
1.0
 21
1.0
 12
0.0
 22
0.0
 13
0.0
 23
0.0
 14
10.0
 24
10.0
 15
10.0
 25
10.0
 16
0.0
 26
0.0
 36
1.0
 17
0.0
 27
0.0
 37
0.0
 40
110.0899390742
 41
1.0006363972
 42
50.0
 43
0.0
 44
0.0
 50
0.0
 51
0.0
 71
     0
 72
   100
 73
     1
 74
     3
 75
     0
 76
     0
 77
     0
 78
     0
281
     0
 65
     1
110
0.0
120
0.0
130
0.0
111
1.0
121
0.0
131
0.0
112
0.0
122
1.0
132
0.0
 79
     0
146
0.0
  0
ENDTAB
  0
TABLE
  2
LTYPE
  5
5
330
0
100
AcDbSymbolTable
 70
     6
  0
LTYPE
  5
14
330
5
100
AcDbSymbolTableRecord
100
AcDbLinetypeTableRecord
  2
ByBlock
 70
     0
  3

 72
    65
 73
     0
 40
0.0
  0
LTYPE
  5
15
330
5
100
AcDbSymbolTableRecord
100
AcDbLinetypeTableRecord
  2
ByLayer
 70
     0
  3

 72
    65
 73
     0
 40
0.0
  0
LTYPE
  5
16
330
5
100
AcDbSymbolTableRecord
100
AcDbLinetypeTableRecord
  2
Continuous
 70
     0
  3
Solid line
 72
    65
 73
     0
 40
0.0
  0
LTYPE
  5
6E
330
5
100
AcDbSymbolTableRecord
100
AcDbLinetypeTableRecord
  2
HIDDEN
 70
     0
  3
Hidden __ __ __ __ __ __ __ __ __ __ __ __ __ __
 72
    65
 73
     2
 40
1.905
 49
1.27
 74
     0
 49
-0.635
 74
     0
  0
LTYPE
  5
6F
330
5
100
AcDbSymbolTableRecord
100
AcDbLinetypeTableRecord
  2
PHANTOM
 70
     0
  3
Phantom ______  __  __  ______  __  __  ______
 72
    65
 73
     6
 40
12.7
 49
6.35
 74
     0
 49
-1.27
 74
     0
 49
1.27
 74
     0
 49
-1.27
 74
     0
 49
1.27
 74
     0
 49
-1.27
 74
     0
  0
LTYPE
  5
70
330
5
100
AcDbSymbolTableRecord
100
AcDbLinetypeTableRecord
  2
CENTER
 70
     0
  3
Center ____ _ ____ _ ____ _ ____ _ ____ _ ____
 72
    65
 73
     4
 40
10.16
 49
6.35
 74
     0
 49
-1.27
 74
     0
 49
1.27
 74
     0
 49
-1.27
 74
     0
  0
LTYPE
  5
71
330
5
100
AcDbSymbolTableRecord
100
AcDbLinetypeTableRecord
  2
CENTERX2
 70
     0
  3
Center (2x) ________  __  ________  __  _____
 72
    65
 73
     4
 40
20.32
 49
12.7
 74
     0
 49
-2.54
 74
     0
 49
2.54
 74
     0
 49
-2.54
 74
     0
  0
LTYPE
  5
72
330
5
100
AcDbSymbolTableRecord
100
AcDbLinetypeTableRecord
  2
DOT2
 70
     0
  3
Dot (.5x) ........................................
 72
    65
 73
     2
 40
0.635
 49
0.0
 74
     0
 49
-0.635
 74
     0
  0
ENDTAB
  0
TABLE
  2
LAYER
  5
2
330
0
100
AcDbSymbolTable
 70
     1
  0
LAYER
  5
10
330
2
100
AcDbSymbolTableRecord
100
AcDbLayerTableRecord
  2
0
 70
     0
 62
     7
  6
Continuous
370
    -3
390
F
  0
ENDTAB
  0
TABLE
  2
STYLE
  5
3
330
0
100
AcDbSymbolTable
 70
     1
  0
STYLE
  5
11
330
3
100
AcDbSymbolTableRecord
100
AcDbTextStyleTableRecord
  2
Standard
 70
     0
 40
0.0
 41
1.0
 50
0.0
 71
     0
 42
6.35
  3
txt
  4

  0
ENDTAB
  0
TABLE
  2
VIEW
  5
6
330
0
100
AcDbSymbolTable
 70
     0
  0
ENDTAB
  0
TABLE
  2
UCS
  5
7
330
0
100
AcDbSymbolTable
 70
     0
  0
ENDTAB
  0
TABLE
  2
APPID
  5
9
330
0
100
AcDbSymbolTable
 70
     1
  0
APPID
  5
12
330
9
100
AcDbSymbolTableRecord
100
AcDbRegAppTableRecord
  2
ACAD
 70
     0
  0
ENDTAB
  0
TABLE
  2
DIMSTYLE
  5
A
330
0
100
AcDbSymbolTable
 70
     1
100
AcDbDimStyleTable
  0
DIMSTYLE
105
27
330
A
100
AcDbSymbolTableRecord
100
AcDbDimStyleTableRecord
  2
ISO-25
 70
     0
 41
2.5
 42
0.625
 43
3.75
 44
1.25
 73
     0
 74
     0
 77
     1
 78
     8
140
2.5
141
2.5
143
0.0393700787
147
0.625
171
     3
172
     1
178
     0
271
     2
272
     2
274
     3
278
    44
283
     0
284
     8
340
11
  0
ENDTAB
  0
TABLE
  2
BLOCK_RECORD
  5
1
330
0
100
AcDbSymbolTable
 70
     1
  0
BLOCK_RECORD
  5
1F
330
1
100
AcDbSymbolTableRecord
100
AcDbBlockTableRecord
  2
*Model_Space
340
22
  0
BLOCK_RECORD
  5
1B
330
1
100
AcDbSymbolTableRecord
100
AcDbBlockTableRecord
  2
*Paper_Space
340
1E
  0
BLOCK_RECORD
  5
23
330
1
100
AcDbSymbolTableRecord
100
AcDbBlockTableRecord
  2
*Paper_Space0
340
26
  0
ENDTAB
  0
ENDSEC
  0
SECTION
  2
BLOCKS
  0
BLOCK
  5
20
330
1F
100
AcDbEntity
  8
0
100
AcDbBlockBegin
  2
*Model_Space
 70
     0
 10
0.0
 20
0.0
 30
0.0
  3
*Model_Space
  1

  0
ENDBLK
  5
21
330
1F
100
AcDbEntity
  8
0
100
AcDbBlockEnd
  0
BLOCK
  5
1C
330
1B
100
AcDbEntity
 67
     1
  8
0
100
AcDbBlockBegin
  2
*Paper_Space
 70
     0
 10
0.0
 20
0.0
 30
0.0
  3
*Paper_Space
  1

  0
ENDBLK
  5
1D
330
1B
100
AcDbEntity
 67
     1
  8
0
100
AcDbBlockEnd
  0
BLOCK
  5
24
330
23
100
AcDbEntity
  8
0
100
AcDbBlockBegin
  2
*Paper_Space0
 70
     0
 10
0.0
 20
0.0
 30
0.0
  3
*Paper_Space0
  1

  0
ENDBLK
  5
25
330
23
100
AcDbEntity
  8
0
100
AcDbBlockEnd
  0
ENDSEC
  0
SECTION
  2
ENTITIES
  0
LINE
  5
18D
330
1F
100
AcDbEntity
  8
0
  6
Continuous
 62
     7
370
    25
100
AcDbLine
 10
-1.5
 20
2.0
 30
0.0
 11
1.5
 21
2.0
 31
0.0
  0
ARC
  5
18E
330
1F
100
AcDbEntity
  8
0
  6
Continuous
 62
     7
370
    25
100
AcDbCircle
 10
0.0000000004
 20
0.0
 30
0.0
 40
54.00000000041229
100
AcDbArc
 50
179.472127802
 51
180.527872198
  0
ARC
  5
18F
330
1F
100
AcDbEntity
  8
0
  6
Continuous
 62
     7
370
    25
100
AcDbCircle
 10
-45.6269202959
 20
-18.7620399529
 30
0.0
 40
21.00000000000063
100
AcDbArc
 50
103.6912004245
 51
113.4912459081
  0
ARC
  5
190
330
1F
100
AcDbEntity
  8
0
  6
Continuous
 62
     7
370
    25
100
AcDbCircle
 10
-0.0000000001
 20
0.0
 30
0.0
 40
50.62399999987519
100
AcDbArc
 50
176.7150260004
 51
178.1421168568
  0
ARC
  5
191
330
1F
100
AcDbEntity
  8
0
  6
Continuous
 62
     7
370
    25
100
AcDbCircle
 10
-43.7614234339
 20
22.7764750987
 30
0.0
 40
21.00000000000121
100
AcDbArc
 50
241.3658969491
 51
251.1659424326
  0
ARC
  5
192
330
1F
100
AcDbEntity
  8
0
  6
Continuous
 62
     7
370
    25
100
AcDbCircle
 10
0.0000000004
 20
0.0
 30
0.0
 40
54.00000000040158
100
AcDbArc
 50
174.3292706591
 51
175.3850150552
  0
ARC
  5
193
330
1F
100
AcDbEntity
  8
0
  6
Continuous
 62
     7
370
    25
100
AcDbCircle
 10
-47.1250560239
 20
-14.5965438933
 30
0.0
 40
21.00000000000113
100
AcDbArc
 50
98.5483432816
 51
108.3483887652
  0
ARC
  5
194
330
1F
100
AcDbEntity
  8
0
  6
Continuous
 62
     7
370
    25
100
AcDbCircle
 10
-0.0000000002
 20
0.0
 30
0.0
 40
50.62399999975953
100
AcDbArc
 50
171.5721688575
 51
172.9992597139
  0
ARC
  5
195
330
1F
100
AcDbEntity
  8
0
  6
Continuous
 62
     7
370
    25
100
AcDbCircle
 10
-41.5435853217
 20
26.6075274594
 30
0.0
 40
21.00000000000104
100
AcDbArc
 50
236.2230398062
 51
246.0230852898
  0
ARC
  5
196
330
1F
100
AcDbEntity
  8
0
  6
Continuous
 62
     7
370
    25
100
AcDbCircle
 10
0.0000000004
 20
-0.0000000001
 30
0.0
 40
54.00000000036053
100
AcDbArc
 50
169.1864135162
 51
170.2421579123
  0
ARC
  5
197
330
1F
100
AcDbEntity
  8
0
  6
Continuous
 62
     7
370
    25
100
AcDbCircle
 10
-48.2437685098
 20
-10.3135250448
 30
0.0
 40
21.00000000000084
100
AcDbArc
 50
93.4054861388
 51
103.2055316224
  0
ARC
  5
198
330
1F
100
AcDbEntity
  8
0
  6
Continuous
 62
     7
370
    25
100
AcDbCircle
 10
-0.0000000002
 20
0.0
 30
0.0
 40
50.62399999984584
100
AcDbArc
 50
166.4293117147
 51
167.8564025711
  0
ARC
  5
199
330
1F
100
AcDbEntity
  8
0
  6
Continuous
 62
     7
370
    25
100
AcDbCircle
 10
-38.9912626877
 20
30.2243516539
 30
0.0
 40
21.00000000000166
100
AcDbArc
 50
231.0801826633
 51
240.8802281469
  0
ARC
  5
19A
330
1F
100
AcDbEntity
  8
0
  6
Continuous
 62
     7
370
    25
100
AcDbCircle
 10
0.0000000005
 20
-0.0000000001
 30
0.0
 40
54.0000000005427
100
AcDbArc
 50
164.0435563734
 51
165.0993007695
  0
ARC
  5
19B
330
1F
100
AcDbEntity
  8
0
  6
Continuous
 62
     7
370
    25
100
AcDbCircle
 10
-48.9740505386
 20
-5.947467757
 30
0.0
 40
21.00000000000175
100
AcDbArc
 50
88.2626289959
 51
98.0626744795
  0
ARC
  5
19C
330
1F
100
AcDbEntity
  8
0
  6
Continuous
 62
     7
370
    25
100
AcDbCircle
 10
-0.0000000001
 20
0.0
 30
0.0
 40
50.62399999986496
100
AcDbArc
 50
161.2864545718
 51
162.7135454282
  0
ARC
  5
19D
330
1F
100
AcDbEntity
  8
0
  6
Continuous
 62
     7
370
    25
100
AcDbCircle
 10
-36.1250053331
 20
33.5978271406
 30
0.0
 40
21.00000000000137
100
AcDbArc
 50
225.9373255205
 51
235.7373710041
  0
ARC
  5
19E
330
1F
100
AcDbEntity
  8
0
  6
Continuous
 62
     7
370
    25
100
AcDbCircle
 10
0.0000000003
 20
-0.0000000001
 30
0.0
 40
54.00000000027893
100
AcDbArc
 50
158.9006992305
 51
159.9564436266
  0
ARC
  5
19F
330
1F
100
AcDbEntity
  8
0
  6
Continuous
 62
     7
370
    25
100
AcDbCircle
 10
-49.3100223088
 20
-1.5335249559
 30
0.0
 40
21.00000000000202
100
AcDbArc
 50
83.1197718531
 51
92.9198173367
  0
ARC
  5
1A0
330
1F
100
AcDbEntity
  8
0
  6
Continuous
 62
     7
370
    25
100
AcDbCircle
 10
-0.0000000002
 20
0.0000000001
 30
0.0
 40
50.62399999982313
100
AcDbArc
 50
156.1435974289
 51
157.5706882853
  0
ARC
  5
1A1
330
1F
100
AcDbEntity
  8
0
  6
Continuous
 62
     7
370
    25
100
AcDbCircle
 10
-32.9678906766
 20
36.7007926783
 30
0.0
 40
21.00000000000277
100
AcDbArc
 50
220.7944683776
 51
230.5945138612
  0
ARC
  5
1A2
330
1F
100
AcDbEntity
  8
0
  6
Continuous
 62
     7
370
    25
100
AcDbCircle
 10
0.0000000004
 20
-0.0000000002
 30
0.0
 40
54.00000000041385
100
AcDbArc
 50
153.7578420877
 51
154.8135864838
  0
ARC
  5
1A3
330
1F
100
AcDbEntity
  8
0
  6
Continuous
 62
     7
370
    25
100
AcDbCircle
 10
-49.2489787731
 20
2.8927648865
 30
0.0
 40
21.00000000000064
100
AcDbArc
 50
77.9769147102
 51
87.7769601938
  0
ARC
  5
1A4
330
1F
100
AcDbEntity
  8
0
  6
Continuous
 62
     7
370
    25
100
AcDbCircle
 10
-0.0000000001
 20
0.0000000001
 30
0.0
 40
50.62399999983647
100
AcDbArc
 50
151.0007402861
 51
152.4278311425
  0
ARC
  5
1A5
330
1F
100
AcDbEntity
  8
0
  6
Continuous
 62
     7
370
    25
100
AcDbCircle
 10
-29.5453379493
 20
39.5082650131
 30
0.0
 40
21.00000000000048
100
AcDbArc
 50
215.6516112348
 51
225.4516567184
  0
ARC
  5
1A6
330
1F
100
AcDbEntity
  8
0
  6
Continuous
 62
     7
370
    25
100
AcDbCircle
 10
0.0000000002
 20
-0.0000000001
 30
0.0
 40
54.00000000027693
100
AcDbArc
 50
148.6149849448
 51
149.6707293409
  0
ARC
  5
1A7
330
1F
100
AcDbEntity
  8
0
  6
Continuous
 62
     7
370
    25
100
AcDbCircle
 10
-48.7914114183
 20
7.295763887
 30
0.0
 40
21.00000000000143
100
AcDbArc
 50
72.8340575674
 51
82.6341030509
  0
ARC
  5
1A8
330
1F
100
AcDbEntity
  8
0
  6
Continuous
 62
     7
370
    25
100
AcDbCircle
 10
-0.0000000002
 20
0.0000000001
 30
0.0
 40
50.62399999977727
100
AcDbArc
 50
145.8578831432
 51
147.2849739996
  0
ARC
  5
1A9
330
1F
100
AcDbEntity
  8
0
  6
Continuous
 62
     7
370
    25
100
AcDbCircle
 10
-25.8849035331
 20
41.9976400285
 30
0.0
 40
21.00000000000156
100
AcDbArc
 50
210.5087540919
 51
220.3087995755
  0
ARC
  5
1AA
330
1F
100
AcDbEntity
  8
0
  6
Continuous
 62
     7
370
    25
100
AcDbCircle
 10
0.0000000004
 20
-0.0000000003
 30
0.0
 40
54.00000000044984
100
AcDbArc
 50
143.472127802
 51
144.527872198
  0
ARC
  5
1AB
330
1F
100
AcDbEntity
  8
0
  6
Continuous
 62
     7
370
    25
100
AcDbCircle
 10
-47.9410043076
 20
11.6400216864
 30
0.0
 40
21.00000000000191
100
AcDbArc
 50
67.6912004245
 51
77.4912459081
  0
ARC
  5
1AC
330
1F
100
AcDbEntity
  8
0
  6
Continuous
 62
     7
370
    25
100
AcDbCircle
 10
-0.0000000002
 20
0.0000000002
 30
0.0
 40
50.62399999975641
100
AcDbArc
 50
140.7150260004
 51
142.1421168568
  0
ARC
  5
1AD
330
1F
100
AcDbEntity
  8
0
  6
Continuous
 62
     7
370
    25
100
AcDbCircle
 10
-22.0160590938
 20
44.1488747406
 30
0.0
 40
21.00000000000237
100
AcDbArc
 50
205.3658969491
 51
215.1659424326
  0
ARC
  5
1AE
330
1F
100
AcDbEntity
  8
0
  6
Continuous
 62
     7
370
    25
100
AcDbCircle
 10
0.0000000004
 20
-0.0000000003
 30
0.0
 40
54.00000000050444
100
AcDbArc
 50
138.3292706591
 51
139.3850150552
  0
ARC
  5
1AF
330
1F
100
AcDbEntity
  8
0
  6
Continuous
 62
     7
370
    25
100
AcDbCircle
 10
-46.7046044191
 20
15.8905608755
 30
0.0
 40
20.9999999999992
100
AcDbArc
 50
62.5483432816
 51
72.3483887652
  0
ARC
  5
1B0
330
1F
100
AcDbEntity
  8
0
  6
Continuous
 62
     7
370
    25
100
AcDbCircle
 10
-0.0000000001
 20
0.0000000001
 30
0.0
 40
50.62399999979731
100
AcDbArc
 50
135.5721688575
 51
136.9992597139
  0
ARC
  5
1B1
330
1F
100
AcDbEntity
  8
0
  6
Continuous
 62
     7
370
    25
100
AcDbCircle
 10
-17.9699542919
 20
45.9446486724
 30
0.0
 40
21.00000000000258
100
AcDbArc
 50
200.2230398062
 51
210.0230852898
  0
ARC
  5
1B2
330
1F
100
AcDbEntity
  8
0
  6
Continuous
 62
     7
370
    25
100
AcDbCircle
 10
0.0000000003
 20
-0.0000000003
 30
0.0
 40
54.00000000040385
100
AcDbArc
 50
133.1864135162
 51
134.2421579123
  0
ARC
  5
1B3
330
1F
100
AcDbEntity
  8
0
  6
Continuous
 62
     7
370
    25
100
AcDbCircle
 10
-45.0921665176
 20
20.0131586119
 30
0.0
 40
21.0000000000021
100
AcDbArc
 50
57.4054861388
 51
67.2055316224
  0
ARC
  5
1B4
330
1F
100
AcDbEntity
  8
0
  6
Continuous
 62
     7
370
    25
100
AcDbCircle
 10
-0.0000000001
 20
0.0000000001
 30
0.0
 40
50.6239999998568
100
AcDbArc
 50
130.4293117147
 51
131.8564025711
  0
ARC
  5
1B5
330
1F
100
AcDbEntity
  8
0
  6
Continuous
 62
     7
370
    25
100
AcDbCircle
 10
-13.7791659842
 20
47.3705033081
 30
0.0
 40
20.99999999999995
100
AcDbArc
 50
195.0801826633
 51
204.8802281469
  0
ARC
  5
1B6
330
1F
100
AcDbEntity
  8
0
  6
Continuous
 62
     7
370
    25
100
AcDbCircle
 10
0.0000000003
 20
-0.0000000004
 30
0.0
 40
54.00000000045003
100
AcDbArc
 50
128.0435563734
 51
129.0993007695
  0
ARC
  5
1B7
330
1F
100
AcDbEntity
  8
0
  6
Continuous
 62
     7
370
    25
100
AcDbCircle
 10
-43.1166730052
 20
23.9746221627
 30
0.0
 40
21.00000000000191
100
AcDbArc
 50
52.2626289959
 51
62.0626744795
  0
ARC
  5
1B8
330
1F
100
AcDbEntity
  8
0
  6
Continuous
 62
     7
370
    25
100
AcDbCircle
 10
-0.0000000001
 20
0.0000000001
 30
0.0
 40
50.62399999981766
100
AcDbArc
 50
125.2864545718
 51
126.7135454282
  0
ARC
  5
1B9
330
1F
100
AcDbEntity
  8
0
  6
Continuous
 62
     7
370
    25
100
AcDbCircle
 10
-9.477435934
 20
48.4149585045
 30
0.0
 40
21.00000000000238
100
AcDbArc
 50
189.9373255205
 51
199.7373710041
  0
ARC
  5
1BA
330
1F
100
AcDbEntity
  8
0
  6
Continuous
 62
     7
370
    25
100
AcDbCircle
 10
0.0000000002
 20
-0.0000000003
 30
0.0
 40
54.00000000035411
100
AcDbArc
 50
122.9006992305
 51
123.9564436266
  0
ARC
  5
1BB
330
1F
100
AcDbEntity
  8
0
  6
Continuous
 62
     7
370
    25
100
AcDbCircle
 10
-40.7940293939
 20
27.7430561527
 30
0.0
 40
21.00000000000314
100
AcDbArc
 50
47.1197718531
 51
56.9198173367
  0
ARC
  5
1BC
330
1F
100
AcDbEntity
  8
0
  6
Continuous
 62
     7
370
    25
100
AcDbCircle
 10
-0.0000000001
 20
0.0000000002
 30
0.0
 40
50.62399999981513
100
AcDbArc
 50
120.1435974289
 51
121.5706882853
  0
ARC
  5
1BD
330
1F
100
AcDbEntity
  8
0
  6
Continuous
 62
     7
370
    25
100
AcDbCircle
 10
-5.0993991423
 20
49.0696049227
 30
0.0
 40
21.0000000000026
100
AcDbArc
 50
184.7944683776
 51
194.5945138612
  0
ARC
  5
1BE
330
1F
100
AcDbEntity
  8
0
  6
Continuous
 62
     7
370
    25
100
AcDbCircle
 10
0.0000000003
 20
-0.0000000005
 30
0.0
 40
54.00000000058741
100
AcDbArc
 50
117.7578420877
 51
118.8135864838
  0
ARC
  5
1BF
330
1F
100
AcDbEntity
  8
0
  6
Continuous
 62
     7
370
    25
100
AcDbCircle
 10
-38.1429362444
 20
31.2881193672
 30
0.0
 40
21.00000000000167
100
AcDbArc
 50
41.9769147102
 51
51.7769601938
  0
ARC
  5
1C0
330
1F
100
AcDbEntity
  8
0
  6
Continuous
 62
     7
370
    25
100
AcDbCircle
 10
-0.0000000001
 20
0.0000000001
 30
0.0
 40
50.62399999985184
100
AcDbArc
 50
115.0007402861
 51
116.4278311425
  0
ARC
  5
1C1
330
1F
100
AcDbEntity
  8
0
  6
Continuous
 62
     7
370
    25
100
AcDbCircle
 10
-0.6803049872
 20
49.3291717344
 30
0.0
 40
21.0000000000017
100
AcDbArc
 50
179.6516112348
 51
189.4516567184
  0
ARC
  5
1C2
330
1F
100
AcDbEntity
  8
0
  6
Continuous
 62
     7
370
    25
100
AcDbCircle
 10
0.0000000002
 20
-0.0000000004
 30
0.0
 40
54.00000000038943
100
AcDbArc
 50
112.6149849448
 51
113.6707293409
  0
ARC
  5
1C3
330
1F
100
AcDbEntity
  8
0
  6
Continuous
 62
     7
370
    25
100
AcDbCircle
 10
-35.1847385999
 20
34.5812690417
 30
0.0
 40
20.99999999999864
100
AcDbArc
 50
36.8340575674
 51
46.6341030509
  0
ARC
  5
1C4
330
1F
100
AcDbEntity
  8
0
  6
Continuous
 62
     7
370
    25
100
AcDbCircle
 10
-0.0000000001
 20
0.0000000001
 30
0.0
 40
50.62399999984001
100
AcDbArc
 50
109.8578831432
 51
111.2849739996
  0
ARC
  5
1C5
330
1F
100
AcDbEntity
  8
0
  6
Continuous
 62
     7
370
    25
100
AcDbCircle
 10
3.7442665838
 20
49.1915690605
 30
0.0
 40
21.0000000000015
100
AcDbArc
 50
174.5087540919
 51
184.3087995755
  0
ARC
  5
1C6
330
1F
100
AcDbEntity
  8
0
  6
Continuous
 62
     7
370
    25
100
AcDbCircle
 10
0.0000000001
 20
-0.0000000004
 30
0.0
 40
54.0000000003925
100
AcDbArc
 50
107.472127802
 51
108.527872198
  0
ARC
  5
1C7
330
1F
100
AcDbEntity
  8
0
  6
Continuous
 62
     7
370
    25
100
AcDbCircle
 10
-31.9432541286
 20
37.5959906713
 30
0.0
 40
21.00000000000123
100
AcDbArc
 50
31.6912004245
 51
41.4912459081
  0
ARC
  5
1C8
330
1F
100
AcDbEntity
  8
0
  6
Continuous
 62
     7
370
    25
100
AcDbCircle
 10
0.0
 20
0.0000000001
 30
0.0
 40
50.62399999985111
100
AcDbArc
 50
104.7150260004
 51
106.1421168568
  0
ARC
  5
1C9
330
1F
100
AcDbEntity
  8
0
  6
Continuous
 62
     7
370
    25
100
AcDbCircle
 10
8.1386915217
 20
48.6579047966
 30
0.0
 40
21.00000000000067
100
AcDbArc
 50
169.3658969491
 51
179.1659424326
  0
ARC
  5
1CA
330
1F
100
AcDbEntity
  8
0
  6
Continuous
 62
     7
370
    25
100
AcDbCircle
 10
0.0000000001
 20
-0.0000000003
 30
0.0
 40
54.00000000033339
100
AcDbArc
 50
102.3292706591
 51
103.3850150552
  0
ARC
  5
1CB
330
1F
100
AcDbEntity
  8
0
  6
Continuous
 62
     7
370
    25
100
AcDbCircle
 10
-28.4445813573
 20
40.3080114901
 30
0.0
 40
21.0000000000005
100
AcDbArc
 50
26.5483432816
 51
36.3483887652
  0
ARC
  5
1CC
330
1F
100
AcDbEntity
  8
0
  6
Continuous
 62
     7
370
    25
100
AcDbCircle
 10
0.0
 20
0.0000000001
 30
0.0
 40
50.62399999985877
100
AcDbArc
 50
99.5721688575
 51
100.9992597139
  0
ARC
  5
1CD
330
1F
100
AcDbEntity
  8
0
  6
Continuous
 62
     7
370
    25
100
AcDbCircle
 10
12.4675885011
 20
47.7324756937
 30
0.0
 40
21.00000000000087
100
AcDbArc
 50
164.2230398062
 51
174.0230852898
  0
ARC
  5
1CE
330
1F
100
AcDbEntity
  8
0
  6
Continuous
 62
     7
370
    25
100
AcDbCircle
 10
0.0000000001
 20
-0.0000000004
 30
0.0
 40
54.00000000039725
100
AcDbArc
 50
97.1864135162
 51
98.2421579123
  0
ARC
  5
1CF
330
1F
100
AcDbEntity
  8
0
  6
Continuous
 62
     7
370
    25
100
AcDbCircle
 10
-24.7168895421
 20
42.6954959011
 30
0.0
 40
21.00000000000159
100
AcDbArc
 50
21.4054861388
 51
31.2055316224
  0
ARC
  5
1D0
330
1F
100
AcDbEntity
  8
0
  6
Continuous
 62
     7
370
    25
100
AcDbCircle
 10
0.0
 20
0.0000000002
 30
0.0
 40
50.6239999997756
100
AcDbArc
 50
94.4293117147
 51
95.8564025711
  0
ARC
  5
1D1
330
1F
100
AcDbEntity
  8
0
  6
Continuous
 62
     7
370
    25
100
AcDbCircle
 10
16.6961037886
 20
46.4227327627
 30
0.0
 40
21.00000000000148
100
AcDbArc
 50
159.0801826633
 51
168.8802281469
  0
ARC
  5
1D2
330
1F
100
AcDbEntity
  8
0
  6
Continuous
 62
     7
370
    25
100
AcDbCircle
 10
0.0
 20
-0.0000000004
 30
0.0
 40
54.00000000040049
100
AcDbArc
 50
92.0435563734
 51
93.0993007695
  0
ARC
  5
1D3
330
1F
100
AcDbEntity
  8
0
  6
Continuous
 62
     7
370
    25
100
AcDbCircle
 10
-20.7901918656
 20
44.7392212837
 30
0.0
 40
21.00000000000093
100
AcDbArc
 50
16.2626289959
 51
26.0626744795
  0
ARC
  5
1D4
330
1F
100
AcDbEntity
  8
0
  6
Continuous
 62
     7
370
    25
100
AcDbCircle
 10
0.0
 20
0.0000000001
 30
0.0
 40
50.62399999987542
100
AcDbArc
 50
89.2864545718
 51
90.7135454282
  0
ARC
  5
1D5
330
1F
100
AcDbEntity
  8
0
  6
Continuous
 62
     7
370
    25
100
AcDbCircle
 10
20.7901918656
 20
44.7392212837
 30
0.0
 40
21.00000000000134
100
AcDbArc
 50
153.9373255205
 51
163.7373710041
  0
ARC
  5
1D6
330
1F
100
AcDbEntity
  8
0
  6
Continuous
 62
     7
370
    25
100
AcDbCircle
 10
0.0
 20
-0.0000000003
 30
0.0
 40
54.00000000034475
100
AcDbArc
 50
86.9006992305
 51
87.9564436266
  0
ARC
  5
1D7
330
1F
100
AcDbEntity
  8
0
  6
Continuous
 62
     7
370
    25
100
AcDbCircle
 10
-16.6961037886
 20
46.4227327627
 30
0.0
 40
21.00000000000018
100
AcDbArc
 50
11.1197718531
 51
20.9198173367
  0
ARC
  5
1D8
330
1F
100
AcDbEntity
  8
0
  6
Continuous
 62
     7
370
    25
100
AcDbCircle
 10
0.0
 20
0.0000000001
 30
0.0
 40
50.62399999985669
100
AcDbArc
 50
84.1435974289
 51
85.5706882853
  0
ARC
  5
1D9
330
1F
100
AcDbEntity
  8
0
  6
Continuous
 62
     7
370
    25
100
AcDbCircle
 10
24.7168895421
 20
42.6954959011
 30
0.0
 40
21.00000000000194
100
AcDbArc
 50
148.7944683776
 51
158.5945138612
  0
ARC
  5
1DA
330
1F
100
AcDbEntity
  8
0
  6
Continuous
 62
     7
370
    25
100
AcDbCircle
 10
-0.0000000001
 20
-0.0000000004
 30
0.0
 40
54.00000000042439
100
AcDbArc
 50
81.7578420877
 51
82.8135864838
  0
ARC
  5
1DB
330
1F
100
AcDbEntity
  8
0
  6
Continuous
 62
     7
370
    25
100
AcDbCircle
 10
-12.4675885011
 20
47.7324756937
 30
0.0
 40
21.00000000000077
100
AcDbArc
 50
5.9769147102
 51
15.7769601938
  0
ARC
  5
1DC
330
1F
100
AcDbEntity
  8
0
  6
Continuous
 62
     7
370
    25
100
AcDbCircle
 10
0.0
 20
0.0000000002
 30
0.0
 40
50.62399999984154
100
AcDbArc
 50
79.0007402861
 51
80.4278311425
  0
ARC
  5
1DD
330
1F
100
AcDbEntity
  8
0
  6
Continuous
 62
     7
370
    25
100
AcDbCircle
 10
28.4445813573
 20
40.3080114901
 30
0.0
 40
21.00000000000289
100
AcDbArc
 50
143.6516112348
 51
153.4516567184
  0
ARC
  5
1DE
330
1F
100
AcDbEntity
  8
0
  6
Continuous
 62
     7
370
    25
100
AcDbCircle
 10
-0.0000000001
 20
-0.0000000003
 30
0.0
 40
54.00000000034937
100
AcDbArc
 50
76.6149849448
 51
77.6707293409
  0
ARC
  5
1DF
330
1F
100
AcDbEntity
  8
0
  6
Continuous
 62
     7
370
    25
100
AcDbCircle
 10
-8.1386915217
 20
48.6579047966
 30
0.0
 40
21.00000000000151
100
AcDbArc
 50
0.8340575674
 51
10.6341030509
  0
ARC
  5
1E0
330
1F
100
AcDbEntity
  8
0
  6
Continuous
 62
     7
370
    25
100
AcDbCircle
 10
0.0000000001
 20
0.0000000002
 30
0.0
 40
50.62399999980601
100
AcDbArc
 50
73.8578831432
 51
75.2849739996
  0
ARC
  5
1E1
330
1F
100
AcDbEntity
  8
0
  6
Continuous
 62
     7
370
    25
100
AcDbCircle
 10
31.9432541286
 20
37.5959906713
 30
0.0
 40
21.00000000000033
100
AcDbArc
 50
138.5087540919
 51
148.3087995755
  0
ARC
  5
1E2
330
1F
100
AcDbEntity
  8
0
  6
Continuous
 62
     7
370
    25
100
AcDbCircle
 10
-0.0000000001
 20
-0.0000000004
 30
0.0
 40
54.00000000040104
100
AcDbArc
 50
71.472127802
 51
72.527872198
  0
ARC
  5
1E3
330
1F
100
AcDbEntity
  8
0
  6
Continuous
 62
     7
370
    25
100
AcDbCircle
 10
-3.7442665838
 20
49.1915690605
 30
0.0
 40
21.00000000000096
100
AcDbArc
 50
355.6912004245
 51
5.4912459081
  0
ARC
  5
1E4
330
1F
100
AcDbEntity
  8
0
  6
Continuous
 62
     7
370
    25
100
AcDbCircle
 10
0.0000000001
 20
0.0000000001
 30
0.0
 40
50.62399999984505
100
AcDbArc
 50
68.7150260004
 51
70.1421168568
  0
ARC
  5
1E5
330
1F
100
AcDbEntity
  8
0
  6
Continuous
 62
     7
370
    25
100
AcDbCircle
 10
35.1847386
 20
34.5812690417
 30
0.0
 40
21.00000000000263
100
AcDbArc
 50
133.3658969491
 51
143.1659424326
  0
ARC
  5
1E6
330
1F
100
AcDbEntity
  8
0
  6
Continuous
 62
     7
370
    25
100
AcDbCircle
 10
-0.0000000001
 20
-0.0000000003
 30
0.0
 40
54.00000000032211
100
AcDbArc
 50
66.3292706591
 51
67.3850150552
  0
ARC
  5
1E7
330
1F
100
AcDbEntity
  8
0
  6
Continuous
 62
     7
370
    25
100
AcDbCircle
 10
0.6803049872
 20
49.3291717344
 30
0.0
 40
21.00000000000045
100
AcDbArc
 50
350.5483432816
 51
0.3483887652
  0
ARC
  5
1E8
330
1F
100
AcDbEntity
  8
0
  6
Continuous
 62
     7
370
    25
100
AcDbCircle
 10
0.0000000001
 20
0.0000000001
 30
0.0
 40
50.62399999983929
100
AcDbArc
 50
63.5721688575
 51
64.9992597139
  0
ARC
  5
1E9
330
1F
100
AcDbEntity
  8
0
  6
Continuous
 62
     7
370
    25
100
AcDbCircle
 10
38.1429362444
 20
31.2881193672
 30
0.0
 40
21.00000000000121
100
AcDbArc
 50
128.2230398062
 51
138.0230852898
  0
ARC
  5
1EA
330
1F
100
AcDbEntity
  8
0
  6
Continuous
 62
     7
370
    25
100
AcDbCircle
 10
-0.0000000001
 20
-0.0000000002
 30
0.0
 40
54.00000000017198
100
AcDbArc
 50
61.1864135162
 51
62.2421579123
  0
ARC
  5
1EB
330
1F
100
AcDbEntity
  8
0
  6
Continuous
 62
     7
370
    25
100
AcDbCircle
 10
5.0993991423
 20
49.0696049227
 30
0.0
 40
21.00000000000127
100
AcDbArc
 50
345.4054861388
 51
355.2055316224
  0
ARC
  5
1EC
330
1F
100
AcDbEntity
  8
0
  6
Continuous
 62
     7
370
    25
100
AcDbCircle
 10
0.0000000001
 20
0.0000000002
 30
0.0
 40
50.62399999980297
100
AcDbArc
 50
58.4293117147
 51
59.8564025711
  0
ARC
  5
1ED
330
1F
100
AcDbEntity
  8
0
  6
Continuous
 62
     7
370
    25
100
AcDbCircle
 10
40.7940293939
 20
27.7430561527
 30
0.0
 40
21.00000000000102
100
AcDbArc
 50
123.0801826633
 51
132.8802281469
  0
ARC
  5
1EE
330
1F
100
AcDbEntity
  8
0
  6
Continuous
 62
     7
370
    25
100
AcDbCircle
 10
-0.0000000003
 20
-0.0000000004
 30
0.0
 40
54.00000000050483
100
AcDbArc
 50
56.0435563734
 51
57.0993007695
  0
ARC
  5
1EF
330
1F
100
AcDbEntity
  8
0
  6
Continuous
 62
     7
370
    25
100
AcDbCircle
 10
9.477435934
 20
48.4149585045
 30
0.0
 40
21.00000000000015
100
AcDbArc
 50
340.2626289959
 51
350.0626744795
  0
ARC
  5
1F0
330
1F
100
AcDbEntity
  8
0
  6
Continuous
 62
     7
370
    25
100
AcDbCircle
 10
0.0000000001
 20
0.0000000001
 30
0.0
 40
50.6239999998501
100
AcDbArc
 50
53.2864545718
 51
54.7135454282
  0
ARC
  5
1F1
330
1F
100
AcDbEntity
  8
0
  6
Continuous
 62
     7
370
    25
100
AcDbCircle
 10
43.1166730052
 20
23.9746221627
 30
0.0
 40
21.00000000000039
100
AcDbArc
 50
117.9373255205
 51
127.7373710041
  0
ARC
  5
1F2
330
1F
100
AcDbEntity
  8
0
  6
Continuous
 62
     7
370
    25
100
AcDbCircle
 10
-0.0000000002
 20
-0.0000000003
 30
0.0
 40
54.00000000032896
100
AcDbArc
 50
50.9006992305
 51
51.9564436266
  0
ARC
  5
1F3
330
1F
100
AcDbEntity
  8
0
  6
Continuous
 62
     7
370
    25
100
AcDbCircle
 10
13.7791659842
 20
47.3705033081
 30
0.0
 40
21.0000000000032
100
AcDbArc
 50
335.1197718531
 51
344.9198173367
  0
ARC
  5
1F4
330
1F
100
AcDbEntity
  8
0
  6
Continuous
 62
     7
370
    25
100
AcDbCircle
 10
0.0000000001
 20
0.0000000001
 30
0.0
 40
50.62399999984687
100
AcDbArc
 50
48.1435974289
 51
49.5706882853
  0
ARC
  5
1F5
330
1F
100
AcDbEntity
  8
0
  6
Continuous
 62
     7
370
    25
100
AcDbCircle
 10
45.0921665176
 20
20.0131586119
 30
0.0
 40
21.00000000000233
100
AcDbArc
 50
112.7944683776
 51
122.5945138612
  0
ARC
  5
1F6
330
1F
100
AcDbEntity
  8
0
  6
Continuous
 62
     7
370
    25
100
AcDbCircle
 10
-0.0000000003
 20
-0.0000000004
 30
0.0
 40
54.00000000048465
100
AcDbArc
 50
45.7578420877
 51
46.8135864838
  0
ARC
  5
1F7
330
1F
100
AcDbEntity
  8
0
  6
Continuous
 62
     7
370
    25
100
AcDbCircle
 10
17.9699542919
 20
45.9446486724
 30
0.0
 40
21.0000000000013
100
AcDbArc
 50
329.9769147102
 51
339.7769601938
  0
ARC
  5
1F8
330
1F
100
AcDbEntity
  8
0
  6
Continuous
 62
     7
370
    25
100
AcDbCircle
 10
0.0000000001
 20
0.0000000001
 30
0.0
 40
50.62399999982555
100
AcDbArc
 50
43.0007402861
 51
44.4278311425
  0
ARC
  5
1F9
330
1F
100
AcDbEntity
  8
0
  6
Continuous
 62
     7
370
    25
100
AcDbCircle
 10
46.7046044191
 20
15.8905608755
 30
0.0
 40
21.00000000000001
100
AcDbArc
 50
107.6516112348
 51
117.4516567184
  0
ARC
  5
1FA
330
1F
100
AcDbEntity
  8
0
  6
Continuous
 62
     7
370
    25
100
AcDbCircle
 10
-0.0000000003
 20
-0.0000000002
 30
0.0
 40
54.00000000037154
100
AcDbArc
 50
40.6149849448
 51
41.6707293409
  0
ARC
  5
1FB
330
1F
100
AcDbEntity
  8
0
  6
Continuous
 62
     7
370
    25
100
AcDbCircle
 10
22.0160590938
 20
44.1488747406
 30
0.0
 40
20.99999999999937
100
AcDbArc
 50
324.8340575674
 51
334.6341030509
  0
ARC
  5
1FC
330
1F
100
AcDbEntity
  8
0
  6
Continuous
 62
     7
370
    25
100
AcDbCircle
 10
0.0000000001
 20
0.0000000001
 30
0.0
 40
50.6239999998436
100
AcDbArc
 50
37.8578831432
 51
39.2849739996
  0
ARC
  5
1FD
330
1F
100
AcDbEntity
  8
0
  6
Continuous
 62
     7
370
    25
100
AcDbCircle
 10
47.9410043076
 20
11.6400216864
 30
0.0
 40
21.00000000000129
100
AcDbArc
 50
102.5087540919
 51
112.3087995755
  0
ARC
  5
1FE
330
1F
100
AcDbEntity
  8
0
  6
Continuous
 62
     7
370
    25
100
AcDbCircle
 10
-0.0000000002
 20
-0.0000000001
 30
0.0
 40
54.00000000022833
100
AcDbArc
 50
35.472127802
 51
36.527872198
  0
ARC
  5
1FF
330
1F
100
AcDbEntity
  8
0
  6
Continuous
 62
     7
370
    25
100
AcDbCircle
 10
25.8849035331
 20
41.9976400285
 30
0.0
 40
21.00000000000289
100
AcDbArc
 50
319.6912004245
 51
329.4912459081
  0
ARC
  5
200
330
1F
100
AcDbEntity
  8
0
  6
Continuous
 62
     7
370
    25
100
AcDbCircle
 10
0.0000000001
 20
0.0000000001
 30
0.0
 40
50.62399999986365
100
AcDbArc
 50
32.7150260004
 51
34.1421168568
  0
ARC
  5
201
330
1F
100
AcDbEntity
  8
0
  6
Continuous
 62
     7
370
    25
100
AcDbCircle
 10
48.7914114183
 20
7.295763887
 30
0.0
 40
21.00000000000198
100
AcDbArc
 50
97.3658969491
 51
107.1659424326
  0
ARC
  5
202
330
1F
100
AcDbEntity
  8
0
  6
Continuous
 62
     7
370
    25
100
AcDbCircle
 10
-0.0000000002
 20
-0.0000000001
 30
0.0
 40
54.00000000023203
100
AcDbArc
 50
30.3292706591
 51
31.3850150552
  0
ARC
  5
203
330
1F
100
AcDbEntity
  8
0
  6
Continuous
 62
     7
370
    25
100
AcDbCircle
 10
29.5453379493
 20
39.5082650131
 30
0.0
 40
21.00000000000141
100
AcDbArc
 50
314.5483432816
 51
324.3483887652
  0
ARC
  5
204
330
1F
100
AcDbEntity
  8
0
  6
Continuous
 62
     7
370
    25
100
AcDbCircle
 10
0.0000000001
 20
0.0
 30
0.0
 40
50.62399999989967
100
AcDbArc
 50
27.5721688575
 51
28.9992597139
  0
ARC
  5
205
330
1F
100
AcDbEntity
  8
0
  6
Continuous
 62
     7
370
    25
100
AcDbCircle
 10
49.2489787731
 20
2.8927648865
 30
0.0
 40
21.00000000000138
100
AcDbArc
 50
92.2230398062
 51
102.0230852898
  0
ARC
  5
206
330
1F
100
AcDbEntity
  8
0
  6
Continuous
 62
     7
370
    25
100
AcDbCircle
 10
-0.0000000005
 20
-0.0000000002
 30
0.0
 40
54.0000000005206
100
AcDbArc
 50
25.1864135162
 51
26.2421579123
  0
ARC
  5
207
330
1F
100
AcDbEntity
  8
0
  6
Continuous
 62
     7
370
    25
100
AcDbCircle
 10
32.9678906766
 20
36.7007926783
 30
0.0
 40
21.00000000000195
100
AcDbArc
 50
309.4054861388
 51
319.2055316224
  0
ARC
  5
208
330
1F
100
AcDbEntity
  8
0
  6
Continuous
 62
     7
370
    25
100
AcDbCircle
 10
0.0000000002
 20
0.0000000001
 30
0.0
 40
50.62399999974131
100
AcDbArc
 50
22.4293117147
 51
23.8564025711
  0
ARC
  5
209
330
1F
100
AcDbEntity
  8
0
  6
Continuous
 62
     7
370
    25
100
AcDbCircle
 10
49.3100223088
 20
-1.5335249559
 30
0.0
 40
21.00000000000043
100
AcDbArc
 50
87.0801826633
 51
96.8802281469
  0
ARC
  5
20A
330
1F
100
AcDbEntity
  8
0
  6
Continuous
 62
     7
370
    25
100
AcDbCircle
 10
-0.0000000004
 20
-0.0000000002
 30
0.0
 40
54.00000000045242
100
AcDbArc
 50
20.0435563734
 51
21.0993007695
  0
ARC
  5
20B
330
1F
100
AcDbEntity
  8
0
  6
Continuous
 62
     7
370
    25
100
AcDbCircle
 10
36.1250053331
 20
33.5978271406
 30
0.0
 40
21.0000000000015
100
AcDbArc
 50
304.2626289959
 51
314.0626744795
  0
ARC
  5
20C
330
1F
100
AcDbEntity
  8
0
  6
Continuous
 62
     7
370
    25
100
AcDbCircle
 10
0.0000000002
 20
0.0000000001
 30
0.0
 40
50.62399999976382
100
AcDbArc
 50
17.2864545718
 51
18.7135454282
  0
ARC
  5
20D
330
1F
100
AcDbEntity
  8
0
  6
Continuous
 62
     7
370
    25
100
AcDbCircle
 10
48.9740505386
 20
-5.947467757
 30
0.0
 40
21.00000000000227
100
AcDbArc
 50
81.9373255205
 51
91.7373710041
  0
ARC
  5
20E
330
1F
100
AcDbEntity
  8
0
  6
Continuous
 62
     7
370
    25
100
AcDbCircle
 10
-0.0000000003
 20
-0.0000000001
 30
0.0
 40
54.00000000035201
100
AcDbArc
 50
14.9006992305
 51
15.9564436266
  0
ARC
  5
20F
330
1F
100
AcDbEntity
  8
0
  6
Continuous
 62
     7
370
    25
100
AcDbCircle
 10
38.9912626877
 20
30.2243516539
 30
0.0
 40
21.00000000000204
100
AcDbArc
 50
299.1197718531
 51
308.9198173367
  0
ARC
  5
210
330
1F
100
AcDbEntity
  8
0
  6
Continuous
 62
     7
370
    25
100
AcDbCircle
 10
0.0000000001
 20
0.0
 30
0.0
 40
50.62399999993843
100
AcDbArc
 50
12.1435974289
 51
13.5706882853
  0
ARC
  5
211
330
1F
100
AcDbEntity
  8
0
  6
Continuous
 62
     7
370
    25
100
AcDbCircle
 10
48.2437685098
 20
-10.3135250448
 30
0.0
 40
21.00000000000199
100
AcDbArc
 50
76.7944683776
 51
86.5945138612
  0
ARC
  5
212
330
1F
100
AcDbEntity
  8
0
  6
Continuous
 62
     7
370
    25
100
AcDbCircle
 10
-0.0000000005
 20
-0.0000000001
 30
0.0
 40
54.00000000047971
100
AcDbArc
 50
9.7578420877
 51
10.8135864838
  0
ARC
  5
213
330
1F
100
AcDbEntity
  8
0
  6
Continuous
 62
     7
370
    25
100
AcDbCircle
 10
41.5435853217
 20
26.6075274594
 30
0.0
 40
21.00000000000021
100
AcDbArc
 50
293.9769147102
 51
303.7769601938
  0
ARC
  5
214
330
1F
100
AcDbEntity
  8
0
  6
Continuous
 62
     7
370
    25
100
AcDbCircle
 10
0.0000000002
 20
0.0
 30
0.0
 40
50.62399999981601
100
AcDbArc
 50
7.0007402861
 51
8.4278311425
  0
ARC
  5
215
330
1F
100
AcDbEntity
  8
0
  6
Continuous
 62
     7
370
    25
100
AcDbCircle
 10
47.1250560239
 20
-14.5965438933
 30
0.0
 40
21.00000000000138
100
AcDbArc
 50
71.6516112348
 51
81.4516567184
  0
ARC
  5
216
330
1F
100
AcDbEntity
  8
0
  6
Continuous
 62
     7
370
    25
100
AcDbCircle
 10
-0.0000000005
 20
0.0
 30
0.0
 40
54.00000000046006
100
AcDbArc
 50
4.6149849448
 51
5.6707293409
  0
ARC
  5
217
330
1F
100
AcDbEntity
  8
0
  6
Continuous
 62
     7
370
    25
100
AcDbCircle
 10
43.7614234339
 20
22.7764750987
 30
0.0
 40
21.00000000000144
100
AcDbArc
 50
288.8340575674
 51
298.6341030509
  0
ARC
  5
218
330
1F
100
AcDbEntity
  8
0
  6
Continuous
 62
     7
370
    25
100
AcDbCircle
 10
0.0000000001
 20
0.0
 30
0.0
 40
50.62399999988524
100
AcDbArc
 50
1.8578831432
 51
3.2849739996
  0
ARC
  5
219
330
1F
100
AcDbEntity
  8
0
  6
Continuous
 62
     7
370
    25
100
AcDbCircle
 10
45.6269202959
 20
-18.7620399529
 30
0.0
 40
21.00000000000135
100
AcDbArc
 50
66.5087540919
 51
76.3087995755
  0
ARC
  5
21A
330
1F
100
AcDbEntity
  8
0
  6
Continuous
 62
     7
370
    25
100
AcDbCircle
 10
-0.0000000005
 20
0.0
 30
0.0
 40
54.00000000045767
100
AcDbArc
 50
359.472127802
 51
0.527872198
  0
ARC
  5
21B
330
1F
100
AcDbEntity
  8
0
  6
Continuous
 62
     7
370
    25
100
AcDbCircle
 10
45.6269202959
 20
18.7620399529
 30
0.0
 40
21.00000000000144
100
AcDbArc
 50
283.6912004245
 51
293.4912459081
  0
ARC
  5
21C
330
1F
100
AcDbEntity
  8
0
  6
Continuous
 62
     7
370
    25
100
AcDbCircle
 10
0.0000000002
 20
0.0
 30
0.0
 40
50.62399999977872
100
AcDbArc
 50
356.7150260004
 51
358.1421168568
  0
ARC
  5
21D
330
1F
100
AcDbEntity
  8
0
  6
Continuous
 62
     7
370
    25
100
AcDbCircle
 10
43.7614234339
 20
-22.7764750987
 30
0.0
 40
21.00000000000129
100
AcDbArc
 50
61.3658969491
 51
71.1659424326
  0
ARC
  5
21E
330
1F
100
AcDbEntity
  8
0
  6
Continuous
 62
     7
370
    25
100
AcDbCircle
 10
-0.0000000003
 20
0.0
 30
0.0
 40
54.00000000026888
100
AcDbArc
 50
354.3292706591
 51
355.3850150552
  0
ARC
  5
21F
330
1F
100
AcDbEntity
  8
0
  6
Continuous
 62
     7
370
    25
100
AcDbCircle
 10
47.1250560239
 20
14.5965438933
 30
0.0
 40
21.00000000000077
100
AcDbArc
 50
278.5483432816
 51
288.3483887652
  0
ARC
  5
220
330
1F
100
AcDbEntity
  8
0
  6
Continuous
 62
     7
370
    25
100
AcDbCircle
 10
0.0000000002
 20
0.0
 30
0.0
 40
50.62399999984136
100
AcDbArc
 50
351.5721688575
 51
352.9992597139
  0
ARC
  5
221
330
1F
100
AcDbEntity
  8
0
  6
Continuous
 62
     7
370
    25
100
AcDbCircle
 10
41.5435853217
 20
-26.6075274594
 30
0.0
 40
21.00000000000149
100
AcDbArc
 50
56.2230398062
 51
66.0230852898
  0
ARC
  5
222
330
1F
100
AcDbEntity
  8
0
  6
Continuous
 62
     7
370
    25
100
AcDbCircle
 10
-0.0000000002
 20
0.0
 30
0.0
 40
54.00000000025207
100
AcDbArc
 50
349.1864135162
 51
350.2421579123
  0
ARC
  5
223
330
1F
100
AcDbEntity
  8
0
  6
Continuous
 62
     7
370
    25
100
AcDbCircle
 10
48.2437685098
 20
10.3135250448
 30
0.0
 40
21.00000000000082
100
AcDbArc
 50
273.4054861388
 51
283.2055316224
  0
ARC
  5
224
330
1F
100
AcDbEntity
  8
0
  6
Continuous
 62
     7
370
    25
100
AcDbCircle
 10
0.0000000002
 20
0.0
 30
0.0
 40
50.62399999981341
100
AcDbArc
 50
346.4293117147
 51
347.8564025711
  0
ARC
  5
225
330
1F
100
AcDbEntity
  8
0
  6
Continuous
 62
     7
370
    25
100
AcDbCircle
 10
38.9912626877
 20
-30.2243516539
 30
0.0
 40
21.00000000000264
100
AcDbArc
 50
51.0801826633
 51
60.8802281469
  0
ARC
  5
226
330
1F
100
AcDbEntity
  8
0
  6
Continuous
 62
     7
370
    25
100
AcDbCircle
 10
-0.0000000003
 20
0.0000000001
 30
0.0
 40
54.00000000033791
100
AcDbArc
 50
344.0435563734
 51
345.0993007695
  0
ARC
  5
227
330
1F
100
AcDbEntity
  8
0
  6
Continuous
 62
     7
370
    25
100
AcDbCircle
 10
48.9740505386
 20
5.947467757
 30
0.0
 40
21.00000000000104
100
AcDbArc
 50
268.2626289959
 51
278.0626744795
  0
ARC
  5
228
330
1F
100
AcDbEntity
  8
0
  6
Continuous
 62
     7
370
    25
100
AcDbCircle
 10
0.0000000002
 20
-0.0000000001
 30
0.0
 40
50.62399999982304
100
AcDbArc
 50
341.2864545718
 51
342.7135454282
  0
ARC
  5
229
330
1F
100
AcDbEntity
  8
0
  6
Continuous
 62
     7
370
    25
100
AcDbCircle
 10
36.1250053331
 20
-33.5978271406
 30
0.0
 40
21.00000000000071
100
AcDbArc
 50
45.9373255205
 51
55.7373710041
  0
ARC
  5
22A
330
1F
100
AcDbEntity
  8
0
  6
Continuous
 62
     7
370
    25
100
AcDbCircle
 10
-0.0000000003
 20
0.0000000001
 30
0.0
 40
54.00000000030905
100
AcDbArc
 50
338.9006992305
 51
339.9564436266
  0
ARC
  5
22B
330
1F
100
AcDbEntity
  8
0
  6
Continuous
 62
     7
370
    25
100
AcDbCircle
 10
49.3100223088
 20
1.5335249559
 30
0.0
 40
21.00000000000165
100
AcDbArc
 50
263.1197718531
 51
272.9198173367
  0
ARC
  5
22C
330
1F
100
AcDbEntity
  8
0
  6
Continuous
 62
     7
370
    25
100
AcDbCircle
 10
0.0000000001
 20
0.0
 30
0.0
 40
50.62399999990527
100
AcDbArc
 50
336.1435974289
 51
337.5706882853
  0
ARC
  5
22D
330
1F
100
AcDbEntity
  8
0
  6
Continuous
 62
     7
370
    25
100
AcDbCircle
 10
32.9678906766
 20
-36.7007926783
 30
0.0
 40
21.00000000000025
100
AcDbArc
 50
40.7944683776
 51
50.5945138612
  0
ARC
  5
22E
330
1F
100
AcDbEntity
  8
0
  6
Continuous
 62
     7
370
    25
100
AcDbCircle
 10
-0.0000000003
 20
0.0000000002
 30
0.0
 40
54.00000000037515
100
AcDbArc
 50
333.7578420877
 51
334.8135864838
  0
ARC
  5
22F
330
1F
100
AcDbEntity
  8
0
  6
Continuous
 62
     7
370
    25
100
AcDbCircle
 10
49.2489787731
 20
-2.8927648865
 30
0.0
 40
21.00000000000127
100
AcDbArc
 50
257.9769147102
 51
267.7769601938
  0
ARC
  5
230
330
1F
100
AcDbEntity
  8
0
  6
Continuous
 62
     7
370
    25
100
AcDbCircle
 10
0.0000000001
 20
-0.0000000001
 30
0.0
 40
50.62399999986484
100
AcDbArc
 50
331.0007402861
 51
332.4278311425
  0
ARC
  5
231
330
1F
100
AcDbEntity
  8
0
  6
Continuous
 62
     7
370
    25
100
AcDbCircle
 10
29.5453379493
 20
-39.5082650131
 30
0.0
 40
21.00000000000272
100
AcDbArc
 50
35.6516112348
 51
45.4516567184
  0
ARC
  5
232
330
1F
100
AcDbEntity
  8
0
  6
Continuous
 62
     7
370
    25
100
AcDbCircle
 10
-0.0000000004
 20
0.0000000002
 30
0.0
 40
54.00000000043107
100
AcDbArc
 50
328.6149849448
 51
329.6707293409
  0
ARC
  5
233
330
1F
100
AcDbEntity
  8
0
  6
Continuous
 62
     7
370
    25
100
AcDbCircle
 10
48.7914114183
 20
-7.295763887
 30
0.0
 40
21.00000000000068
100
AcDbArc
 50
252.8340575674
 51
262.6341030509
  0
ARC
  5
234
330
1F
100
AcDbEntity
  8
0
  6
Continuous
 62
     7
370
    25
100
AcDbCircle
 10
0.0000000001
 20
-0.0000000001
 30
0.0
 40
50.62399999982669
100
AcDbArc
 50
325.8578831432
 51
327.2849739996
  0
ARC
  5
235
330
1F
100
AcDbEntity
  8
0
  6
Continuous
 62
     7
370
    25
100
AcDbCircle
 10
25.8849035331
 20
-41.9976400285
 30
0.0
 40
21.00000000000223
100
AcDbArc
 50
30.5087540919
 51
40.3087995755
  0
ARC
  5
236
330
1F
100
AcDbEntity
  8
0
  6
Continuous
 62
     7
370
    25
100
AcDbCircle
 10
-0.0000000003
 20
0.0000000002
 30
0.0
 40
54.00000000035214
100
AcDbArc
 50
323.472127802
 51
324.527872198
  0
ARC
  5
237
330
1F
100
AcDbEntity
  8
0
  6
Continuous
 62
     7
370
    25
100
AcDbCircle
 10
47.9410043076
 20
-11.6400216864
 30
0.0
 40
21.00000000000003
100
AcDbArc
 50
247.6912004245
 51
257.4912459081
  0
ARC
  5
238
330
1F
100
AcDbEntity
  8
0
  6
Continuous
 62
     7
370
    25
100
AcDbCircle
 10
0.0000000001
 20
-0.0000000001
 30
0.0
 40
50.62399999986438
100
AcDbArc
 50
320.7150260004
 51
322.1421168568
  0
ARC
  5
239
330
1F
100
AcDbEntity
  8
0
  6
Continuous
 62
     7
370
    25
100
AcDbCircle
 10
22.0160590938
 20
-44.1488747406
 30
0.0
 40
21.00000000000101
100
AcDbArc
 50
25.3658969491
 51
35.1659424326
  0
ARC
  5
23A
330
1F
100
AcDbEntity
  8
0
  6
Continuous
 62
     7
370
    25
100
AcDbCircle
 10
-0.0000000003
 20
0.0000000003
 30
0.0
 40
54.00000000039257
100
AcDbArc
 50
318.3292706591
 51
319.3850150552
  0
ARC
  5
23B
330
1F
100
AcDbEntity
  8
0
  6
Continuous
 62
     7
370
    25
100
AcDbCircle
 10
46.7046044191
 20
-15.8905608755
 30
0.0
 40
21.0000000000012
100
AcDbArc
 50
242.5483432816
 51
252.3483887652
  0
ARC
  5
23C
330
1F
100
AcDbEntity
  8
0
  6
Continuous
 62
     7
370
    25
100
AcDbCircle
 10
0.0000000001
 20
-0.0000000001
 30
0.0
 40
50.62399999980008
100
AcDbArc
 50
315.5721688575
 51
316.9992597139
  0
ARC
  5
23D
330
1F
100
AcDbEntity
  8
0
  6
Continuous
 62
     7
370
    25
100
AcDbCircle
 10
17.9699542919
 20
-45.9446486724
 30
0.0
 40
21.00000000000151
100
AcDbArc
 50
20.2230398062
 51
30.0230852898
  0
ARC
  5
23E
330
1F
100
AcDbEntity
  8
0
  6
Continuous
 62
     7
370
    25
100
AcDbCircle
 10
-0.0000000001
 20
0.0000000001
 30
0.0
 40
54.00000000020574
100
AcDbArc
 50
313.1864135162
 51
314.2421579123
  0
ARC
  5
23F
330
1F
100
AcDbEntity
  8
0
  6
Continuous
 62
     7
370
    25
100
AcDbCircle
 10
45.0921665176
 20
-20.0131586119
 30
0.0
 40
20.99999999999928
100
AcDbArc
 50
237.4054861388
 51
247.2055316224
  0
ARC
  5
240
330
1F
100
AcDbEntity
  8
0
  6
Continuous
 62
     7
370
    25
100
AcDbCircle
 10
0.0000000001
 20
-0.0000000002
 30
0.0
 40
50.62399999978931
100
AcDbArc
 50
310.4293117147
 51
311.8564025711
  0
ARC
  5
241
330
1F
100
AcDbEntity
  8
0
  6
Continuous
 62
     7
370
    25
100
AcDbCircle
 10
13.7791659842
 20
-47.3705033081
 30
0.0
 40
21.00000000000152
100
AcDbArc
 50
15.0801826633
 51
24.8802281469
  0
ARC
  5
242
330
1F
100
AcDbEntity
  8
0
  6
Continuous
 62
     7
370
    25
100
AcDbCircle
 10
-0.0000000003
 20
0.0000000003
 30
0.0
 40
54.00000000043179
100
AcDbArc
 50
308.0435563734
 51
309.0993007695
  0
ARC
  5
243
330
1F
100
AcDbEntity
  8
0
  6
Continuous
 62
     7
370
    25
100
AcDbCircle
 10
43.1166730052
 20
-23.9746221627
 30
0.0
 40
21.00000000000158
100
AcDbArc
 50
232.2626289959
 51
242.0626744795
  0
ARC
  5
244
330
1F
100
AcDbEntity
  8
0
  6
Continuous
 62
     7
370
    25
100
AcDbCircle
 10
0.0000000001
 20
-0.0000000001
 30
0.0
 40
50.62399999986327
100
AcDbArc
 50
305.2864545718
 51
306.7135454282
  0
ARC
  5
245
330
1F
100
AcDbEntity
  8
0
  6
Continuous
 62
     7
370
    25
100
AcDbCircle
 10
9.477435934
 20
-48.4149585045
 30
0.0
 40
21.00000000000053
100
AcDbArc
 50
9.9373255205
 51
19.7373710041
  0
ARC
  5
246
330
1F
100
AcDbEntity
  8
0
  6
Continuous
 62
     7
370
    25
100
AcDbCircle
 10
-0.0000000002
 20
0.0000000003
 30
0.0
 40
54.00000000041577
100
AcDbArc
 50
302.9006992305
 51
303.9564436266
  0
ARC
  5
247
330
1F
100
AcDbEntity
  8
0
  6
Continuous
 62
     7
370
    25
100
AcDbCircle
 10
40.7940293939
 20
-27.7430561527
 30
0.0
 40
20.99999999999915
100
AcDbArc
 50
227.1197718531
 51
236.9198173367
  0
ARC
  5
248
330
1F
100
AcDbEntity
  8
0
  6
Continuous
 62
     7
370
    25
100
AcDbCircle
 10
0.0000000001
 20
-0.0000000002
 30
0.0
 40
50.62399999980561
100
AcDbArc
 50
300.1435974289
 51
301.5706882853
  0
ARC
  5
249
330
1F
100
AcDbEntity
  8
0
  6
Continuous
 62
     7
370
    25
100
AcDbCircle
 10
5.0993991423
 20
-49.0696049227
 30
0.0
 40
21.00000000000151
100
AcDbArc
 50
4.7944683776
 51
14.5945138612
  0
ARC
  5
24A
330
1F
100
AcDbEntity
  8
0
  6
Continuous
 62
     7
370
    25
100
AcDbCircle
 10
-0.0000000002
 20
0.0000000003
 30
0.0
 40
54.00000000035782
100
AcDbArc
 50
297.7578420877
 51
298.8135864838
  0
ARC
  5
24B
330
1F
100
AcDbEntity
  8
0
  6
Continuous
 62
     7
370
    25
100
AcDbCircle
 10
38.1429362444
 20
-31.2881193672
 30
0.0
 40
21.00000000000021
100
AcDbArc
 50
221.9769147102
 51
231.7769601938
  0
ARC
  5
24C
330
1F
100
AcDbEntity
  8
0
  6
Continuous
 62
     7
370
    25
100
AcDbCircle
 10
0.0000000001
 20
-0.0000000002
 30
0.0
 40
50.6239999997867
100
AcDbArc
 50
295.0007402861
 51
296.4278311425
  0
ARC
  5
24D
330
1F
100
AcDbEntity
  8
0
  6
Continuous
 62
     7
370
    25
100
AcDbCircle
 10
0.6803049872
 20
-49.3291717344
 30
0.0
 40
21.00000000000172
100
AcDbArc
 50
359.6516112348
 51
9.4516567184
  0
ARC
  5
24E
330
1F
100
AcDbEntity
  8
0
  6
Continuous
 62
     7
370
    25
100
AcDbCircle
 10
-0.0000000001
 20
0.0000000003
 30
0.0
 40
54.00000000037685
100
AcDbArc
 50
292.6149849448
 51
293.6707293409
  0
ARC
  5
24F
330
1F
100
AcDbEntity
  8
0
  6
Continuous
 62
     7
370
    25
100
AcDbCircle
 10
35.1847386
 20
-34.5812690417
 30
0.0
 40
21.00000000000152
100
AcDbArc
 50
216.8340575674
 51
226.6341030509
  0
ARC
  5
250
330
1F
100
AcDbEntity
  8
0
  6
Continuous
 62
     7
370
    25
100
AcDbCircle
 10
0.0000000001
 20
-0.0000000002
 30
0.0
 40
50.62399999983501
100
AcDbArc
 50
289.8578831432
 51
291.2849739996
  0
ARC
  5
251
330
1F
100
AcDbEntity
  8
0
  6
Continuous
 62
     7
370
    25
100
AcDbCircle
 10
-3.7442665838
 20
-49.1915690605
 30
0.0
 40
21.00000000000242
100
AcDbArc
 50
354.5087540919
 51
4.3087995755
  0
ARC
  5
252
330
1F
100
AcDbEntity
  8
0
  6
Continuous
 62
     7
370
    25
100
AcDbCircle
 10
-0.0000000001
 20
0.0000000002
 30
0.0
 40
54.0000000002276
100
AcDbArc
 50
287.472127802
 51
288.527872198
  0
ARC
  5
253
330
1F
100
AcDbEntity
  8
0
  6
Continuous
 62
     7
370
    25
100
AcDbCircle
 10
31.9432541286
 20
-37.5959906713
 30
0.0
 40
21.00000000000039
100
AcDbArc
 50
211.6912004245
 51
221.4912459081
  0
ARC
  5
254
330
1F
100
AcDbEntity
  8
0
  6
Continuous
 62
     7
370
    25
100
AcDbCircle
 10
0.0
 20
-0.0000000002
 30
0.0
 40
50.62399999983324
100
AcDbArc
 50
284.7150260004
 51
286.1421168568
  0
ARC
  5
255
330
1F
100
AcDbEntity
  8
0
  6
Continuous
 62
     7
370
    25
100
AcDbCircle
 10
-8.1386915217
 20
-48.6579047966
 30
0.0
 40
21.00000000000139
100
AcDbArc
 50
349.3658969491
 51
359.1659424326
  0
ARC
  5
256
330
1F
100
AcDbEntity
  8
0
  6
Continuous
 62
     7
370
    25
100
AcDbCircle
 10
-0.0000000001
 20
0.0000000004
 30
0.0
 40
54.0000000004129
100
AcDbArc
 50
282.3292706591
 51
283.3850150552
  0
ARC
  5
257
330
1F
100
AcDbEntity
  8
0
  6
Continuous
 62
     7
370
    25
100
AcDbCircle
 10
28.4445813573
 20
-40.3080114901
 30
0.0
 40
21.00000000000184
100
AcDbArc
 50
206.5483432816
 51
216.3483887652
  0
ARC
  5
258
330
1F
100
AcDbEntity
  8
0
  6
Continuous
 62
     7
370
    25
100
AcDbCircle
 10
0.0
 20
-0.0000000001
 30
0.0
 40
50.62399999989705
100
AcDbArc
 50
279.5721688575
 51
280.9992597139
  0
ARC
  5
259
330
1F
100
AcDbEntity
  8
0
  6
Continuous
 62
     7
370
    25
100
AcDbCircle
 10
-12.4675885011
 20
-47.7324756937
 30
0.0
 40
21.00000000000289
100
AcDbArc
 50
344.2230398062
 51
354.0230852898
  0
ARC
  5
25A
330
1F
100
AcDbEntity
  8
0
  6
Continuous
 62
     7
370
    25
100
AcDbCircle
 10
-0.0000000001
 20
0.0000000005
 30
0.0
 40
54.00000000047083
100
AcDbArc
 50
277.1864135162
 51
278.2421579123
  0
ARC
  5
25B
330
1F
100
AcDbEntity
  8
0
  6
Continuous
 62
     7
370
    25
100
AcDbCircle
 10
24.7168895421
 20
-42.6954959011
 30
0.0
 40
21.0000000000021
100
AcDbArc
 50
201.4054861388
 51
211.2055316224
  0
ARC
  5
25C
330
1F
100
AcDbEntity
  8
0
  6
Continuous
 62
     7
370
    25
100
AcDbCircle
 10
0.0
 20
-0.0000000002
 30
0.0
 40
50.62399999983102
100
AcDbArc
 50
274.4293117147
 51
275.8564025711
  0
ARC
  5
25D
330
1F
100
AcDbEntity
  8
0
  6
Continuous
 62
     7
370
    25
100
AcDbCircle
 10
-16.6961037886
 20
-46.4227327627
 30
0.0
 40
21.00000000000076
100
AcDbArc
 50
339.0801826633
 51
348.8802281469
  0
ARC
  5
25E
330
1F
100
AcDbEntity
  8
0
  6
Continuous
 62
     7
370
    25
100
AcDbCircle
 10
0.0
 20
0.0000000003
 30
0.0
 40
54.00000000032632
100
AcDbArc
 50
272.0435563734
 51
273.0993007695
  0
ARC
  5
25F
330
1F
100
AcDbEntity
  8
0
  6
Continuous
 62
     7
370
    25
100
AcDbCircle
 10
20.7901918656
 20
-44.7392212837
 30
0.0
 40
21.00000000000027
100
AcDbArc
 50
196.2626289959
 51
206.0626744795
  0
ARC
  5
260
330
1F
100
AcDbEntity
  8
0
  6
Continuous
 62
     7
370
    25
100
AcDbCircle
 10
0.0
 20
-0.0000000001
 30
0.0
 40
50.62399999990595
100
AcDbArc
 50
269.2864545718
 51
270.7135454282
  0
ARC
  5
261
330
1F
100
AcDbEntity
  8
0
  6
Continuous
 62
     7
370
    25
100
AcDbCircle
 10
-20.7901918656
 20
-44.7392212837
 30
0.0
 40
21.00000000000169
100
AcDbArc
 50
333.9373255205
 51
343.7373710041
  0
ARC
  5
262
330
1F
100
AcDbEntity
  8
0
  6
Continuous
 62
     7
370
    25
100
AcDbCircle
 10
0.0
 20
0.0000000003
 30
0.0
 40
54.00000000026741
100
AcDbArc
 50
266.9006992305
 51
267.9564436266
  0
ARC
  5
263
330
1F
100
AcDbEntity
  8
0
  6
Continuous
 62
     7
370
    25
100
AcDbCircle
 10
16.6961037886
 20
-46.4227327627
 30
0.0
 40
21.00000000000082
100
AcDbArc
 50
191.1197718531
 51
200.9198173367
  0
ARC
  5
264
330
1F
100
AcDbEntity
  8
0
  6
Continuous
 62
     7
370
    25
100
AcDbCircle
 10
0.0
 20
-0.0000000002
 30
0.0
 40
50.62399999977507
100
AcDbArc
 50
264.1435974289
 51
265.5706882853
  0
ARC
  5
265
330
1F
100
AcDbEntity
  8
0
  6
Continuous
 62
     7
370
    25
100
AcDbCircle
 10
-24.7168895421
 20
-42.6954959011
 30
0.0
 40
21.00000000000203
100
AcDbArc
 50
328.7944683776
 51
338.5945138612
  0
ARC
  5
266
330
1F
100
AcDbEntity
  8
0
  6
Continuous
 62
     7
370
    25
100
AcDbCircle
 10
0.0000000001
 20
0.0000000006
 30
0.0
 40
54.00000000057411
100
AcDbArc
 50
261.7578420877
 51
262.8135864838
  0
ARC
  5
267
330
1F
100
AcDbEntity
  8
0
  6
Continuous
 62
     7
370
    25
100
AcDbCircle
 10
12.4675885011
 20
-47.7324756937
 30
0.0
 40
21.00000000000153
100
AcDbArc
 50
185.9769147102
 51
195.7769601938
  0
ARC
  5
268
330
1F
100
AcDbEntity
  8
0
  6
Continuous
 62
     7
370
    25
100
AcDbCircle
 10
0.0
 20
-0.0000000002
 30
0.0
 40
50.62399999975732
100
AcDbArc
 50
259.0007402861
 51
260.4278311425
  0
ARC
  5
269
330
1F
100
AcDbEntity
  8
0
  6
Continuous
 62
     7
370
    25
100
AcDbCircle
 10
-28.4445813573
 20
-40.3080114901
 30
0.0
 40
21.00000000000158
100
AcDbArc
 50
323.6516112348
 51
333.4516567184
  0
ARC
  5
26A
330
1F
100
AcDbEntity
  8
0
  6
Continuous
 62
     7
370
    25
100
AcDbCircle
 10
0.0000000001
 20
0.0000000003
 30
0.0
 40
54.00000000030747
100
AcDbArc
 50
256.6149849448
 51
257.6707293409
  0
ARC
  5
26B
330
1F
100
AcDbEntity
  8
0
  6
Continuous
 62
     7
370
    25
100
AcDbCircle
 10
8.1386915217
 20
-48.6579047966
 30
0.0
 40
21.00000000000048
100
AcDbArc
 50
180.8340575674
 51
190.6341030509
  0
ARC
  5
26C
330
1F
100
AcDbEntity
  8
0
  6
Continuous
 62
     7
370
    25
100
AcDbCircle
 10
0.0
 20
-0.0000000002
 30
0.0
 40
50.62399999983619
100
AcDbArc
 50
253.8578831432
 51
255.2849739996
  0
ARC
  5
26D
330
1F
100
AcDbEntity
  8
0
  6
Continuous
 62
     7
370
    25
100
AcDbCircle
 10
-31.9432541286
 20
-37.5959906713
 30
0.0
 40
21.00000000000223
100
AcDbArc
 50
318.5087540919
 51
328.3087995755
  0
ARC
  5
26E
330
1F
100
AcDbEntity
  8
0
  6
Continuous
 62
     7
370
    25
100
AcDbCircle
 10
0.0000000001
 20
0.0000000003
 30
0.0
 40
54.00000000027263
100
AcDbArc
 50
251.472127802
 51
252.527872198
  0
ARC
  5
26F
330
1F
100
AcDbEntity
  8
0
  6
Continuous
 62
     7
370
    25
100
AcDbCircle
 10
3.7442665838
 20
-49.1915690605
 30
0.0
 40
21.0000000000012
100
AcDbArc
 50
175.6912004245
 51
185.4912459081
  0
ARC
  5
270
330
1F
100
AcDbEntity
  8
0
  6
Continuous
 62
     7
370
    25
100
AcDbCircle
 10
-0.0000000001
 20
-0.0000000002
 30
0.0
 40
50.62399999978988
100
AcDbArc
 50
248.7150260004
 51
250.1421168568
  0
ARC
  5
271
330
1F
100
AcDbEntity
  8
0
  6
Continuous
 62
     7
370
    25
100
AcDbCircle
 10
-35.1847386
 20
-34.5812690417
 30
0.0
 40
21.00000000000271
100
AcDbArc
 50
313.3658969491
 51
323.1659424326
  0
ARC
  5
272
330
1F
100
AcDbEntity
  8
0
  6
Continuous
 62
     7
370
    25
100
AcDbCircle
 10
0.0000000001
 20
0.0000000003
 30
0.0
 40
54.00000000027278
100
AcDbArc
 50
246.3292706591
 51
247.3850150552
  0
ARC
  5
273
330
1F
100
AcDbEntity
  8
0
  6
Continuous
 62
     7
370
    25
100
AcDbCircle
 10
-0.6803049872
 20
-49.3291717344
 30
0.0
 40
21.00000000000098
100
AcDbArc
 50
170.5483432816
 51
180.3483887652
  0
ARC
  5
274
330
1F
100
AcDbEntity
  8
0
  6
Continuous
 62
     7
370
    25
100
AcDbCircle
 10
-0.0000000001
 20
-0.0000000002
 30
0.0
 40
50.62399999978128
100
AcDbArc
 50
243.5721688575
 51
244.9992597139
  0
ARC
  5
275
330
1F
100
AcDbEntity
  8
0
  6
Continuous
 62
     7
370
    25
100
AcDbCircle
 10
-38.1429362444
 20
-31.2881193672
 30
0.0
 40
21.00000000000172
100
AcDbArc
 50
308.2230398062
 51
318.0230852898
  0
ARC
  5
276
330
1F
100
AcDbEntity
  8
0
  6
Continuous
 62
     7
370
    25
100
AcDbCircle
 10
0.0000000002
 20
0.0000000004
 30
0.0
 40
54.00000000042559
100
AcDbArc
 50
241.1864135162
 51
242.2421579123
  0
ARC
  5
277
330
1F
100
AcDbEntity
  8
0
  6
Continuous
 62
     7
370
    25
100
AcDbCircle
 10
-5.0993991423
 20
-49.0696049227
 30
0.0
 40
21.00000000000084
100
AcDbArc
 50
165.4054861388
 51
175.2055316224
  0
ARC
  5
278
330
1F
100
AcDbEntity
  8
0
  6
Continuous
 62
     7
370
    25
100
AcDbCircle
 10
-0.0000000001
 20
-0.0000000002
 30
0.0
 40
50.62399999981101
100
AcDbArc
 50
238.4293117147
 51
239.8564025711
  0
ARC
  5
279
330
1F
100
AcDbEntity
  8
0
  6
Continuous
 62
     7
370
    25
100
AcDbCircle
 10
-40.7940293939
 20
-27.7430561527
 30
0.0
 40
20.99999999999977
100
AcDbArc
 50
303.0801826633
 51
312.8802281469
  0
ARC
  5
27A
330
1F
100
AcDbEntity
  8
0
  6
Continuous
 62
     7
370
    25
100
AcDbCircle
 10
0.0000000003
 20
0.0000000004
 30
0.0
 40
54.00000000047565
100
AcDbArc
 50
236.0435563734
 51
237.0993007695
  0
ARC
  5
27B
330
1F
100
AcDbEntity
  8
0
  6
Continuous
 62
     7
370
    25
100
AcDbCircle
 10
-9.477435934
 20
-48.4149585045
 30
0.0
 40
21.00000000000181
100
AcDbArc
 50
160.2626289959
 51
170.0626744795
  0
ARC
  5
27C
330
1F
100
AcDbEntity
  8
0
  6
Continuous
 62
     7
370
    25
100
AcDbCircle
 10
-0.0000000001
 20
-0.0000000002
 30
0.0
 40
50.62399999977983
100
AcDbArc
 50
233.2864545718
 51
234.7135454282
  0
ARC
  5
27D
330
1F
100
AcDbEntity
  8
0
  6
Continuous
 62
     7
370
    25
100
AcDbCircle
 10
-43.1166730052
 20
-23.9746221627
 30
0.0
 40
21.00000000000019
100
AcDbArc
 50
297.9373255205
 51
307.7373710041
  0
ARC
  5
27E
330
1F
100
AcDbEntity
  8
0
  6
Continuous
 62
     7
370
    25
100
AcDbCircle
 10
0.0000000002
 20
0.0000000003
 30
0.0
 40
54.0000000003885
100
AcDbArc
 50
230.9006992305
 51
231.9564436266
  0
ARC
  5
27F
330
1F
100
AcDbEntity
  8
0
  6
Continuous
 62
     7
370
    25
100
AcDbCircle
 10
-13.7791659842
 20
-47.3705033081
 30
0.0
 40
21.00000000000221
100
AcDbArc
 50
155.1197718531
 51
164.9198173367
  0
ARC
  5
280
330
1F
100
AcDbEntity
  8
0
  6
Continuous
 62
     7
370
    25
100
AcDbCircle
 10
-0.0000000001
 20
-0.0000000001
 30
0.0
 40
50.6239999999127
100
AcDbArc
 50
228.1435974289
 51
229.5706882853
  0
ARC
  5
281
330
1F
100
AcDbEntity
  8
0
  6
Continuous
 62
     7
370
    25
100
AcDbCircle
 10
-45.0921665176
 20
-20.0131586119
 30
0.0
 40
21.00000000000284
100
AcDbArc
 50
292.7944683776
 51
302.5945138612
  0
ARC
  5
282
330
1F
100
AcDbEntity
  8
0
  6
Continuous
 62
     7
370
    25
100
AcDbCircle
 10
0.0000000004
 20
0.0000000004
 30
0.0
 40
54.00000000057224
100
AcDbArc
 50
225.7578420877
 51
226.8135864838
  0
ARC
  5
283
330
1F
100
AcDbEntity
  8
0
  6
Continuous
 62
     7
370
    25
100
AcDbCircle
 10
-17.9699542919
 20
-45.9446486724
 30
0.0
 40
21.00000000000106
100
AcDbArc
 50
149.9769147102
 51
159.7769601938
  0
ARC
  5
284
330
1F
100
AcDbEntity
  8
0
  6
Continuous
 62
     7
370
    25
100
AcDbCircle
 10
-0.0000000002
 20
-0.0000000001
 30
0.0
 40
50.62399999978505
100
AcDbArc
 50
223.0007402861
 51
224.4278311425
  0
ARC
  5
285
330
1F
100
AcDbEntity
  8
0
  6
Continuous
 62
     7
370
    25
100
AcDbCircle
 10
-46.7046044191
 20
-15.8905608755
 30
0.0
 40
20.99999999999962
100
AcDbArc
 50
287.6516112348
 51
297.4516567184
  0
ARC
  5
286
330
1F
100
AcDbEntity
  8
0
  6
Continuous
 62
     7
370
    25
100
AcDbCircle
 10
0.0000000003
 20
0.0000000002
 30
0.0
 40
54.00000000036993
100
AcDbArc
 50
220.6149849448
 51
221.6707293409
  0
ARC
  5
287
330
1F
100
AcDbEntity
  8
0
  6
Continuous
 62
     7
370
    25
100
AcDbCircle
 10
-22.0160590938
 20
-44.1488747406
 30
0.0
 40
21.00000000000175
100
AcDbArc
 50
144.8340575674
 51
154.6341030509
  0
ARC
  5
288
330
1F
100
AcDbEntity
  8
0
  6
Continuous
 62
     7
370
    25
100
AcDbCircle
 10
-0.0000000001
 20
-0.0000000001
 30
0.0
 40
50.62399999987019
100
AcDbArc
 50
217.8578831432
 51
219.2849739996
  0
ARC
  5
289
330
1F
100
AcDbEntity
  8
0
  6
Continuous
 62
     7
370
    25
100
AcDbCircle
 10
-47.9410043076
 20
-11.6400216864
 30
0.0
 40
21.00000000000193
100
AcDbArc
 50
282.5087540919
 51
292.3087995755
  0
ARC
  5
28A
330
1F
100
AcDbEntity
  8
0
  6
Continuous
 62
     7
370
    25
100
AcDbCircle
 10
0.0000000003
 20
0.0000000002
 30
0.0
 40
54.00000000041238
100
AcDbArc
 50
215.472127802
 51
216.527872198
  0
ARC
  5
28B
330
1F
100
AcDbEntity
  8
0
  6
Continuous
 62
     7
370
    25
100
AcDbCircle
 10
-25.8849035331
 20
-41.9976400285
 30
0.0
 40
21.0000000000015
100
AcDbArc
 50
139.6912004245
 51
149.4912459081
  0
ARC
  5
28C
330
1F
100
AcDbEntity
  8
0
  6
Continuous
 62
     7
370
    25
100
AcDbCircle
 10
-0.0000000001
 20
-0.0000000001
 30
0.0
 40
50.62399999985506
100
AcDbArc
 50
212.7150260004
 51
214.1421168568
  0
ARC
  5
28D
330
1F
100
AcDbEntity
  8
0
  6
Continuous
 62
     7
370
    25
100
AcDbCircle
 10
-48.7914114183
 20
-7.295763887
 30
0.0
 40
21.00000000000107
100
AcDbArc
 50
277.3658969491
 51
287.1659424326
  0
ARC
  5
28E
330
1F
100
AcDbEntity
  8
0
  6
Continuous
 62
     7
370
    25
100
AcDbCircle
 10
0.0000000003
 20
0.0000000002
 30
0.0
 40
54.00000000029503
100
AcDbArc
 50
210.3292706591
 51
211.3850150552
  0
ARC
  5
28F
330
1F
100
AcDbEntity
  8
0
  6
Continuous
 62
     7
370
    25
100
AcDbCircle
 10
-29.5453379493
 20
-39.5082650131
 30
0.0
 40
21.00000000000123
100
AcDbArc
 50
134.5483432816
 51
144.3483887652
  0
ARC
  5
290
330
1F
100
AcDbEntity
  8
0
  6
Continuous
 62
     7
370
    25
100
AcDbCircle
 10
-0.0000000002
 20
-0.0000000001
 30
0.0
 40
50.62399999981026
100
AcDbArc
 50
207.5721688575
 51
208.9992597139
  0
ARC
  5
291
330
1F
100
AcDbEntity
  8
0
  6
Continuous
 62
     7
370
    25
100
AcDbCircle
 10
-49.2489787731
 20
-2.8927648865
 30
0.0
 40
21.00000000000046
100
AcDbArc
 50
272.2230398062
 51
282.0230852898
  0
ARC
  5
292
330
1F
100
AcDbEntity
  8
0
  6
Continuous
 62
     7
370
    25
100
AcDbCircle
 10
0.0000000002
 20
0.0000000001
 30
0.0
 40
54.00000000026591
100
AcDbArc
 50
205.1864135162
 51
206.2421579123
  0
ARC
  5
293
330
1F
100
AcDbEntity
  8
0
  6
Continuous
 62
     7
370
    25
100
AcDbCircle
 10
-32.9678906766
 20
-36.7007926783
 30
0.0
 40
21.00000000000309
100
AcDbArc
 50
129.4054861388
 51
139.2055316224
  0
ARC
  5
294
330
1F
100
AcDbEntity
  8
0
  6
Continuous
 62
     7
370
    25
100
AcDbCircle
 10
-0.0000000002
 20
-0.0000000001
 30
0.0
 40
50.62399999983194
100
AcDbArc
 50
202.4293117147
 51
203.8564025711
  0
ARC
  5
295
330
1F
100
AcDbEntity
  8
0
  6
Continuous
 62
     7
370
    25
100
AcDbCircle
 10
-49.3100223088
 20
1.5335249559
 30
0.0
 40
21.00000000000093
100
AcDbArc
 50
267.0801826633
 51
276.8802281469
  0
ARC
  5
296
330
1F
100
AcDbEntity
  8
0
  6
Continuous
 62
     7
370
    25
100
AcDbCircle
 10
0.0000000004
 20
0.0000000002
 30
0.0
 40
54.00000000044574
100
AcDbArc
 50
200.0435563734
 51
201.0993007695
  0
ARC
  5
297
330
1F
100
AcDbEntity
  8
0
  6
Continuous
 62
     7
370
    25
100
AcDbCircle
 10
-36.1250053331
 20
-33.5978271406
 30
0.0
 40
21.00000000000362
100
AcDbArc
 50
124.2626289959
 51
134.0626744795
  0
ARC
  5
298
330
1F
100
AcDbEntity
  8
0
  6
Continuous
 62
     7
370
    25
100
AcDbCircle
 10
-0.0000000002
 20
-0.0000000001
 30
0.0
 40
50.62399999976932
100
AcDbArc
 50
197.2864545718
 51
198.7135454282
  0
ARC
  5
299
330
1F
100
AcDbEntity
  8
0
  6
Continuous
 62
     7
370
    25
100
AcDbCircle
 10
-48.9740505386
 20
5.947467757
 30
0.0
 40
21.00000000000025
100
AcDbArc
 50
261.9373255205
 51
271.7373710041
  0
ARC
  5
29A
330
1F
100
AcDbEntity
  8
0
  6
Continuous
 62
     7
370
    25
100
AcDbCircle
 10
0.0000000005
 20
0.0000000001
 30
0.0
 40
54.00000000055507
100
AcDbArc
 50
194.9006992305
 51
195.9564436266
  0
ARC
  5
29B
330
1F
100
AcDbEntity
  8
0
  6
Continuous
 62
     7
370
    25
100
AcDbCircle
 10
-38.9912626877
 20
-30.2243516539
 30
0.0
 40
21.00000000000073
100
AcDbArc
 50
119.1197718531
 51
128.9198173367
  0
ARC
  5
29C
330
1F
100
AcDbEntity
  8
0
  6
Continuous
 62
     7
370
    25
100
AcDbCircle
 10
-0.0000000001
 20
0.0
 30
0.0
 40
50.62399999990081
100
AcDbArc
 50
192.1435974289
 51
193.5706882853
  0
ARC
  5
29D
330
1F
100
AcDbEntity
  8
0
  6
Continuous
 62
     7
370
    25
100
AcDbCircle
 10
-48.2437685098
 20
10.3135250448
 30
0.0
 40
21.00000000000154
100
AcDbArc
 50
256.7944683776
 51
266.5945138612
  0
ARC
  5
29E
330
1F
100
AcDbEntity
  8
0
  6
Continuous
 62
     7
370
    25
100
AcDbCircle
 10
0.0000000004
 20
0.0000000001
 30
0.0
 40
54.0000000004047
100
AcDbArc
 50
189.7578420877
 51
190.8135864838
  0
ARC
  5
29F
330
1F
100
AcDbEntity
  8
0
  6
Continuous
 62
     7
370
    25
100
AcDbCircle
 10
-41.5435853217
 20
-26.6075274594
 30
0.0
 40
21.00000000000083
100
AcDbArc
 50
113.9769147102
 51
123.7769601938
  0
ARC
  5
2A0
330
1F
100
AcDbEntity
  8
0
  6
Continuous
 62
     7
370
    25
100
AcDbCircle
 10
-0.0000000003
 20
0.0
 30
0.0
 40
50.62399999974284
100
AcDbArc
 50
187.0007402861
 51
188.4278311425
  0
ARC
  5
2A1
330
1F
100
AcDbEntity
  8
0
  6
Continuous
 62
     7
370
    25
100
AcDbCircle
 10
-47.1250560239
 20
14.5965438933
 30
0.0
 40
21.00000000000161
100
AcDbArc
 50
251.6516112348
 51
261.4516567184
  0
ARC
  5
2A2
330
1F
100
AcDbEntity
  8
0
  6
Continuous
 62
     7
370
    25
100
AcDbCircle
 10
0.0000000003
 20
0.0
 30
0.0
 40
54.00000000029834
100
AcDbArc
 50
184.6149849448
 51
185.6707293409
  0
ARC
  5
2A3
330
1F
100
AcDbEntity
  8
0
  6
Continuous
 62
     7
370
    25
100
AcDbCircle
 10
-43.7614234339
 20
-22.7764750987
 30
0.0
 40
21.0000000000012
100
AcDbArc
 50
108.8340575674
 51
118.6341030509
  0
ARC
  5
2A4
330
1F
100
AcDbEntity
  8
0
  6
Continuous
 62
     7
370
    25
100
AcDbCircle
 10
-0.0000000002
 20
0.0
 30
0.0
 40
50.62399999984489
100
AcDbArc
 50
181.8578831432
 51
183.2849739996
  0
ARC
  5
2A5
330
1F
100
AcDbEntity
  8
0
  6
Continuous
 62
     7
370
    25
100
AcDbCircle
 10
-45.6269202959
 20
18.7620399529
 30
0.0
 40
21.00000000000188
100
AcDbArc
 50
246.5087540919
 51
256.3087995755
  0
ARC
  5
2A6
330
1F
100
AcDbEntity
  8
0
  6
Continuous
 62
     7
370
    25
100
AcDbCircle
 10
0.0
 20
0.0
 30
0.0
 40
2.5
100
AcDbArc
 50
126.8698976458
 51
53.1301023542
  0
ENDSEC
  0
SECTION
  2
OBJECTS
  0
DICTIONARY
  5
C
330
0
100
AcDbDictionary
281
     1
  3
ACAD_GROUP
350
D
  3
ACAD_LAYOUT
350
1A
  3
ACAD_MLINESTYLE
350
17
  3
ACAD_PLOTSETTINGS
350
19
  3
ACAD_PLOTSTYLENAME
350
E
  3
ACAD_SCALELIST
350
47
  0
DICTIONARY
  5
D
102
{ACAD_REACTORS
330
C
102
}
330
C
100
AcDbDictionary
281
     1
  0
DICTIONARY
  5
1A
102
{ACAD_REACTORS
330
C
102
}
330
C
100
AcDbDictionary
281
     1
  3
Layout1
350
1E
  3
Layout2
350
26
  3
Model
350
22
  0
DICTIONARY
  5
17
102
{ACAD_REACTORS
330
C
102
}
330
C
100
AcDbDictionary
281
     1
  3
Standard
350
18
  0
DICTIONARY
  5
19
102
{ACAD_REACTORS
330
C
102
}
330
C
100
AcDbDictionary
281
     1
  0
ACDBDICTIONARYWDFLT
  5
E
102
{ACAD_REACTORS
330
C
102
}
330
C
100
AcDbDictionary
281
     1
  3
Normal
350
F
100
AcDbDictionaryWithDefault
340
F
  0
DICTIONARY
  5
47
102
{ACAD_REACTORS
330
C
102
}
330
C
100
AcDbDictionary
281
     1
  3
A0
350
48
  3
A1
350
49
  3
A2
350
4A
  3
A3
350
4B
  3
A4
350
4C
  3
A5
350
4D
  3
A6
350
4E
  3
A7
350
4F
  3
A8
350
50
  3
A9
350
51
  3
B0
350
52
  3
B1
350
53
  3
B2
350
54
  3
B3
350
55
  3
B4
350
56
  3
B5
350
57
  3
B6
350
58
  3
B7
350
59
  3
B8
350
5A
  3
B9
350
5B
  3
C0
350
5C
  3
C1
350
5D
  3
C2
350
5E
  3
C3
350
5F
  3
C4
350
60
  3
C5
350
61
  3
C6
350
62
  3
C7
350
63
  3
C8
350
64
  3
C9
350
65
  3
D0
350
66
  3
D1
350
67
  3
D2
350
68
  0
LAYOUT
  5
1E
102
{ACAD_REACTORS
330
1A
102
}
330
1A
100
AcDbPlotSettings
  1

  2
none_device
  4

  6

 40
0.0
 41
0.0
 42
0.0
 43
0.0
 44
0.0
 45
0.0
 46
0.0
 47
0.0
 48
0.0
 49
0.0
140
0.0
141
0.0
142
1.0
143
1.0
 70
   688
 72
     1
 73
     0
 74
     5
  7

 75
    16
147
1.0
148
0.0
149
0.0
100
AcDbLayout
  1
Layout1
 70
     1
 71
     1
 10
0.0
 20
0.0
 11
420.0
 21
297.0
 12
0.0
 22
0.0
 32
0.0
 14
1.0000000000E+20
 24
1.0000000000E+20
 34
1.0000000000E+20
 15
-1.0000000000E+20
 25
-1.0000000000E+20
 35
-1.0000000000E+20
146
0.0
 13
0.0
 23
0.0
 33
0.0
 16
1.0
 26
0.0
 36
0.0
 17
0.0
 27
1.0
 37
0.0
 76
     0
330
1B
  0
LAYOUT
  5
26
102
{ACAD_REACTORS
330
1A
102
}
330
1A
100
AcDbPlotSettings
  1

  2
none_device
  4

  6

 40
0.0
 41
0.0
 42
0.0
 43
0.0
 44
0.0
 45
0.0
 46
0.0
 47
0.0
 48
0.0
 49
0.0
140
0.0
141
0.0
142
1.0
143
1.0
 70
   688
 72
     1
 73
     0
 74
     5
  7

 75
    16
147
1.0
148
0.0
149
0.0
100
AcDbLayout
  1
Layout2
 70
     1
 71
     2
 10
0.0
 20
0.0
 11
0.0
 21
0.0
 12
0.0
 22
0.0
 32
0.0
 14
0.0
 24
0.0
 34
0.0
 15
0.0
 25
0.0
 35
0.0
146
0.0
 13
0.0
 23
0.0
 33
0.0
 16
1.0
 26
0.0
 36
0.0
 17
0.0
 27
1.0
 37
0.0
 76
     0
330
23
  0
LAYOUT
  5
22
102
{ACAD_REACTORS
330
1A
102
}
330
1A
100
AcDbPlotSettings
  1

  2
none_device
  4
ANSI_A_(11.00_x_8.50_Inches)
  6

 40
6.35
 41
19.05
 42
6.35000508
 43
19.05000254
 44
279.4
 45
215.9
 46
133.34999746
 47
88.89999873
 48
0.0
 49
0.0
140
0.0
141
0.0
142
0.0779662526
143
1.0
 70
  1696
 72
     0
 73
     0
 74
     0
  7

 75
     0
147
0.0179189148
148
-1300.4909072572
149
0.0
100
AcDbLayout
  1
Model
 70
     1
 71
     0
 10
0.0
 20
0.0
 11
420.0
 21
297.0
 12
0.0
 22
0.0
 32
0.0
 14
-54.0
 24
-53.9656564089
 34
0.0
 15
54.0
 25
53.9656564089
 35
0.0
146
0.0
 13
0.0
 23
0.0
 33
0.0
 16
1.0
 26
0.0
 36
0.0
 17
0.0
 27
1.0
 37
0.0
 76
     0
330
1F
331
29
  0
MLINESTYLE
  5
18
102
{ACAD_REACTORS
330
17
102
}
330
17
100
AcDbMlineStyle
  2
Standard
 70
     0
  3

 62
   256
 51
90.0
 52
90.0
 71
     2
 49
0.5
 62
   256
  6
BYLAYER
 49
-0.5
 62
   256
  6
BYLAYER
  0
ACDBPLACEHOLDER
  5
F
102
{ACAD_REACTORS
330
E
102
}
330
E
  0
SCALE
  5
48
102
{ACAD_REACTORS
330
47
102
}
330
47
100
AcDbScale
 70
     0
300
1:1
140
1.0
141
1.0
290
     1
  0
SCALE
  5
49
102
{ACAD_REACTORS
330
47
102
}
330
47
100
AcDbScale
 70
     0
300
1:2
140
1.0
141
2.0
290
     0
  0
SCALE
  5
4A
102
{ACAD_REACTORS
330
47
102
}
330
47
100
AcDbScale
 70
     0
300
1:4
140
1.0
141
4.0
290
     0
  0
SCALE
  5
4B
102
{ACAD_REACTORS
330
47
102
}
330
47
100
AcDbScale
 70
     0
300
1:5
140
1.0
141
5.0
290
     0
  0
SCALE
  5
4C
102
{ACAD_REACTORS
330
47
102
}
330
47
100
AcDbScale
 70
     0
300
1:8
140
1.0
141
8.0
290
     0
  0
SCALE
  5
4D
102
{ACAD_REACTORS
330
47
102
}
330
47
100
AcDbScale
 70
     0
300
1:10
140
1.0
141
10.0
290
     0
  0
SCALE
  5
4E
102
{ACAD_REACTORS
330
47
102
}
330
47
100
AcDbScale
 70
     0
300
1:16
140
1.0
141
16.0
290
     0
  0
SCALE
  5
4F
102
{ACAD_REACTORS
330
47
102
}
330
47
100
AcDbScale
 70
     0
300
1:20
140
1.0
141
20.0
290
     0
  0
SCALE
  5
50
102
{ACAD_REACTORS
330
47
102
}
330
47
100
AcDbScale
 70
     0
300
1:30
140
1.0
141
30.0
290
     0
  0
SCALE
  5
51
102
{ACAD_REACTORS
330
47
102
}
330
47
100
AcDbScale
 70
     0
300
1:40
140
1.0
141
40.0
290
     0
  0
SCALE
  5
52
102
{ACAD_REACTORS
330
47
102
}
330
47
100
AcDbScale
 70
     0
300
1:50
140
1.0
141
50.0
290
     0
  0
SCALE
  5
53
102
{ACAD_REACTORS
330
47
102
}
330
47
100
AcDbScale
 70
     0
300
1:100
140
1.0
141
100.0
290
     0
  0
SCALE
  5
54
102
{ACAD_REACTORS
330
47
102
}
330
47
100
AcDbScale
 70
     0
300
2:1
140
2.0
141
1.0
290
     0
  0
SCALE
  5
55
102
{ACAD_REACTORS
330
47
102
}
330
47
100
AcDbScale
 70
     0
300
4:1
140
4.0
141
1.0
290
     0
  0
SCALE
  5
56
102
{ACAD_REACTORS
330
47
102
}
330
47
100
AcDbScale
 70
     0
300
8:1
140
8.0
141
1.0
290
     0
  0
SCALE
  5
57
102
{ACAD_REACTORS
330
47
102
}
330
47
100
AcDbScale
 70
     0
300
10:1
140
10.0
141
1.0
290
     0
  0
SCALE
  5
58
102
{ACAD_REACTORS
330
47
102
}
330
47
100
AcDbScale
 70
     0
300
100:1
140
100.0
141
1.0
290
     0
  0
SCALE
  5
59
102
{ACAD_REACTORS
330
47
102
}
330
47
100
AcDbScale
 70
     0
300
1/128" = 1'-0"
140
0.0078125
141
12.0
290
     0
  0
SCALE
  5
5A
102
{ACAD_REACTORS
330
47
102
}
330
47
100
AcDbScale
 70
     0
300
1/64" = 1'-0"
140
0.015625
141
12.0
290
     0
  0
SCALE
  5
5B
102
{ACAD_REACTORS
330
47
102
}
330
47
100
AcDbScale
 70
     0
300
1/32" = 1'-0"
140
0.03125
141
12.0
290
     0
  0
SCALE
  5
5C
102
{ACAD_REACTORS
330
47
102
}
330
47
100
AcDbScale
 70
     0
300
1/16" = 1'-0"
140
0.0625
141
12.0
290
     0
  0
SCALE
  5
5D
102
{ACAD_REACTORS
330
47
102
}
330
47
100
AcDbScale
 70
     0
300
3/32" = 1'-0"
140
0.09375
141
12.0
290
     0
  0
SCALE
  5
5E
102
{ACAD_REACTORS
330
47
102
}
330
47
100
AcDbScale
 70
     0
300
1/8" = 1'-0"
140
0.125
141
12.0
290
     0
  0
SCALE
  5
5F
102
{ACAD_REACTORS
330
47
102
}
330
47
100
AcDbScale
 70
     0
300
3/16" = 1'-0"
140
0.1875
141
12.0
290
     0
  0
SCALE
  5
60
102
{ACAD_REACTORS
330
47
102
}
330
47
100
AcDbScale
 70
     0
300
1/4" = 1'-0"
140
0.25
141
12.0
290
     0
  0
SCALE
  5
61
102
{ACAD_REACTORS
330
47
102
}
330
47
100
AcDbScale
 70
     0
300
3/8" = 1'-0"
140
0.375
141
12.0
290
     0
  0
SCALE
  5
62
102
{ACAD_REACTORS
330
47
102
}
330
47
100
AcDbScale
 70
     0
300
1/2" = 1'-0"
140
0.5
141
12.0
290
     0
  0
SCALE
  5
63
102
{ACAD_REACTORS
330
47
102
}
330
47
100
AcDbScale
 70
     0
300
3/4" = 1'-0"
140
0.75
141
12.0
290
     0
  0
SCALE
  5
64
102
{ACAD_REACTORS
330
47
102
}
330
47
100
AcDbScale
 70
     0
300
1" = 1'-0"
140
1.0
141
12.0
290
     0
  0
SCALE
  5
65
102
{ACAD_REACTORS
330
47
102
}
330
47
100
AcDbScale
 70
     0
300
1-1/2" = 1'-0"
140
1.5
141
12.0
290
     0
  0
SCALE
  5
66
102
{ACAD_REACTORS
330
47
102
}
330
47
100
AcDbScale
 70
     0
300
3" = 1'-0"
140
3.0
141
12.0
290
     0
  0
SCALE
  5
67
102
{ACAD_REACTORS
330
47
102
}
330
47
100
AcDbScale
 70
     0
300
6" = 1'-0"
140
6.0
141
12.0
290
     0
  0
SCALE
  5
68
102
{ACAD_REACTORS
330
47
102
}
330
47
100
AcDbScale
 70
     0
300
1'-0" = 1'-0"
140
12.0
141
12.0
290
     0
  0
ENDSEC
  0
EOF
